<svg width="20" height="16" viewBox="0 0 20 16" fill="none" xmlns="http://www.w3.org/2000/svg">
<path fill-rule="evenodd" clip-rule="evenodd" d="M13.442 7.99995C13.442 8.91275 13.0794 9.78817 12.434 10.4336C11.7885 11.0791 10.9131 11.4417 10.0003 11.4417C9.08752 11.4417 8.2121 11.0791 7.56665 10.4336C6.9212 9.78817 6.55859 8.91275 6.55859 7.99995C6.55859 7.08715 6.9212 6.21173 7.56665 5.56629C8.2121 4.92084 9.08752 4.55823 10.0003 4.55823C10.9131 4.55823 11.7885 4.92084 12.434 5.56629C13.0794 6.21173 13.442 7.08715 13.442 7.99995ZM11.7212 7.99995C11.7212 8.45635 11.5399 8.89406 11.2172 9.21678C10.8944 9.53951 10.4567 9.72081 10.0003 9.72081C9.54392 9.72081 9.10621 9.53951 8.78349 9.21678C8.46076 8.89406 8.27946 8.45635 8.27946 7.99995C8.27946 7.54355 8.46076 7.10584 8.78349 6.78312C9.10621 6.46039 9.54392 6.27909 10.0003 6.27909C10.4567 6.27909 10.8944 6.46039 11.2172 6.78312C11.5399 7.10584 11.7212 7.54355 11.7212 7.99995Z" fill="white"/>
<path fill-rule="evenodd" clip-rule="evenodd" d="M9.99993 0.256104C14.7206 0.256104 18.7022 3.42446 19.9325 7.75132C19.9787 7.91369 19.9787 8.08627 19.9325 8.24865C18.7023 12.5755 14.7215 15.7439 9.99993 15.7439C5.27839 15.7439 1.29758 12.5755 0.0673353 8.24865C0.0211677 8.08627 0.0211677 7.91369 0.0673354 7.75132C1.29758 3.42446 5.27839 0.256104 9.99993 0.256104ZM9.99993 14.023C6.25902 14.023 3.07258 11.6346 1.88839 8.29779C1.82004 8.10518 1.82004 7.89479 1.88839 7.70218C3.07258 4.36533 6.25902 1.97697 9.99993 1.97697C13.7408 1.97697 16.9273 4.36533 18.1115 7.70218C18.1798 7.89479 18.1798 8.10518 18.1115 8.29779C16.9273 11.6346 13.7408 14.023 9.99993 14.023Z" fill="white"/>
</svg>
