<svg width="48" height="15" viewBox="0 0 48 15" fill="none" xmlns="http://www.w3.org/2000/svg">
<path d="M19.1537 0.244995L16.7227 14.511H20.6107L23.0437 0.244995H19.1537Z" fill="white"/>
<path d="M13.4613 0.260996L9.65333 9.99L9.24733 8.521C8.49633 6.751 6.36433 4.20899 3.86133 2.60699L7.34333 14.504L11.4573 14.497L17.5803 0.257996L13.4613 0.260996Z" fill="white"/>
<path d="M7.772 1.28199C7.546 0.412986 6.891 0.153986 6.078 0.122986H0.05L0 0.406986C4.691 1.54499 7.795 4.28699 9.083 7.58399L7.772 1.28199Z" fill="white"/>
<path d="M30.923 2.98C32.195 2.96 33.117 3.238 33.833 3.526L34.184 3.691L34.71 0.598999C33.94 0.309999 32.733 0 31.227 0C27.385 0 24.677 1.935 24.656 4.708C24.631 6.757 26.585 7.901 28.061 8.584C29.576 9.284 30.084 9.729 30.077 10.354C30.065 11.309 28.869 11.747 27.752 11.747C26.195 11.747 25.368 11.532 24.091 11L23.59 10.772L23.043 13.965C23.953 14.364 25.632 14.707 27.375 14.725C31.462 14.725 34.118 12.813 34.146 9.85C34.163 8.229 33.126 6.992 30.879 5.977C29.519 5.315 28.687 4.875 28.695 4.207C28.695 3.614 29.401 2.98 30.923 2.98Z" fill="white"/>
<path d="M44.689 0.260986H41.685C40.752 0.260986 40.058 0.514986 39.648 1.44499L33.875 14.519H37.958C37.958 14.519 38.624 12.761 38.775 12.376C39.222 12.376 43.189 12.382 43.754 12.382C43.87 12.88 44.228 14.519 44.228 14.519H47.835L44.689 0.260986ZM39.894 9.45599C40.214 8.63699 41.443 5.46899 41.443 5.46899C41.422 5.50799 41.76 4.64399 41.961 4.10699L42.223 5.33699C42.223 5.33699 42.968 8.74299 43.124 9.45599H39.894Z" fill="white"/>
</svg>
