<svg width="40" height="26" viewBox="0 0 40 26" fill="none" xmlns="http://www.w3.org/2000/svg">
<path d="M12.8641 0.109375C5.77087 0.109375 0 5.87964 0 12.9722C0 20.0648 5.77087 25.8351 12.8641 25.8351C19.9573 25.8351 25.7281 20.0648 25.7281 12.9722C25.7281 5.87964 19.9573 0.109375 12.8641 0.109375Z" fill="white"/>
<path d="M27.1356 0.109375C20.0424 0.109375 14.2715 5.87964 14.2715 12.9722C14.2715 20.0648 20.0424 25.8351 27.1356 25.8351C34.2288 25.8351 39.9996 20.0648 39.9996 12.9722C39.9996 5.87964 34.2288 0.109375 27.1356 0.109375Z" fill="#D7D7D7"/>
<path d="M19.2809 17.1934C19.2809 16.5461 18.7563 16.0215 18.109 16.0215H14.6367C14.8354 16.8358 15.1116 17.6198 15.4573 18.3653H18.109C18.7563 18.3653 19.2809 17.8407 19.2809 17.1934Z" fill="white"/>
<path d="M19.2828 9.56647C19.2828 8.91949 18.7582 8.39459 18.1109 8.39459H15.115C14.8281 9.14502 14.6093 9.92871 14.4668 10.7383H18.1109C18.7582 10.7383 19.2828 10.2137 19.2828 9.56647Z" fill="white"/>
<path d="M22.5057 13.3799C22.5057 12.7327 21.9808 12.2081 21.3339 12.2081H14.2947C14.2797 12.4611 14.2715 12.7156 14.2715 12.9722C14.2715 13.5069 14.3047 14.0339 14.3685 14.5518H21.3339C21.9808 14.5518 22.5057 14.0272 22.5057 13.3799Z" fill="white"/>
</svg>
