<svg width="32" height="32" viewBox="0 0 32 32" fill="none" xmlns="http://www.w3.org/2000/svg">
<rect width="32" height="32" rx="4" fill="url(#paint0_linear)"/>
<path d="M27.4843 12.294C26.7989 11.6086 25.6837 11.6087 24.9982 12.2942C24.7873 12.5052 23.441 13.8526 23.2354 14.0585V9.41508C23.2354 8.94555 23.0525 8.50414 22.7205 8.17215L21.0632 6.51484C20.7312 6.18281 20.2898 6 19.8203 6H9.75879C8.78953 6 8.00098 6.78855 8.00098 7.75781V24.2422C8.00098 25.2114 8.78953 26 9.75879 26H21.4775C22.4468 26 23.2354 25.2114 23.2354 24.2422V19.0325L27.4843 14.78C28.1713 14.093 28.1714 12.9811 27.4843 12.294ZM19.7198 7.17188C19.8305 7.17188 20.0438 7.1527 20.2346 7.34348L21.8919 9.00078C22.0778 9.18676 22.0635 9.39055 22.0635 9.51562H19.7198V7.17188ZM22.0635 24.2422C22.0635 24.5653 21.8007 24.8281 21.4775 24.8281H9.75879C9.4357 24.8281 9.17285 24.5653 9.17285 24.2422V7.75781C9.17285 7.43473 9.4357 7.17188 9.75879 7.17188H18.5479V10.1016C18.5479 10.4252 18.8102 10.6875 19.1338 10.6875H22.0635V15.2314C22.0635 15.2314 20.3348 16.9615 20.3347 16.9616L19.5065 17.7898C19.4422 17.8541 19.3937 17.9326 19.3649 18.0189L18.5363 20.5048C18.4661 20.7154 18.5209 20.9475 18.6778 21.1044C18.835 21.2616 19.0672 21.3161 19.2774 21.246L21.7634 20.4173C21.8496 20.3886 21.9281 20.3401 21.9924 20.2758L22.0635 20.2047V24.2422ZM20.7494 18.2042L21.578 19.0328L21.2615 19.3493L20.0186 19.7636L20.4329 18.5207L20.7494 18.2042ZM22.4065 18.204L21.5779 17.3754C22.0191 16.9338 23.9789 14.9723 24.3945 14.5564L25.2231 15.385L22.4065 18.204ZM26.6555 13.9515L26.0514 14.556L25.2228 13.7274L25.827 13.1227C26.0556 12.8942 26.4273 12.8942 26.6557 13.1227C26.8841 13.3512 26.8853 13.7216 26.6555 13.9515Z" fill="white"/>
<path d="M19.1333 11.8594H10.9302C10.6066 11.8594 10.3442 12.1217 10.3442 12.4453C10.3442 12.7689 10.6066 13.0312 10.9302 13.0312H19.1333C19.4569 13.0312 19.7192 12.7689 19.7192 12.4453C19.7192 12.1217 19.4569 11.8594 19.1333 11.8594Z" fill="white"/>
<path d="M16.7896 14.2031H10.9302C10.6066 14.2031 10.3442 14.4655 10.3442 14.7891C10.3442 15.1127 10.6066 15.375 10.9302 15.375H16.7896C17.1131 15.375 17.3755 15.1127 17.3755 14.7891C17.3755 14.4655 17.1131 14.2031 16.7896 14.2031Z" fill="white"/>
<path d="M16.7896 16.5469H10.9302C10.6066 16.5469 10.3442 16.8092 10.3442 17.1328C10.3442 17.4564 10.6066 17.7188 10.9302 17.7188H16.7896C17.1131 17.7188 17.3755 17.4564 17.3755 17.1328C17.3755 16.8092 17.1131 16.5469 16.7896 16.5469Z" fill="white"/>
<path d="M16.7896 18.8906H10.9302C10.6066 18.8906 10.3442 19.153 10.3442 19.4766C10.3442 19.8002 10.6066 20.0625 10.9302 20.0625H16.7896C17.1131 20.0625 17.3755 19.8002 17.3755 19.4766C17.3755 19.153 17.1131 18.8906 16.7896 18.8906Z" fill="white"/>
<path d="M19.1333 22.4844H15.6177C15.2941 22.4844 15.0317 22.7467 15.0317 23.0703C15.0317 23.3939 15.2941 23.6562 15.6177 23.6562H19.1333C19.4569 23.6562 19.7192 23.3939 19.7192 23.0703C19.7192 22.7467 19.4569 22.4844 19.1333 22.4844Z" fill="white"/>
<defs>
<linearGradient id="paint0_linear" x1="31.5" y1="1" x2="2.57045e-06" y2="31" gradientUnits="userSpaceOnUse">
<stop stop-color="#CF26EB"/>
<stop offset="1" stop-color="#6019D5"/>
</linearGradient>
</defs>
</svg>
