<svg width="32" height="32" viewBox="0 0 32 32" fill="none" xmlns="http://www.w3.org/2000/svg">
<rect width="32" height="32" rx="4" fill="url(#paint0_linear)"/>
<path d="M24.125 9.125H7.875C7.5293 9.125 7.25 9.4043 7.25 9.75V22.25C7.25 22.5957 7.5293 22.875 7.875 22.875H24.125C24.4707 22.875 24.75 22.5957 24.75 22.25V9.75C24.75 9.4043 24.4707 9.125 24.125 9.125ZM8.65625 10.5312H23.3438V12.875H8.65625V10.5312ZM23.3438 21.4688H8.65625V14.5938H23.3438V21.4688ZM18.7148 20.2188H21.9375C22.0234 20.2188 22.0938 20.1484 22.0938 20.0625V18.6562C22.0938 18.5703 22.0234 18.5 21.9375 18.5H18.7148C18.6289 18.5 18.5586 18.5703 18.5586 18.6562V20.0625C18.5586 20.1484 18.6289 20.2188 18.7148 20.2188Z" fill="white"/>
<defs>
<linearGradient id="paint0_linear" x1="31.5" y1="1" x2="2.57045e-06" y2="31" gradientUnits="userSpaceOnUse">
<stop stop-color="#26EB81"/>
<stop offset="1" stop-color="#19C9D5"/>
</linearGradient>
</defs>
</svg>
