<svg width="32" height="32" viewBox="0 0 32 32" fill="none" xmlns="http://www.w3.org/2000/svg">
<rect width="32" height="32" rx="4" fill="url(#paint0_linear)"/>
<g clip-path="url(#clip0)">
<path d="M14.6195 6.14313C12.112 6.66575 10.12 8.71683 9.66285 11.247C9.3386 13.0415 9.7457 14.8239 10.8091 16.2661C11.0554 16.6 11.3735 16.9285 11.7104 17.2763C12.3478 17.9342 13.0701 18.6801 13.0701 19.2993V20.1008H12.4842C12.1606 20.1008 11.8983 20.3633 11.8983 20.6867C11.8983 21.0104 12.1606 21.2727 12.4842 21.2727H13.0701V23.0696C13.0701 24.685 14.3844 25.9992 15.9998 25.9992C17.6153 25.9992 18.9295 24.685 18.9295 23.0696V21.2727H19.5154C19.8391 21.2727 20.1014 21.0104 20.1014 20.6867C20.1014 20.3633 19.8391 20.1008 19.5154 20.1008H18.9295V19.4012C18.9295 18.7385 19.6682 17.953 20.32 17.2601C20.6599 16.8987 20.9807 16.5576 21.2308 16.2107C22.0252 15.1092 22.4451 13.8069 22.4451 12.4446C22.4451 8.38358 18.7286 5.28696 14.6195 6.14313V6.14313ZM17.7576 22.4836H14.242V21.2727H17.7576V22.4836ZM15.9998 24.8274C15.236 24.8274 14.5843 24.3373 14.3424 23.6552H17.6572C17.4154 24.3373 16.7637 24.8274 15.9998 24.8274ZM20.2804 15.5253C20.075 15.8102 19.7794 16.1245 19.4665 16.4572C18.6654 17.3088 17.7576 18.2739 17.7576 19.4012V20.1008H14.242V19.2993C14.242 18.2055 13.3442 17.2787 12.5521 16.461C12.2434 16.1422 11.9518 15.8412 11.7524 15.5706C10.8822 14.3907 10.5497 12.9292 10.816 11.4555C11.1892 9.39036 12.8138 7.71647 14.8585 7.29044C18.2247 6.58884 21.2733 9.11219 21.2733 12.4446C21.2733 13.5592 20.9299 14.6246 20.2804 15.5253Z" fill="white"/>
<path d="M25.4141 11.8586H24.2422C23.9185 11.8586 23.6562 12.1211 23.6562 12.4446C23.6562 12.7682 23.9185 13.0305 24.2422 13.0305H25.4141C25.7377 13.0305 26 12.7682 26 12.4446C26 12.1211 25.7377 11.8586 25.4141 11.8586Z" fill="white"/>
<path d="M6.58594 13.0305H7.75781C8.08145 13.0305 8.34375 12.7682 8.34375 12.4446C8.34375 12.1211 8.08145 11.8586 7.75781 11.8586H6.58594C6.2623 11.8586 6 12.1211 6 12.4446C6 12.7682 6.2623 13.0305 6.58594 13.0305Z" fill="white"/>
<path d="M6.31693 18.0068C6.47699 18.2892 6.83481 18.3869 7.11557 18.2279L9.18436 17.056C9.46588 16.8964 9.56491 16.5389 9.40546 16.2574C9.246 15.9757 8.88834 15.8768 8.60681 16.0363L6.53803 17.2082C6.25635 17.3678 6.15747 17.7253 6.31693 18.0068Z" fill="white"/>
<path d="M25.6828 6.88239C25.5233 6.60071 25.1656 6.50183 24.8841 6.66129L22.8153 7.83316C22.5338 7.99262 22.4348 8.35028 22.5942 8.63181C22.7543 8.91425 23.1121 9.0119 23.3929 8.85291L25.4617 7.68103C25.7433 7.52142 25.8422 7.16391 25.6828 6.88239Z" fill="white"/>
<path d="M9.40591 8.63181C9.56537 8.35028 9.46634 7.99277 9.18481 7.83316L7.11603 6.66129C6.8345 6.50183 6.47684 6.60071 6.31738 6.88239C6.15793 7.16391 6.25696 7.52142 6.53848 7.68103L8.60727 8.85291C8.88833 9.01206 9.24615 8.91394 9.40591 8.63181Z" fill="white"/>
<path d="M25.6828 18.0068C25.8422 17.7253 25.7432 17.3678 25.4617 17.2082L23.3929 16.0363C23.1114 15.8768 22.7538 15.9757 22.5942 16.2574C22.4348 16.5389 22.5338 16.8964 22.8153 17.056L24.8841 18.2279C25.1652 18.3871 25.523 18.2889 25.6828 18.0068Z" fill="white"/>
<path d="M15.9937 12.0303C16.3167 12.0303 16.5796 12.2932 16.5796 12.6162C16.5796 12.9399 16.8419 13.2022 17.1655 13.2022C17.489 13.2022 17.7515 12.9399 17.7515 12.6162C17.7515 11.8547 17.2646 11.205 16.5858 10.9614V10.1008C16.5858 9.77734 16.3235 9.51489 15.9999 9.51489C15.6763 9.51489 15.414 9.77734 15.414 10.1008V10.9572C14.7287 11.1972 14.2358 11.8501 14.2358 12.6162C14.2358 13.5855 15.0244 14.3741 15.9937 14.3741C16.3167 14.3741 16.5796 14.637 16.5796 14.96C16.5796 15.283 16.3167 15.5459 15.9937 15.5459C15.6705 15.5459 15.4077 15.283 15.4077 14.96C15.4077 14.6364 15.1453 14.3741 14.8218 14.3741C14.4981 14.3741 14.2358 14.6364 14.2358 14.96C14.2358 15.7261 14.7287 16.3791 15.414 16.6191V17.1321C15.414 17.4557 15.6763 17.718 15.9999 17.718C16.3235 17.718 16.5858 17.4557 16.5858 17.1321V16.615C17.2646 16.3713 17.7515 15.7216 17.7515 14.96C17.7515 13.9908 16.9629 13.2022 15.9937 13.2022C15.6705 13.2022 15.4077 12.9394 15.4077 12.6162C15.4077 12.2932 15.6705 12.0303 15.9937 12.0303V12.0303Z" fill="white"/>
</g>
<defs>
<linearGradient id="paint0_linear" x1="31.5" y1="1" x2="2.57045e-06" y2="31" gradientUnits="userSpaceOnUse">
<stop stop-color="#EBC026"/>
<stop offset="1" stop-color="#D55C19"/>
</linearGradient>
<clipPath id="clip0">
<rect width="20" height="20" fill="white" transform="translate(6 6)"/>
</clipPath>
</defs>
</svg>
