<svg width="32" height="32" viewBox="0 0 32 32" fill="none" xmlns="http://www.w3.org/2000/svg">
<rect width="32" height="32" rx="4" fill="url(#paint0_linear)"/>
<g clip-path="url(#clip0)">
<path d="M11.1389 18.36L11.9269 18.6317C13.4534 19.158 13.5024 21.3262 11.9677 21.9006C11.9677 22.3128 11.6598 22.5735 11.3226 22.5735C10.9888 22.5735 10.6774 22.3167 10.6774 21.9006C10.0183 21.6539 9.5477 21.0177 9.5477 20.2735C9.5477 19.9172 9.83653 19.6284 10.1929 19.6284C10.5492 19.6284 10.838 19.9172 10.838 20.2735C10.838 20.5197 11.0383 20.7199 11.2844 20.7199H11.3607C11.8644 20.7199 11.9788 20.0145 11.5062 19.8515L10.7183 19.5798C9.19177 19.0535 9.14274 16.8853 10.6774 16.3109C10.6774 15.8987 10.9854 15.638 11.3226 15.638C11.6564 15.638 11.9677 15.8948 11.9677 16.3109C12.6269 16.5576 13.0975 17.1938 13.0975 17.938C13.0975 18.2943 12.8086 18.5831 12.4523 18.5831C12.096 18.5831 11.8071 18.2943 11.8071 17.938C11.8071 17.6918 11.6069 17.4916 11.3607 17.4916H11.2845C10.7808 17.4915 10.6663 18.197 11.1389 18.36V18.36ZM16.6452 19.1057C16.6452 22.0406 14.2575 24.4283 11.3226 24.4283C8.3877 24.4283 6 22.0407 6 19.1057C6 16.1708 8.3877 13.7832 11.3226 13.7832C14.2575 13.7832 16.6452 16.1709 16.6452 19.1057ZM15.3548 19.1057C15.3548 16.8823 13.546 15.0735 11.3226 15.0735C9.09915 15.0735 7.29032 16.8823 7.29032 19.1057C7.29032 21.3292 9.09915 23.138 11.3226 23.138C13.546 23.138 15.3548 21.3292 15.3548 19.1057ZM25.3548 23.138H24.9113V12.4928C24.9113 12.1365 24.6225 11.8477 24.2661 11.8477C23.9098 11.8477 23.621 12.1365 23.621 12.4928V23.138H20.3548V15.0735C20.3548 14.7172 20.066 14.4283 19.7097 14.4283C19.3533 14.4283 19.0645 14.7172 19.0645 15.0735V23.138H16.3226C15.9662 23.138 15.6774 23.4268 15.6774 23.7832C15.6774 24.1395 15.9662 24.4283 16.3226 24.4283H25.3548C25.7112 24.4283 26 24.1395 26 23.7832C26 23.4268 25.7112 23.138 25.3548 23.138ZM15.932 14.5216L18.2379 12.2157L19.2535 13.2313C19.5054 13.4832 19.914 13.4832 20.1659 13.2313L23.621 9.77619V10.0735C23.621 10.4298 23.9098 10.7187 24.2661 10.7187C24.6225 10.7187 24.9113 10.4298 24.9113 10.0735C24.9113 8.02607 24.9144 8.19986 24.9042 8.1276C24.8729 7.90748 24.7283 7.71176 24.5128 7.62256C24.3532 7.55651 24.4027 7.57349 22.4113 7.57349C22.055 7.57349 21.7661 7.86232 21.7661 8.21865C21.7661 8.57498 22.055 8.86381 22.4113 8.86381H22.7086L19.7097 11.8627L18.6941 10.8471C18.4421 10.5952 18.0336 10.5952 17.7817 10.8471L15.0196 13.6092C14.7676 13.8612 14.7676 14.2697 15.0196 14.5216C15.2716 14.7736 15.68 14.7736 15.932 14.5216V14.5216Z" fill="white"/>
</g>
<defs>
<linearGradient id="paint0_linear" x1="31.5" y1="1" x2="2.57045e-06" y2="31" gradientUnits="userSpaceOnUse">
<stop stop-color="#26BCEB"/>
<stop offset="1" stop-color="#3ED519"/>
</linearGradient>
<clipPath id="clip0">
<rect width="20" height="20" fill="white" transform="translate(6 6)"/>
</clipPath>
</defs>
</svg>
