<svg width="32" height="32" viewBox="0 0 32 32" fill="none" xmlns="http://www.w3.org/2000/svg">
<rect width="32" height="32" rx="4" fill="url(#paint0_linear)"/>
<path d="M16 6C10.486 6 6 10.486 6 16C6 21.514 10.486 26 16 26C21.514 26 26 21.514 26 16C26 10.486 21.514 6 16 6ZM16 24C11.589 24 8 20.411 8 16C8 11.589 11.589 8 16 8C20.411 8 24 11.589 24 16C24 20.411 20.411 24 16 24Z" fill="white"/>
<path d="M16 15C14 15 14 14.374 14 14C14 13.516 14.701 13 16 13C16.7578 13 17.1132 13.2609 17.2746 13.5484C17.408 13.786 17.6182 14.014 17.8906 14.0091L18.4 14H18.9C19.1761 14 19.4033 13.7743 19.3514 13.5031C19.1703 12.5552 18.4678 11.468 17 11.121V11.012C17 10.4597 16.5523 10.012 16 10.012V10.012C15.4477 10.012 15 10.4597 15 11.012V11.085C13.029 11.416 12 12.712 12 14C12 15.12 12.52 17 16 17C18 17 18 17.676 18 18C18 18.415 17.38 19 16 19C14.9016 19 14.4059 18.6949 14.1823 18.4184C14.018 18.2153 13.7983 18 13.537 18H12.5C12.2239 18 11.9974 18.2258 12.0567 18.4955C12.259 19.4157 13.0409 20.6126 15 20.92V21C15 21.5522 15.4477 22 16 22V22C16.5523 22 17 21.5522 17 21V20.915C18.971 20.584 20 19.288 20 18C20 16.88 19.48 15 16 15Z" fill="white"/>
<defs>
<linearGradient id="paint0_linear" x1="31.5" y1="1" x2="2.57045e-06" y2="31" gradientUnits="userSpaceOnUse">
<stop stop-color="#7D26EB"/>
<stop offset="1" stop-color="#19A7D5"/>
</linearGradient>
</defs>
</svg>
