<svg width="12" height="12" viewBox="0 0 12 12" fill="none" xmlns="http://www.w3.org/2000/svg">
<path fill-rule="evenodd" clip-rule="evenodd" d="M8.3998 0.148553C8.6305 -0.0545371 8.99809 -0.0486572 9.22083 0.161686L11.8371 2.63227C12.0543 2.83742 12.0543 3.16258 11.8371 3.36773L9.22083 5.83831C8.99809 6.04866 8.6305 6.05454 8.3998 5.85145C8.1691 5.64836 8.16265 5.3132 8.3854 5.10286L10.0516 3.52941H0.580645C0.259964 3.52941 0 3.29239 0 3C0 2.70761 0.259964 2.47059 0.580645 2.47059H10.0516L8.3854 0.897139C8.16265 0.686796 8.1691 0.351642 8.3998 0.148553Z" fill="white"/>
<path fill-rule="evenodd" clip-rule="evenodd" d="M3.6002 11.8514C3.3695 12.0545 3.00191 12.0487 2.77917 11.8383L0.162928 9.36773C-0.0543096 9.16258 -0.0543096 8.83742 0.162928 8.63227L2.77917 6.16169C3.00191 5.95134 3.3695 5.94546 3.6002 6.14855C3.8309 6.35164 3.83735 6.6868 3.6146 6.89714L1.94839 8.47059L11.4194 8.47059C11.74 8.47059 12 8.70761 12 9C12 9.29239 11.74 9.52941 11.4194 9.52941L1.94839 9.52941L3.6146 11.1029C3.83735 11.3132 3.8309 11.6484 3.6002 11.8514Z" fill="white"/>
</svg>
