<svg width="16" height="16" viewBox="0 0 16 16" fill="none" xmlns="http://www.w3.org/2000/svg">
<path fill-rule="evenodd" clip-rule="evenodd" d="M8.00016 2.5C6.80355 2.5 5.8335 3.47005 5.8335 4.66667C5.8335 5.86328 6.80355 6.83333 8.00016 6.83333C9.19678 6.83333 10.1668 5.86328 10.1668 4.66667C10.1668 3.47005 9.19678 2.5 8.00016 2.5ZM4.8335 4.66667C4.8335 2.91777 6.25126 1.5 8.00016 1.5C9.74906 1.5 11.1668 2.91777 11.1668 4.66667C11.1668 6.41557 9.74906 7.83333 8.00016 7.83333C6.25126 7.83333 4.8335 6.41557 4.8335 4.66667Z" fill="white"/>
<path fill-rule="evenodd" clip-rule="evenodd" d="M8.00007 8.5C5.53527 8.5 3.50072 10.3454 3.20401 12.7297C3.20122 12.7521 3.20666 12.7711 3.22587 12.7911C3.2477 12.8138 3.28536 12.8333 3.33341 12.8333H12.6667C12.7148 12.8333 12.7524 12.8138 12.7743 12.7911C12.7935 12.7711 12.7989 12.7521 12.7961 12.7297C12.4994 10.3454 10.4649 8.5 8.00007 8.5ZM2.21166 12.6062C2.56991 9.72751 5.02447 7.5 8.00007 7.5C10.9757 7.5 13.4302 9.72751 13.7885 12.6062C13.8763 13.3115 13.2921 13.8333 12.6667 13.8333H3.33341C2.70808 13.8333 2.12389 13.3115 2.21166 12.6062Z" fill="white"/>
</svg>
