<svg width="16" height="16" viewBox="0 0 16 16" fill="none" xmlns="http://www.w3.org/2000/svg">
<path fill-rule="evenodd" clip-rule="evenodd" d="M3.8 3.2C3.64087 3.2 3.48826 3.26321 3.37574 3.37573C3.26321 3.48826 3.2 3.64087 3.2 3.8V11.9515L4.57574 10.5757C4.68826 10.4632 4.84087 10.4 5 10.4H12.2C12.3591 10.4 12.5117 10.3368 12.6243 10.2243C12.7368 10.1117 12.8 9.95912 12.8 9.79999V3.8C12.8 3.64087 12.7368 3.48826 12.6243 3.37573C12.5117 3.26321 12.3591 3.2 12.2 3.2H3.8ZM2.52721 2.52721C2.86477 2.18964 3.32261 2 3.8 2H12.2C12.6774 2 13.1352 2.18964 13.4728 2.52721C13.8104 2.86477 14 3.32261 14 3.8V9.79999C14 10.2774 13.8104 10.7352 13.4728 11.0728C13.1352 11.4103 12.6774 11.6 12.2 11.6H5.24853L3.02426 13.8242C2.85267 13.9958 2.59459 14.0472 2.37039 13.9543C2.14619 13.8614 2 13.6427 2 13.4V3.8C2 3.32261 2.18964 2.86477 2.52721 2.52721Z" fill="white"/>
</svg>
