<svg width="18" height="18" viewBox="0 0 18 18" fill="none" xmlns="http://www.w3.org/2000/svg">
<path fill-rule="evenodd" clip-rule="evenodd" d="M4.95042 1.67742C6.02446 0.603386 7.48116 0 9.00007 0C10.519 0 11.9757 0.603386 13.0497 1.67742C14.1238 2.75145 14.7271 4.20815 14.7271 5.72707C14.7271 8.47005 15.3138 10.1734 15.8545 11.1646C16.1259 11.6623 16.3903 11.9888 16.5739 12.1826C16.6659 12.2797 16.7382 12.3441 16.7817 12.3804C16.8035 12.3986 16.8181 12.4097 16.8244 12.4144C16.8254 12.4151 16.8262 12.4157 16.8268 12.4161C17.1201 12.6176 17.2499 12.9861 17.1465 13.3275C17.042 13.6726 16.724 13.9086 16.3634 13.9086H1.6367C1.27616 13.9086 0.958127 13.6726 0.85365 13.3275C0.750283 12.9861 0.880074 12.6176 1.17337 12.4161C1.17394 12.4157 1.17472 12.4151 1.17571 12.4144C1.18201 12.4097 1.19661 12.3986 1.21839 12.3804C1.26193 12.3441 1.33424 12.2797 1.42627 12.1826C1.60988 11.9888 1.87422 11.6623 2.14567 11.1646C2.68633 10.1734 3.273 8.47005 3.273 5.72707C3.273 4.20815 3.87639 2.75145 4.95042 1.67742ZM1.18164 12.4105C1.1817 12.4105 1.18177 12.4104 1.18183 12.4104C1.18183 12.4104 1.18183 12.4104 1.18182 12.4104L1.18164 12.4105ZM3.39517 12.2723H14.605C14.5427 12.1703 14.4802 12.0623 14.418 11.9482C13.7314 10.6895 13.0908 8.71115 13.0908 5.72707C13.0908 4.64213 12.6598 3.60163 11.8927 2.83446C11.1255 2.06729 10.085 1.6363 9.00007 1.6363C7.91513 1.6363 6.87463 2.06729 6.10746 2.83446C5.3403 3.60163 4.90931 4.64213 4.90931 5.72707C4.90931 8.71115 4.26875 10.6895 3.58218 11.9482C3.51992 12.0623 3.45742 12.1703 3.39517 12.2723Z" fill="#4E95F3"/>
<path fill-rule="evenodd" clip-rule="evenodd" d="M7.17412 15.6553C7.56497 15.4286 8.06562 15.5616 8.29235 15.9525C8.36427 16.0765 8.4675 16.1794 8.5917 16.2509C8.7159 16.3225 8.85672 16.3601 9.00005 16.3601C9.14338 16.3601 9.2842 16.3225 9.4084 16.2509C9.5326 16.1794 9.63583 16.0765 9.70775 15.9525C9.93448 15.5616 10.4351 15.4286 10.826 15.6553C11.2168 15.8821 11.3499 16.3827 11.1232 16.7736C10.9074 17.1455 10.5977 17.4542 10.2251 17.6689C9.85249 17.8835 9.43004 17.9964 9.00005 17.9964C8.57005 17.9964 8.1476 17.8835 7.775 17.6689C7.40239 17.4542 7.0927 17.1455 6.87694 16.7736C6.65022 16.3827 6.78327 15.8821 7.17412 15.6553Z" fill="#4E95F3"/>
</svg>
