<svg width="20" height="20" viewBox="0 0 20 20" fill="none" xmlns="http://www.w3.org/2000/svg">
<path d="M10.0625 5.625C7.62501 5.625 5.6875 7.5625 5.6875 10C5.6875 12.4375 7.62501 14.375 10.0625 14.375C12.5 14.375 14.4375 12.4375 14.4375 10C14.4375 7.5625 12.5 5.625 10.0625 5.625ZM10.0625 13.125C8.31251 13.125 6.9375 11.75 6.9375 10C6.9375 8.25001 8.31251 6.875 10.0625 6.875C11.8125 6.875 13.1875 8.25001 13.1875 10C13.1875 11.75 11.8125 13.125 10.0625 13.125Z" fill="#4E95F3"/>
<path d="M19.2501 7.93752L17.5 7.37502L17.125 6.43752L18 4.81251C18.1875 4.43751 18.125 3.93751 17.8125 3.62501L16.3125 2.12501C16 1.8125 15.5 1.75 15.125 1.93751L13.5 2.81251L12.5625 2.43751L12 0.687502C11.875 0.312501 11.5 0 11.0625 0H8.93752C8.50002 0 8.12502 0.312501 8.06252 0.750002L7.50002 2.50001C7.12502 2.56251 6.81252 2.68751 6.50002 2.87501L4.87501 2.00001C4.50001 1.8125 4.00001 1.87501 3.68751 2.18751L2.18751 3.68751C1.87501 4.00001 1.8125 4.50001 2.00001 4.87501L2.81251 6.43752C2.68751 6.75002 2.56251 7.12502 2.43751 7.43752L0.687502 8.00002C0.312501 8.12502 0 8.50002 0 8.93752V11.0625C0 11.5 0.312501 11.875 0.750002 12L2.50001 12.5625L2.87501 13.5L2.00001 15.125C1.8125 15.5 1.87501 16 2.18751 16.3125L3.68751 17.8125C4.00001 18.125 4.50001 18.1875 4.87501 18L6.50002 17.125L7.43752 17.5L8.00002 19.3126C8.12502 19.6876 8.50002 20.0001 8.93752 20.0001H11.0625C11.5 20.0001 11.875 19.6876 12 19.3126L12.5625 17.5L13.5 17.125L15.125 18C15.5 18.1875 16 18.125 16.3125 17.8125L17.8125 16.3125C18.125 16 18.1875 15.5 18 15.125L17.125 13.5L17.5 12.5625L19.3126 12C19.6876 11.875 20.0001 11.5 20.0001 11.0625V8.93752C20.0001 8.50002 19.6876 8.06252 19.2501 7.93752ZM18.75 10.875L16.5 11.5625L16.4375 11.875L15.875 13.1875L15.6875 13.5L16.8125 15.5625L15.5625 16.8125L13.5 15.6875L13.1875 15.875C12.75 16.125 12.3125 16.3125 11.875 16.4375L11.5625 16.5L10.875 18.75H9.12502L8.43752 16.5L8.12502 16.4375L6.81252 15.875L6.50002 15.6875L4.43751 16.8125L3.18751 15.5625L4.31251 13.5L4.12501 13.1875C3.87501 12.75 3.68751 12.3125 3.56251 11.875L3.50001 11.5625L1.25 10.875V9.12502L3.37501 8.50002L3.50001 8.18752C3.62501 7.68752 3.81251 7.25002 4.06251 6.81252L4.25001 6.50002L3.18751 4.43751L4.43751 3.18751L6.43752 4.31251L6.75002 4.12501C7.18752 3.87501 7.62502 3.68751 8.12502 3.56251L8.43752 3.43751L9.12502 1.25H10.875L11.5625 3.43751L11.875 3.56251C12.3125 3.68751 12.75 3.87501 13.1875 4.12501L13.5 4.31251L15.5625 3.18751L16.8125 4.43751L15.6875 6.50002L15.875 6.81252C16.125 7.25002 16.3125 7.68752 16.4375 8.12502L16.5 8.43752L18.75 9.12502V10.875Z" fill="#4E95F3"/>
</svg>
