<svg width="21" height="16" viewBox="0 0 21 16" fill="none" xmlns="http://www.w3.org/2000/svg">
<path fill-rule="evenodd" clip-rule="evenodd" d="M3.4566 4.10811C3.4566 1.83926 5.31958 0 7.61768 0C9.91579 0 11.7788 1.83926 11.7788 4.10811C11.7788 4.40479 11.7469 4.69413 11.6864 4.97297H10.3274C10.4166 4.70051 10.4647 4.40986 10.4647 4.10811C10.4647 2.55574 9.19007 1.2973 7.61768 1.2973C6.0453 1.2973 4.77062 2.55574 4.77062 4.10811C4.77062 5.66048 6.0453 6.91892 7.61768 6.91892C7.92333 6.91892 8.21773 6.87137 8.4937 6.78335V9.14025C8.20734 9.10124 7.91489 9.08108 7.61767 9.08108C4.37885 9.08108 1.7054 11.4752 1.31551 14.5683C1.31185 14.5974 1.31899 14.622 1.34424 14.6479C1.37292 14.6773 1.42241 14.7027 1.48554 14.7027H8.4937V14.9189C8.4937 15.0811 8.49452 15.2017 8.49527 15.3129C8.4966 15.5113 8.49774 15.6797 8.4937 16H1.48554C0.663852 16 -0.103792 15.3231 0.0115406 14.4081C0.419556 11.1711 2.89702 8.56888 6.09604 7.93287C4.55059 7.33311 3.4566 5.84674 3.4566 4.10811ZM9.36979 7.83536V6.32377C9.36977 6.32379 9.36975 6.32381 9.36972 6.32382V7.8354C9.36975 7.83539 9.36977 7.83538 9.36979 7.83536ZM9.36979 7.98237V9.32276C9.36977 9.32275 9.36975 9.32275 9.36972 9.32274V7.98235C9.36975 7.98236 9.36977 7.98236 9.36979 7.98237ZM9.36979 14.7027V14.9189C9.36979 15.1577 9.5659 15.3513 9.8078 15.3513H15C15 15.3513 15 15.3513 15 15.3514H9.80773C9.56583 15.3514 9.36972 15.1577 9.36972 14.9189V14.7027H9.36979Z" fill="#4E95F3"/>
<path d="M20.5714 6H9.42857C9.19152 6 9 6.20312 9 6.45455V15.5455C9 15.7969 9.19152 16 9.42857 16H20.5714C20.8085 16 21 15.7969 21 15.5455V6.45455C21 6.20312 20.8085 6 20.5714 6ZM9.96429 7.02273H20.0357V8.72727H9.96429V7.02273ZM20.0357 14.9773H9.96429V9.97727H20.0357V14.9773ZM16.8616 14.0682H19.0714C19.1304 14.0682 19.1786 14.017 19.1786 13.9545V12.9318C19.1786 12.8693 19.1304 12.8182 19.0714 12.8182H16.8616C16.8027 12.8182 16.7545 12.8693 16.7545 12.9318V13.9545C16.7545 14.017 16.8027 14.0682 16.8616 14.0682Z" fill="#4E95F3"/>
</svg>
