<svg width="16" height="16" viewBox="0 0 16 16" fill="none" xmlns="http://www.w3.org/2000/svg">
<path d="M6.23077 2H11.7692C12.4462 2 13 2.54 13 3.2V12.8C13 13.46 12.4462 14 11.7692 14H6.23077C5.55385 14 5 13.46 5 12.8V12.2C5 12.0409 5.06484 11.8883 5.18024 11.7757C5.29565 11.6632 5.45217 11.6 5.61538 11.6C5.77859 11.6 5.93512 11.6632 6.05053 11.7757C6.16593 11.8883 6.23077 12.0409 6.23077 12.2V12.8H11.7692V3.2H6.23077V3.8C6.23077 3.95913 6.16593 4.11174 6.05053 4.22426C5.93512 4.33679 5.77859 4.4 5.61538 4.4C5.45217 4.4 5.29565 4.33679 5.18024 4.22426C5.06484 4.11174 5 3.95913 5 3.8V3.2C5 2.54 5.55385 2 6.23077 2Z" fill="white"/>
<path d="M6.76548 10.808C7.0039 11.064 7.38905 11.064 7.62748 10.808L9.821 8.45273C9.93562 8.32963 10 8.16269 10 7.98863C10 7.81457 9.93562 7.64763 9.821 7.52454L7.62748 5.16927C7.51127 5.05649 7.35914 4.99596 7.20255 5.00021C7.04596 5.00445 6.89687 5.07314 6.7861 5.19207C6.67534 5.311 6.61137 5.47108 6.60742 5.63922C6.60346 5.80737 6.65983 5.97071 6.76486 6.09549L7.91176 7.3322H2.61135C2.44921 7.3322 2.29371 7.40136 2.17906 7.52447C2.06441 7.64757 2 7.81453 2 7.98863C2 8.16273 2.06441 8.32969 2.17906 8.4528C2.29371 8.5759 2.44921 8.64506 2.61135 8.64506H7.91176L6.76486 9.88177C6.65075 10.0048 6.58672 10.1714 6.58684 10.345C6.58695 10.5187 6.65119 10.6851 6.76548 10.808Z" fill="white"/>
</svg>
