<svg width="14" height="14" viewBox="0 0 14 14" fill="none" xmlns="http://www.w3.org/2000/svg">
<path d="M12.9688 6.21876C13.4516 6.21876 13.6532 5.59845 13.261 5.31251L7.29381 0.971887C7.20859 0.909452 7.1057 0.875793 7.00006 0.875793C6.89442 0.875793 6.79152 0.909452 6.70631 0.971887L0.739119 5.31251C0.346931 5.59689 0.548494 6.21876 1.03287 6.21876H2.00006V12.0625H0.875056C0.806306 12.0625 0.750056 12.1188 0.750056 12.1875V13C0.750056 13.0688 0.806306 13.125 0.875056 13.125H13.1251C13.1938 13.125 13.2501 13.0688 13.2501 13V12.1875C13.2501 12.1188 13.1938 12.0625 13.1251 12.0625H12.0001V6.21876H12.9688ZM7.00006 2.07345L11.236 5.1547H2.76412L7.00006 2.07345ZM3.12506 6.21876H4.95318V12.0625H3.12506V6.21876ZM6.07818 6.21876H7.90631V12.0625H6.07818V6.21876ZM10.8751 12.0625H9.03131V6.21876H10.8751V12.0625Z" fill="white"/>
</svg>
