<svg width="124" height="55" viewBox="0 0 124 55" fill="none" xmlns="http://www.w3.org/2000/svg">
<path d="M5.59 10.11H10.77L10.602 8.304H5.744L5.59 10.11ZM8.166 5.812L9.538 8.962L9.44 9.592L10.602 12H13.304L8.166 1.584L3 12H5.674L6.878 9.508L6.78 8.962L8.166 5.812ZM16.5742 8.038L14.1802 2.2H11.4082L16.5742 12.616L21.7122 2.2H18.9402L16.5742 8.038ZM25.1891 7.562L27.9331 12H30.7191L27.6531 7.562H25.1891ZM22.7531 2.2V12H25.1051V2.2H22.7531ZM24.2231 4.216H26.1411C26.4585 4.216 26.7338 4.26733 26.9671 4.37C27.2005 4.47267 27.3731 4.61733 27.4851 4.804C27.6065 4.99067 27.6671 5.21933 27.6671 5.49C27.6671 5.76067 27.6065 5.994 27.4851 6.19C27.3731 6.37667 27.2005 6.52133 26.9671 6.624C26.7338 6.71733 26.4585 6.764 26.1411 6.764H24.2231V8.626H26.3091C27.1491 8.626 27.8491 8.49067 28.4091 8.22C28.9785 7.94 29.4078 7.55733 29.6971 7.072C29.9865 6.58667 30.1311 6.03133 30.1311 5.406C30.1311 4.77133 29.9865 4.216 29.6971 3.74C29.4078 3.25467 28.9785 2.87667 28.4091 2.606C27.8491 2.33533 27.1491 2.2 26.3091 2.2H24.2231V4.216ZM33.7496 7.1C33.7496 6.66133 33.8149 6.26467 33.9456 5.91C34.0762 5.55533 34.2629 5.24733 34.5056 4.986C34.7576 4.72467 35.0516 4.51933 35.3876 4.37C35.7329 4.22067 36.1156 4.146 36.5356 4.146C36.9556 4.146 37.3336 4.22067 37.6696 4.37C38.0149 4.51933 38.3089 4.72467 38.5516 4.986C38.7942 5.24733 38.9762 5.56 39.0976 5.924C39.2189 6.27867 39.2796 6.67067 39.2796 7.1C39.2796 7.52933 39.2142 7.926 39.0836 8.29C38.9529 8.64467 38.7662 8.95267 38.5236 9.214C38.2809 9.47533 37.9916 9.68067 37.6556 9.83C37.3196 9.97933 36.9462 10.054 36.5356 10.054C36.1156 10.054 35.7329 9.97933 35.3876 9.83C35.0516 9.68067 34.7576 9.47533 34.5056 9.214C34.2629 8.95267 34.0762 8.64 33.9456 8.276C33.8149 7.912 33.7496 7.52 33.7496 7.1ZM31.2576 7.1C31.2576 7.856 31.3836 8.55133 31.6356 9.186C31.8876 9.82067 32.2516 10.3713 32.7276 10.838C33.2036 11.3047 33.7636 11.6687 34.4076 11.93C35.0516 12.182 35.7609 12.308 36.5356 12.308C37.3009 12.308 38.0009 12.182 38.6356 11.93C39.2796 11.6687 39.8396 11.3047 40.3156 10.838C40.7916 10.3713 41.1602 9.82067 41.4216 9.186C41.6829 8.55133 41.8136 7.856 41.8136 7.1C41.8136 6.344 41.6782 5.65333 41.4076 5.028C41.1369 4.39333 40.7636 3.84733 40.2876 3.39C39.8209 2.93267 39.2656 2.58267 38.6216 2.34C37.9869 2.09733 37.2916 1.976 36.5356 1.976C35.7796 1.976 35.0796 2.09733 34.4356 2.34C33.7916 2.58267 33.2316 2.93267 32.7556 3.39C32.2796 3.84733 31.9109 4.39333 31.6496 5.028C31.3882 5.65333 31.2576 6.344 31.2576 7.1ZM45.7516 7.562L48.4956 12H51.2816L48.2156 7.562H45.7516ZM43.3156 2.2V12H45.6676V2.2H43.3156ZM44.7856 4.216H46.7036C47.021 4.216 47.2963 4.26733 47.5296 4.37C47.763 4.47267 47.9356 4.61733 48.0476 4.804C48.169 4.99067 48.2296 5.21933 48.2296 5.49C48.2296 5.76067 48.169 5.994 48.0476 6.19C47.9356 6.37667 47.763 6.52133 47.5296 6.624C47.2963 6.71733 47.021 6.764 46.7036 6.764H44.7856V8.626H46.8716C47.7116 8.626 48.4116 8.49067 48.9716 8.22C49.541 7.94 49.9703 7.55733 50.2596 7.072C50.549 6.58667 50.6936 6.03133 50.6936 5.406C50.6936 4.77133 50.549 4.216 50.2596 3.74C49.9703 3.25467 49.541 2.87667 48.9716 2.606C48.4116 2.33533 47.7116 2.2 46.8716 2.2H44.7856V4.216ZM53.9201 10.11H59.1001L58.9321 8.304H54.0741L53.9201 10.11ZM56.4961 5.812L57.8681 8.962L57.7701 9.592L58.9321 12H61.6341L56.4961 1.584L51.3301 12H54.0041L55.2081 9.508L55.1101 8.962L56.4961 5.812ZM68.8883 7.1C68.8883 6.652 68.9629 6.25533 69.1123 5.91C69.2709 5.55533 69.4856 5.252 69.7563 5C70.0269 4.748 70.3396 4.55667 70.6943 4.426C71.0489 4.29533 71.4269 4.23 71.8283 4.23C72.2949 4.23 72.7056 4.29067 73.0603 4.412C73.4149 4.53333 73.7276 4.692 73.9983 4.888C74.2783 5.084 74.5256 5.29867 74.7403 5.532V2.956C74.3483 2.648 73.9189 2.41 73.4523 2.242C72.9949 2.06467 72.4069 1.976 71.6883 1.976C70.8949 1.976 70.1716 2.102 69.5183 2.354C68.8649 2.59667 68.2956 2.942 67.8103 3.39C67.3249 3.838 66.9516 4.37933 66.6903 5.014C66.4383 5.63933 66.3123 6.33467 66.3123 7.1C66.3123 7.86533 66.4383 8.56533 66.6903 9.2C66.9516 9.82533 67.3249 10.362 67.8103 10.81C68.2956 11.2487 68.8649 11.594 69.5183 11.846C70.1716 12.0887 70.8949 12.21 71.6883 12.21C72.4069 12.21 72.9949 12.1213 73.4523 11.944C73.9189 11.7667 74.3483 11.5333 74.7403 11.244V8.668C74.5256 8.90133 74.2783 9.116 73.9983 9.312C73.7276 9.508 73.4149 9.66667 73.0603 9.788C72.7056 9.90933 72.2949 9.97 71.8283 9.97C71.4269 9.97 71.0489 9.90467 70.6943 9.774C70.3396 9.64333 70.0269 9.452 69.7563 9.2C69.4856 8.948 69.2709 8.64933 69.1123 8.304C68.9629 7.94933 68.8883 7.548 68.8883 7.1ZM78.0099 10.11H83.1899L83.0219 8.304H78.1639L78.0099 10.11ZM80.5859 5.812L81.9579 8.962L81.8599 9.592L83.0219 12H85.7239L80.5859 1.584L75.4199 12H78.0939L79.2979 9.508L79.1999 8.962L80.5859 5.812ZM86.7648 2.2V12H89.1168V2.2H86.7648ZM88.2348 4.146H90.1528C90.4702 4.146 90.7455 4.19733 90.9788 4.3C91.2122 4.39333 91.3848 4.53333 91.4968 4.72C91.6182 4.90667 91.6788 5.13533 91.6788 5.406C91.6788 5.67667 91.6182 5.90533 91.4968 6.092C91.3848 6.27867 91.2122 6.41867 90.9788 6.512C90.7455 6.60533 90.4702 6.652 90.1528 6.652H88.2348V8.626H90.1528C90.9928 8.626 91.6928 8.49533 92.2528 8.234C92.8222 7.97267 93.2468 7.604 93.5268 7.128C93.8162 6.64267 93.9608 6.06867 93.9608 5.406C93.9608 4.74333 93.8162 4.174 93.5268 3.698C93.2468 3.21267 92.8222 2.844 92.2528 2.592C91.6928 2.33067 90.9928 2.2 90.1528 2.2H88.2348V4.146ZM95.4875 2.2V12H97.8815V2.2H95.4875ZM98.9919 4.328H101.666V12H104.046V4.328H106.734V2.2H98.9919V4.328ZM107.965 10.11H113.145L112.977 8.304H108.119L107.965 10.11ZM110.541 5.812L111.913 8.962L111.815 9.592L112.977 12H115.679L110.541 1.584L105.375 12H108.049L109.253 9.508L109.155 8.962L110.541 5.812ZM116.72 2.2V12H123.02V9.956H119.072V2.2H116.72Z" fill="#4E95F3"/>
<path d="M8.6 31.036H14.276C16.34 31.036 18.1747 30.7493 19.78 30.176C21.3853 29.6027 22.6467 28.757 23.564 27.639C24.4813 26.521 24.94 25.1593 24.94 23.554C24.94 22.264 24.6677 21.146 24.123 20.2C23.607 19.254 22.876 18.4657 21.93 17.835C21.0127 17.1757 19.8947 16.6883 18.576 16.373C17.2573 16.0577 15.824 15.9 14.276 15.9H3.225V46H14.964C17.3433 46 19.4073 45.7133 21.156 45.14C22.9047 44.538 24.252 43.635 25.198 42.431C26.1727 41.1983 26.66 39.5787 26.66 37.572C26.66 36.024 26.3303 34.7053 25.671 33.616C25.0117 32.5267 24.123 31.638 23.005 30.95C21.887 30.262 20.6257 29.7603 19.221 29.445C17.845 29.1297 16.426 28.972 14.964 28.972H8.6V32.928H14.147C14.835 32.928 15.48 32.9997 16.082 33.143C16.7127 33.2577 17.243 33.4583 17.673 33.745C18.1317 34.0317 18.49 34.4043 18.748 34.863C19.006 35.293 19.135 35.8377 19.135 36.497C19.135 37.443 18.9057 38.2027 18.447 38.776C18.017 39.3493 17.4293 39.765 16.684 40.023C15.9387 40.2523 15.093 40.367 14.147 40.367H10.449V21.533H13.459C14.7203 21.533 15.695 21.8053 16.383 22.35C17.071 22.866 17.415 23.6257 17.415 24.629C17.415 25.2883 17.2573 25.8617 16.942 26.349C16.6267 26.8363 16.168 27.209 15.566 27.467C14.9927 27.725 14.2903 27.854 13.459 27.854H8.6V31.036ZM35.9218 40.195H51.8318L51.3158 34.648H36.3948L35.9218 40.195ZM43.8338 26.994L48.0478 36.669L47.7468 38.604L51.3158 46H59.6148L43.8338 14.008L27.9668 46H36.1798L39.8778 38.346L39.5768 36.669L43.8338 26.994ZM83.5379 15.9V32.756L62.8119 14.395V46H69.7779V29.144L90.5899 47.505V15.9H83.5379ZM96.9096 15.9V46H104.435V15.9H96.9096ZM114.626 15.9L102.285 30.219L115.013 46H123.828L110.971 30.004L123.183 15.9H114.626Z" fill="#4E95F3"/>
</svg>
