<svg width="18" height="16" viewBox="0 0 18 16" fill="none" xmlns="http://www.w3.org/2000/svg">
<path fill-rule="evenodd" clip-rule="evenodd" d="M8.82376 0.298483C9.2112 0.69207 9.20621 1.32522 8.81263 1.71265L3.44135 7H17C17.5523 7 18 7.44771 18 8C18 8.55228 17.5523 9 17 9H3.44135L8.81263 14.2873C9.20621 14.6748 9.2112 15.3079 8.82376 15.7015C8.43633 16.0951 7.80318 16.1001 7.40959 15.7127L0.298483 8.71265C0.10753 8.52468 0 8.26795 0 8C0 7.73205 0.10753 7.47532 0.298483 7.28735L7.40959 0.287348C7.80318 -0.10009 8.43633 -0.0951041 8.82376 0.298483Z" fill="black"/>
</svg>
