<svg width="24" height="24" viewBox="0 0 24 24" fill="none" xmlns="http://www.w3.org/2000/svg">
<circle cx="12" cy="12" r="12" fill="#4E95F3"/>
<path d="M18.5 6.5H5.5C5.22344 6.5 5 6.72344 5 7V17C5 17.2766 5.22344 17.5 5.5 17.5H18.5C18.7766 17.5 19 17.2766 19 17V7C19 6.72344 18.7766 6.5 18.5 6.5ZM6.125 7.625H17.875V9.5H6.125V7.625ZM17.875 16.375H6.125V10.875H17.875V16.375ZM14.1719 15.375H16.75C16.8188 15.375 16.875 15.3188 16.875 15.25V14.125C16.875 14.0563 16.8188 14 16.75 14H14.1719C14.1031 14 14.0469 14.0563 14.0469 14.125V15.25C14.0469 15.3188 14.1031 15.375 14.1719 15.375Z" fill="white"/>
</svg>
