<svg width="24" height="24" viewBox="0 0 24 24" fill="none" xmlns="http://www.w3.org/2000/svg">
<circle cx="12" cy="12" r="12" fill="#00749F"/>
<path fill-rule="evenodd" clip-rule="evenodd" d="M17 10.8C17 9.00725 15.6318 7.5 13.875 7.5C12.8805 7.5 12.016 7.99137 11.4525 8.73425C11.0786 8.4639 10.6243 8.3 10.125 8.3C8.80052 8.3 7.77701 9.41994 7.75053 10.7473C6.45081 10.9969 5.5 12.2033 5.5 13.6C5.5 15.1703 6.70176 16.5 8.25 16.5H15.75C17.2982 16.5 18.5 15.1703 18.5 13.6C18.5 12.4816 17.8936 11.5042 16.9922 11.0233C16.9973 10.9503 17 10.8759 17 10.8ZM13.875 8.5C15.0197 8.5 16 9.49775 16 10.8C16 10.9478 15.9849 11.0932 15.9584 11.243C15.9158 11.4842 16.0541 11.7207 16.2852 11.8018C16.9759 12.0442 17.5 12.7427 17.5 13.6C17.5 14.6797 16.6861 15.5 15.75 15.5H8.25C7.31386 15.5 6.5 14.6797 6.5 13.6C6.5 12.5332 7.29443 11.7197 8.21633 11.7004C8.23452 11.7027 8.25897 11.705 8.2875 11.705C8.43715 11.705 8.57894 11.638 8.67391 11.5223C8.76889 11.4066 8.80706 11.2545 8.77795 11.1077C8.7594 11.0142 8.75 10.9122 8.75 10.8C8.75 9.94025 9.39511 9.3 10.125 9.3C10.53 9.3 10.9002 9.49702 11.1619 9.82934C11.2685 9.96472 11.4373 10.0357 11.6086 10.0171C11.7799 9.99851 11.9296 9.89304 12.0047 9.73796C12.368 8.98792 13.0756 8.5 13.875 8.5ZM8.17008 11.6925C8.16915 11.6923 8.16945 11.6924 8.1707 11.6926L8.17008 11.6925Z" fill="white"/>
</svg>
