<svg width="24" height="24" viewBox="0 0 24 24" fill="none" xmlns="http://www.w3.org/2000/svg">
<circle cx="12" cy="12" r="12" fill="#4E95F3"/>
<path d="M17.9688 10.2188C18.4516 10.2188 18.6532 9.59845 18.261 9.31251L12.2938 4.97189C12.2086 4.90945 12.1057 4.87579 12.0001 4.87579C11.8944 4.87579 11.7915 4.90945 11.7063 4.97189L5.73912 9.31251C5.34693 9.59689 5.54849 10.2188 6.03287 10.2188H7.00006V16.0625H5.87506C5.80631 16.0625 5.75006 16.1188 5.75006 16.1875V17C5.75006 17.0688 5.80631 17.125 5.87506 17.125H18.1251C18.1938 17.125 18.2501 17.0688 18.2501 17V16.1875C18.2501 16.1188 18.1938 16.0625 18.1251 16.0625H17.0001V10.2188H17.9688ZM12.0001 6.07345L16.236 9.1547H7.76412L12.0001 6.07345ZM8.12506 10.2188H9.95318V16.0625H8.12506V10.2188ZM11.0782 10.2188H12.9063V16.0625H11.0782V10.2188ZM15.8751 16.0625H14.0313V10.2188H15.8751V16.0625Z" fill="white"/>
</svg>
