<svg width="24" height="24" viewBox="0 0 24 24" fill="none" xmlns="http://www.w3.org/2000/svg">
<circle cx="12" cy="12" r="12" fill="#FFCC00"/>
<path d="M13.4986 12.5281H12.6793C11.3925 12.5281 10.1445 11.7602 10.1445 9.84007C10.1445 7.83976 11.3144 7.02392 12.5038 7.02392H13.4986V12.5281H13.4986ZM14.7855 6H12.5623C10.3787 6 8.52612 7.36001 8.52612 10.0001C8.52612 11.5841 9.42341 12.7521 11.0218 13.3281L8.03901 17.7441C7.94159 17.8883 8.03901 18 8.19454 18H9.57893C9.69594 18 9.77403 17.9681 9.81294 17.8883L12.5232 13.552H13.4986V17.8883C13.4986 17.9361 13.5571 18 13.6345 18H14.8439C14.961 18 15 17.952 15 17.8723V6.16013C15 6.04786 14.9219 6 14.7854 6" fill="white"/>
</svg>
