<svg width="24" height="24" viewBox="0 0 24 24" fill="none" xmlns="http://www.w3.org/2000/svg">
<circle cx="12" cy="12" r="12" fill="#253C7D"/>
<path d="M16.4322 9.32945C16.3412 9.224 16.2401 9.12842 16.1305 9.04417C16.1756 8.67879 16.1445 8.30764 16.0394 7.95574C15.9343 7.60384 15.7576 7.27936 15.5212 7.00418C14.9503 6.33764 13.9771 6 12.6284 6H9.35655C9.12005 6.00053 8.89144 6.08817 8.7116 6.24726C8.53177 6.40634 8.41243 6.6265 8.37493 6.86836L7.01098 15.8171C6.99168 15.937 6.99788 16.0599 7.02914 16.1771C7.06039 16.2944 7.11597 16.4031 7.19198 16.4958C7.26799 16.5885 7.3626 16.6629 7.46923 16.7139C7.57585 16.7648 7.69192 16.791 7.80934 16.7907H9.21226L9.16907 17.0743C9.15157 17.1886 9.15817 17.3054 9.18844 17.4167C9.2187 17.528 9.27191 17.6312 9.34438 17.7192C9.41686 17.8072 9.50689 17.8778 9.60826 17.9263C9.70964 17.9748 9.81996 17.9999 9.93162 18H11.6352C11.8558 18.0017 12.0698 17.9219 12.2387 17.7749C12.4076 17.628 12.5204 17.4235 12.5568 17.1982L12.8944 14.9994L12.9002 14.9694H13.0576C15.181 14.9694 16.507 13.8823 16.8941 11.8265C17.0121 11.402 17.0318 10.9546 16.9516 10.5208C16.8713 10.0869 16.6934 9.67872 16.4322 9.32945ZM9.79944 12.9294L9.42343 15.4031L9.37814 15.6998H8.09529L9.40711 7.09091H12.6284C13.648 7.09091 14.3758 7.31127 14.7312 7.72581C14.8989 7.92785 15.0157 8.16962 15.0715 8.42967C15.1273 8.68972 15.1202 8.96 15.0509 9.21654L15.0414 9.27817C15.0351 9.31963 15.0293 9.35999 15.0182 9.41236C14.9166 10.1917 14.5406 10.9046 13.9624 11.4142C13.3132 11.8818 12.5309 12.1091 11.7416 12.0594H10.7816C10.5444 12.0586 10.3148 12.1459 10.1346 12.3056C9.95431 12.4652 9.83539 12.6866 9.79944 12.9294ZM15.8608 11.6176C15.5701 13.1602 14.6796 13.8785 13.0576 13.8785H12.8028C12.5819 13.8769 12.3678 13.9569 12.1989 14.1042C12.0299 14.2515 11.9173 14.4563 11.8812 14.682L11.5389 16.9042L10.2602 16.9091L10.512 15.2542L10.8342 13.1525H11.7395C11.8222 13.1525 11.8949 13.14 11.9754 13.1367C12.1645 13.1302 12.353 13.1225 12.53 13.0996C12.6379 13.086 12.7369 13.0603 12.8407 13.0407C12.9844 13.0134 13.1277 12.9862 13.2625 12.9474C13.3626 12.9185 13.4563 12.8809 13.5521 12.846C13.6775 12.7996 13.8018 12.7511 13.9192 12.6938C14.0077 12.6507 14.0919 12.6027 14.1751 12.5536C14.2864 12.4884 14.3941 12.417 14.4979 12.3398C14.5727 12.2842 14.6465 12.2263 14.7165 12.1653C14.8159 12.0764 14.9103 11.9817 14.9993 11.8816C15.0588 11.8162 15.1194 11.7524 15.1747 11.6814C15.2661 11.5607 15.3505 11.4345 15.4274 11.3034C15.4675 11.2369 15.5122 11.1753 15.5496 11.1054C15.6562 10.9031 15.7477 10.6927 15.8234 10.476C15.8282 10.4629 15.8345 10.452 15.8392 10.4389C15.8414 10.4334 15.8445 10.428 15.8466 10.4214C15.951 10.8122 15.9557 11.2244 15.8603 11.6176H15.8608Z" fill="white"/>
</svg>
