<svg width="24" height="24" viewBox="0 0 24 24" fill="none" xmlns="http://www.w3.org/2000/svg">
<circle cx="12" cy="12" r="12" fill="#33FF00"/>
<path d="M18.4338 15.4502C17.892 14.8936 16.352 13.8508 15.3426 13.8508C15.1088 13.8508 14.9047 13.9027 14.7377 14.0104C14.2442 14.3258 13.8508 14.5707 13.6615 14.5707C13.5576 14.5707 13.4463 14.4779 13.2014 14.2664L13.1606 14.2293C12.4815 13.6393 12.3367 13.4871 12.0733 13.2125L12.0065 13.142C11.9582 13.0938 11.9174 13.0492 11.8766 13.0084C11.6465 12.7709 11.4795 12.6002 10.8895 11.9322L10.8635 11.9026C10.5815 11.5834 10.3959 11.3756 10.3848 11.2234C10.3736 11.075 10.5035 10.8338 10.8338 10.3848C11.2346 9.84298 11.2494 9.17501 10.882 8.39943C10.5889 7.78712 10.1102 7.20079 9.68712 6.68497L9.65001 6.64044C9.28634 6.19513 8.8633 5.97247 8.39201 5.97247C7.86876 5.97247 7.43458 6.2545 7.20451 6.40294C7.18595 6.41407 7.1674 6.42892 7.14884 6.44005C6.63302 6.76661 6.25822 7.21564 6.1172 7.67208C5.90568 8.35861 5.76466 9.24923 6.77775 11.101C7.65353 12.7041 8.44767 13.7803 9.70939 15.0754C10.8969 16.2926 11.4238 16.6859 12.6039 17.5395C13.9176 18.4895 15.1793 19.035 16.0625 19.035C16.8826 19.035 17.5283 19.035 18.4486 17.9254C19.4135 16.7602 19.0127 16.0477 18.4338 15.4502Z" fill="white"/>
</svg>
