<svg width="24" height="24" viewBox="0 0 24 24" fill="none" xmlns="http://www.w3.org/2000/svg">
<circle cx="12" cy="12" r="12" fill="#FD8C00"/>
<path d="M11.5162 6C8.46997 6 6 8.38903 6 11.3366C6 14.2841 8.46997 16.6731 11.5167 16.6731C12.3266 16.6731 13.1282 16.5266 14.3066 16.5181C15.3573 16.5181 16.512 16.8751 17.7787 17.9611C17.9069 18.0696 18.0754 17.9301 17.9632 17.7981C16.7203 16.2701 15.5651 15.9831 14.411 15.7351C13.0001 15.4321 12.2785 14.6721 11.7731 13.8266C11.6769 13.6561 11.6284 13.6871 11.6206 13.9046C11.6113 14.2241 11.6361 14.5436 11.693 14.8586H11.5245C10.557 14.8578 9.62936 14.4856 8.94524 13.8238C8.26112 13.162 7.87643 12.2645 7.8756 11.3286C7.8767 10.3928 8.26153 9.49569 8.94564 8.83414C9.62974 8.1726 10.5572 7.80068 11.5245 7.80002C12.0394 7.80028 12.5484 7.9059 13.0181 8.10993C13.4878 8.31397 13.9075 8.61181 14.2498 8.9839C14.5921 9.35599 14.8492 9.79392 15.0042 10.2689C15.1592 10.7439 15.2085 11.2453 15.1491 11.7401C14.8762 11.6936 14.3547 11.6861 13.9862 11.7171C13.8497 11.7326 13.8658 11.7946 13.9702 11.8106C15.1728 12.0276 15.9987 12.7491 16.191 14.0601C16.1988 14.0911 16.2391 14.0986 16.2551 14.0751C16.7636 13.2465 17.0323 12.3007 17.0329 11.3371C17.0329 8.38903 14.5635 6 11.5162 6ZM15.4669 13.5386C15.4355 13.5352 15.4038 13.5409 15.3757 13.5548C15.3475 13.5688 15.3243 13.5904 15.3088 13.6171C15.2447 13.7261 15.2933 13.9351 15.4132 14.1216C15.5331 14.3076 15.6457 14.4006 15.7264 14.4006C15.8065 14.4006 15.8783 14.3076 15.8463 14.0671C15.8308 13.9351 15.7501 13.6331 15.5413 13.5551C15.5171 13.5446 15.4891 13.5436 15.4669 13.5386ZM14.3226 14.4321C14.2105 14.4321 14.1221 14.4701 14.0658 14.5401C13.9216 14.7106 13.9857 15.0211 14.2105 15.2076C14.3066 15.2926 14.4513 15.3391 14.5878 15.3391C14.6497 15.3407 14.7112 15.329 14.7679 15.305C14.8246 15.281 14.8752 15.2452 14.916 15.2001C15.0447 15.0291 14.9728 14.7961 14.7237 14.5946C14.5955 14.4861 14.4513 14.4321 14.3226 14.4321Z" fill="white"/>
</svg>
