<svg width="24" height="24" viewBox="0 0 24 24" fill="none" xmlns="http://www.w3.org/2000/svg">
<path fill-rule="evenodd" clip-rule="evenodd" d="M7.95036 4.67742C9.02439 3.60339 10.4811 3 12 3C13.5189 3 14.9756 3.60339 16.0497 4.67742C17.1237 5.75145 17.7271 7.20815 17.7271 8.72707C17.7271 11.4701 18.3137 13.1734 18.8544 14.1646C19.1259 14.6623 19.3902 14.9888 19.5738 15.1826C19.6658 15.2797 19.7381 15.3441 19.7817 15.3804C19.8035 15.3986 19.8181 15.4097 19.8244 15.4144C19.8254 15.4151 19.8261 15.4157 19.8267 15.4161C20.12 15.6176 20.2498 15.9861 20.1464 16.3275C20.042 16.6726 19.7239 16.9086 19.3634 16.9086H4.63664C4.2761 16.9086 3.95807 16.6726 3.85359 16.3275C3.75022 15.9861 3.88001 15.6176 4.17331 15.4161C4.17388 15.4157 4.17466 15.4151 4.17565 15.4144C4.18195 15.4097 4.19655 15.3986 4.21833 15.3804C4.26187 15.3441 4.33418 15.2797 4.42621 15.1826C4.60982 14.9888 4.87415 14.6623 5.14561 14.1646C5.68627 13.1734 6.27294 11.4701 6.27294 8.72707C6.27294 7.20815 6.87633 5.75145 7.95036 4.67742ZM4.18158 15.4105C4.18164 15.4105 4.18171 15.4104 4.18177 15.4104C4.18177 15.4104 4.18176 15.4104 4.18176 15.4104L4.18158 15.4105ZM6.39511 15.2723H17.6049C17.5427 15.1703 17.4802 15.0623 17.4179 14.9482C16.7313 13.6895 16.0908 11.7111 16.0908 8.72707C16.0908 7.64213 15.6598 6.60163 14.8926 5.83446C14.1254 5.06729 13.0849 4.6363 12 4.6363C10.9151 4.6363 9.87457 5.06729 9.1074 5.83446C8.34024 6.60163 7.90925 7.64213 7.90925 8.72707C7.90925 11.7111 7.26869 13.6895 6.58212 14.9482C6.51986 15.0623 6.45736 15.1703 6.39511 15.2723Z" fill="#4E95F3"/>
<path fill-rule="evenodd" clip-rule="evenodd" d="M10.1741 18.6553C10.5649 18.4286 11.0656 18.5616 11.2923 18.9525C11.3642 19.0765 11.4674 19.1794 11.5916 19.2509C11.7158 19.3225 11.8567 19.3601 12 19.3601C12.1433 19.3601 12.2841 19.3225 12.4083 19.2509C12.5325 19.1794 12.6358 19.0765 12.7077 18.9525C12.9344 18.5616 13.4351 18.4286 13.8259 18.6553C14.2168 18.8821 14.3498 19.3827 14.1231 19.7736C13.9073 20.1455 13.5976 20.4542 13.225 20.6689C12.8524 20.8835 12.43 20.9964 12 20.9964C11.57 20.9964 11.1475 20.8835 10.7749 20.6689C10.4023 20.4542 10.0926 20.1455 9.87688 19.7736C9.65015 19.3827 9.78321 18.8821 10.1741 18.6553Z" fill="#4E95F3"/>
</svg>
