<svg width="153" height="119" viewBox="0 0 153 119" fill="none" xmlns="http://www.w3.org/2000/svg">
<g clip-path="url(#clip0)">
<path opacity="0.24" d="M152.596 80.3672C151.838 86.4718 149.894 92.3661 146.874 97.7133C141.54 107.041 132.672 114.355 122.403 117.328C109.812 120.976 96.3041 118.076 83.7771 114.194C71.2501 110.312 58.7694 105.398 45.6678 105.018C37.389 104.767 28.91 106.334 20.9184 104.103C12.7789 101.838 6.07576 95.5034 2.63714 87.7336C1.50665 85.2255 0.736703 82.5679 0.350523 79.841C-0.566444 73.2463 0.62039 66.5668 1.22106 59.937C1.90588 52.4829 1.85946 44.9381 3.48156 37.636C5.10366 30.3339 8.66707 23.0931 14.9059 19.0358C28.0249 10.5118 46.1176 19.2784 60.8007 13.926C70.7538 10.3071 78.4291 0.412137 89.0032 0.0291997C102.253 -0.44728 123.909 11.2221 132.327 21.3685C137.243 27.2908 140.649 34.324 143.862 41.3368C147.576 49.434 151.131 57.7446 152.454 66.558C153.133 71.1325 153.181 75.7795 152.596 80.3672Z" fill="#4E95F3"/>
<path opacity="0.24" d="M152.597 80.3672C151.839 86.4718 149.894 92.3662 146.874 97.7134C141.541 107.041 132.673 114.355 122.403 117.328C109.813 120.976 96.3047 118.076 83.7777 114.194C71.2506 110.312 58.77 105.398 45.6684 105.018C37.3896 104.767 28.9105 106.334 20.919 104.103C12.7795 101.838 6.07632 95.5035 2.6377 87.7336C2.97768 87.3722 3.34331 87.0361 3.73167 86.7281C10.9513 81.0366 22.2219 82.6707 30.6284 80.4403C36.284 78.9378 41.4144 75.9269 46.655 73.3048C59.5251 66.8579 73.3715 62.6158 87.6254 60.7526C94.7087 59.8289 102.134 59.5395 108.753 62.2727C118.939 66.4675 126.335 77.4294 137.316 78.1456C140.278 78.3414 143.241 77.7363 146.204 77.8942C148.514 78.0257 150.977 78.7741 152.597 80.3672Z" fill="#4E95F3"/>
<path d="M87.8284 61.191C87.8284 61.191 114.072 85.3511 108.161 93.4045C103.388 99.9144 90.5531 104.478 85.8174 105.989C84.6805 106.35 83.4493 106.257 82.3788 105.729L53.9035 91.7149C53.6463 91.5872 53.4363 91.3801 53.3041 91.1238C53.1718 90.8675 53.1243 90.5754 53.1683 90.29C53.2124 90.0046 53.3457 89.7408 53.5489 89.537C53.7521 89.3333 54.0146 89.2002 54.2981 89.1571C60.1162 88.2802 69.933 86.3421 72.8087 82.9015C76.9814 77.9116 57.3421 58.566 57.3421 58.566L87.8284 61.191Z" fill="#4E95F3"/>
<path d="M87.8284 61.191C87.8284 61.191 114.072 85.3511 108.161 93.4045C103.388 99.9144 90.5531 104.478 85.8174 105.989C84.6805 106.35 83.4493 106.257 82.3788 105.729L53.9035 91.7149C53.6463 91.5872 53.4363 91.3801 53.3041 91.1238C53.1718 90.8675 53.1243 90.5754 53.1683 90.29C53.2124 90.0046 53.3457 89.7408 53.5489 89.537C53.7521 89.3333 54.0146 89.2002 54.2981 89.1571C60.1162 88.2802 69.933 86.3421 72.8087 82.9015C76.9814 77.9116 57.3421 58.566 57.3421 58.566L87.8284 61.191Z" fill="url(#paint0_linear)"/>
<path d="M88.003 59.3523C88.003 59.3523 114.244 83.5125 108.336 91.5658C103.56 98.0758 90.7278 102.639 85.9776 104.15C84.8407 104.511 83.6095 104.418 82.5389 103.89L54.0636 89.8821C53.8064 89.7544 53.5965 89.5473 53.4642 89.291C53.332 89.0347 53.2844 88.7426 53.3285 88.4572C53.3725 88.1718 53.5058 87.908 53.7091 87.7042C53.9123 87.5004 54.1747 87.3673 54.4583 87.3243C60.2764 86.4473 70.0931 84.5093 72.9688 81.0687C77.1416 76.0788 57.5022 56.7332 57.5022 56.7332L88.003 59.3523Z" fill="#4E95F3"/>
<path d="M70.9697 83.0332L100.429 98.5261C100.429 98.5261 104.99 95.8952 105.774 94.0624C106.557 92.2295 76.9677 78.3064 76.9677 78.3064L72.9691 81.063L70.9697 83.0332Z" fill="url(#paint1_linear)"/>
<path d="M105.941 97.0439L44.8236 65.912C42.1423 64.5469 40.4912 62.0212 40.4912 59.291V9.55297C40.4912 3.6686 47.7109 -0.0116948 53.4854 2.93195L114.612 34.0756C117.293 35.4407 118.944 37.9663 118.944 40.6966V90.42C118.935 96.3131 111.71 99.9847 105.941 97.0439Z" fill="#4E95F3"/>
<path d="M118.938 40.6994V90.4228C118.938 93.8722 116.457 96.5615 113.242 97.6051C110.831 98.3934 108.209 98.1928 105.944 97.0468L44.8207 65.9119C42.1423 64.5439 40.4912 62.0182 40.4912 59.2909V9.5558C40.4912 7.07986 41.768 4.99855 43.6832 3.63927C45.1021 2.63852 46.7639 2.04421 48.4916 1.91964C50.2193 1.79506 51.9482 2.14489 53.4941 2.93186L114.612 34.0755C117.284 35.4435 118.938 37.9633 118.938 40.6994Z" fill="url(#paint2_linear)"/>
<path d="M116.443 41.9566V91.68C116.443 94.1618 115.16 96.2431 113.251 97.6053C110.84 98.3935 108.218 98.1929 105.953 97.047L44.8207 65.9121C42.1423 64.544 40.4912 62.0184 40.4912 59.2911V9.55597C40.4912 7.08003 41.768 4.99872 43.6832 3.63944C44.88 3.24196 46.1428 3.08591 47.3995 3.1802C48.6562 3.2745 49.8822 3.61729 51.0073 4.189L112.113 35.3326C114.792 36.7007 116.443 39.2205 116.443 41.9566Z" fill="url(#paint3_linear)"/>
<path opacity="0.1" d="M54.8095 43.3128L108.014 70.4985C108.352 70.6724 108.631 70.9451 108.813 71.2809C108.995 71.6167 109.073 72.0001 109.035 72.381C109.006 72.6858 108.903 72.9789 108.737 73.2352C108.57 73.4915 108.345 73.7035 108.079 73.8531C107.814 74.0027 107.517 74.0854 107.213 74.0943C106.909 74.1031 106.607 74.0379 106.334 73.904L47.5202 45.2012C47.1439 45.0176 46.8388 44.7133 46.6528 44.336C46.4669 43.9587 46.4107 43.5299 46.493 43.117L46.6903 42.1114C46.7431 41.8442 46.8523 41.5916 47.0105 41.3707C47.1687 41.1497 47.3722 40.9656 47.6073 40.8309C47.8423 40.6962 48.1034 40.6139 48.3727 40.5897C48.6421 40.5655 48.9134 40.6 49.1684 40.6907C49.1684 40.6907 54.7341 43.2748 54.8095 43.3128Z" fill="#010101"/>
<path d="M93.7187 63.2286L51.6833 84.6497C48.947 86.047 44.1706 85.8687 41.0134 84.2639L15.5647 71.2995C13.4116 70.2004 12.5701 68.7271 13.1156 67.4555C13.4493 68.2682 14.2763 69.0633 15.5647 69.7239L36.9103 80.5982L40.0036 82.165L41.0134 82.6853C41.1224 82.7468 41.2359 82.7996 41.353 82.8432C41.4926 82.9152 41.636 82.9796 41.7824 83.0361C41.9138 83.0956 42.0485 83.1473 42.1858 83.191C42.2799 83.2306 42.3769 83.2629 42.476 83.2875C42.653 83.3489 42.8358 83.4074 43.0215 83.46C43.2029 83.5214 43.3881 83.5712 43.5757 83.6091C43.7666 83.6623 43.9604 83.7043 44.1561 83.7348C44.5391 83.8078 44.9309 83.8751 45.3168 83.9218C45.4329 83.9365 45.5519 83.9511 45.6766 83.9569C45.8014 83.9628 45.9668 83.9862 46.1264 83.9949C48.1925 84.1206 50.2295 83.8225 51.6833 83.08L92.1692 62.4481L93.7187 63.2286Z" fill="#4E95F3"/>
<path d="M93.7187 63.2286L51.6833 84.6497C48.947 86.047 44.1706 85.8687 41.0134 84.2639L15.5647 71.2995C13.4116 70.2004 12.5701 68.7271 13.1156 67.4555C13.4493 68.2682 14.2763 69.0633 15.5647 69.7239L36.9103 80.5982L40.0036 82.165L41.0134 82.6853C41.1224 82.7468 41.2359 82.7996 41.353 82.8432C41.4922 82.9104 41.6431 82.9777 41.7824 83.0361C41.9138 83.0956 42.0485 83.1473 42.1858 83.191C42.2844 83.229 42.3802 83.2583 42.476 83.2875C42.653 83.3489 42.8358 83.4074 43.0215 83.46C43.2072 83.5126 43.39 83.5623 43.5757 83.6091C43.7614 83.6558 43.9588 83.6968 44.1561 83.7348C44.5391 83.8078 44.9309 83.8751 45.3168 83.9218C45.4329 83.9365 45.5606 83.9511 45.6766 83.9569C45.7927 83.9628 45.9668 83.9862 46.1264 83.9949C48.1925 84.1206 50.2295 83.8225 51.6833 83.08L92.1692 62.4481L93.7187 63.2286Z" fill="url(#paint4_linear)"/>
<path d="M92.1693 62.448L51.6835 83.0798C49.3446 84.2783 45.5143 84.3222 42.4761 83.2874C42.0896 83.1726 41.7138 83.0239 41.3531 82.8431C41.236 82.7994 41.1225 82.7466 41.0136 82.6852L40.0038 82.1649L36.9104 80.598L15.5648 69.7121C14.2764 69.0515 13.4494 68.2505 13.1157 67.4437C12.6456 66.2744 13.1825 65.1052 14.8075 64.2721L55.0176 43.7805L82.2075 57.4318L87.7209 60.2059L92.1693 62.448Z" fill="#4E95F3"/>
<path d="M26.4124 69.7619C26.3514 70.5161 26.8389 71.2235 27.4686 71.6532C28.1212 72.0364 28.8367 72.2988 29.5811 72.4279C34.3923 73.5679 39.3457 74.7109 44.2323 73.9567C44.6109 73.936 44.9717 73.7878 45.2566 73.5358C45.5468 73.2084 45.57 72.7114 45.7557 72.3051C46.1446 71.4457 47.2066 71.1358 48.1526 71.1358C49.0986 71.1358 50.0475 71.3551 50.9557 71.1183C51.864 70.8815 52.6968 69.949 52.3718 69.0487C52.1629 68.4816 51.5796 68.1717 51.0341 67.9145C46.4098 65.7575 41.3589 64.6889 36.264 64.7896C34.1398 64.8481 33.1707 65.5204 31.3889 66.4617C29.9584 67.2188 26.5836 67.666 26.4124 69.7619Z" fill="url(#paint5_linear)"/>
<path opacity="0.1" d="M82.2078 57.4465L87.727 60.2177L42.4735 83.2904L42.3632 83.3488L41.3534 82.8431L40.0012 82.1649L36.873 80.6127L36.9108 80.5981L82.2078 57.4465Z" fill="#010101"/>
<path d="M108.484 49.6415L108.35 49.7088C108.018 49.4515 107.663 49.2274 107.288 49.0394L108.484 49.6415Z" fill="url(#paint6_linear)"/>
<path d="M108.484 49.6415L108.35 49.7088C108.018 49.4515 107.663 49.2274 107.288 49.0394L108.484 49.6415Z" fill="#4E95F3"/>
<path d="M116.443 86.9765V91.6799C116.443 94.1617 115.16 96.243 113.251 97.6052C110.84 98.3934 108.218 98.1928 105.953 97.0468L44.8207 65.912C42.1423 64.5439 40.4912 62.0183 40.4912 59.291V48.2442L40.764 48.0338L116.443 86.9765Z" fill="url(#paint7_linear)"/>
<path d="M33.4349 57.4347L33.2695 57.3558L34.3316 55.1283C34.4329 54.8872 34.5677 54.6618 34.732 54.4589C34.8986 54.27 35.1119 54.1288 35.3501 54.0497C35.4053 54.0303 35.463 54.0195 35.5213 54.0175C35.6154 54.0252 35.7043 54.0643 35.7738 54.1286C35.9858 54.3469 36.1108 54.6362 36.1249 54.9412C36.2233 55.6666 36.1948 56.4036 36.0408 57.119L35.8608 57.081C36.0119 56.387 36.0404 55.6716 35.945 54.9676C35.9361 54.7068 35.8329 54.4584 35.6548 54.2689C35.6176 54.2307 35.5683 54.2069 35.5155 54.2017C35.4807 54.2023 35.4463 54.2092 35.414 54.2221C35.2055 54.2915 35.0192 54.4156 34.8742 54.5817C34.7218 54.7716 34.5967 54.9822 34.5028 55.2073L33.4349 57.4347Z" fill="#4E95F3"/>
<path d="M36.5772 56.736C36.6024 57.6909 36.6392 58.6468 36.6875 59.6037C36.7048 60.9135 36.8861 62.2158 37.2273 63.4798C37.2604 63.5502 37.2793 63.6265 37.2828 63.7043C37.2863 63.7821 37.2743 63.8598 37.2476 63.9329C37.1786 64.0286 37.0825 64.1009 36.9719 64.1405C35.9098 64.6345 34.8246 65.1314 33.6638 65.2688C32.6486 65.3418 31.6283 65.2739 30.6315 65.0671C30.5922 65.0634 30.5544 65.0504 30.5212 65.0291C30.4573 64.9765 30.469 64.8742 30.4864 64.7923C30.7156 63.664 30.5676 62.4889 30.7359 61.3488C30.9042 60.2088 31.4033 59.1272 31.8966 58.0719C32.1114 57.613 32.3551 57.613 32.8455 57.5107L34.6214 57.1423C34.7839 57.1073 36.5772 56.7857 36.5772 56.736Z" fill="#4E95F3"/>
<path d="M36.5772 56.736C36.6024 57.6909 36.6392 58.6468 36.6875 59.6037C36.7048 60.9135 36.8861 62.2158 37.2273 63.4798C37.2604 63.5502 37.2793 63.6265 37.2828 63.7043C37.2863 63.7821 37.2743 63.8598 37.2476 63.9329C37.1786 64.0286 37.0825 64.1009 36.9719 64.1405C35.9098 64.6345 34.8246 65.1314 33.6638 65.2688C32.6486 65.3418 31.6283 65.2739 30.6315 65.0671C30.5922 65.0634 30.5544 65.0504 30.5212 65.0291C30.4573 64.9765 30.469 64.8742 30.4864 64.7923C30.7156 63.664 30.5676 62.4889 30.7359 61.3488C30.9042 60.2088 31.4033 59.1272 31.8966 58.0719C32.1114 57.613 32.3551 57.613 32.8455 57.5107L34.6214 57.1423C34.7839 57.1073 36.5772 56.7857 36.5772 56.736Z" fill="url(#paint8_linear)"/>
<path d="M37.7728 43.0672C37.2301 43.1607 36.8848 43.6898 36.612 44.1692C36.1669 44.8828 35.7946 45.6398 35.5006 46.4289C35.2554 47.2408 35.1035 48.0784 35.048 48.9253C34.9464 50.0156 34.8826 51.106 34.8564 52.2022C34.8564 52.5471 34.8797 52.9622 35.1814 53.1317C35.2991 53.1861 35.4303 53.2032 35.5578 53.1808C35.6853 53.1584 35.803 53.0974 35.8953 53.006C36.0771 52.8181 36.2106 52.5883 36.2841 52.3366C36.5743 51.5415 36.6875 50.6938 37.0038 49.9133C37.204 49.4134 37.4797 48.9486 37.7031 48.4517C38.4579 46.6991 38.5099 44.7202 37.8482 42.9298L37.7728 43.0672Z" fill="#4E95F3"/>
<path d="M37.7728 43.0672C37.2301 43.1607 36.8848 43.6898 36.612 44.1692C36.1669 44.8828 35.7946 45.6398 35.5006 46.4289C35.2554 47.2408 35.1035 48.0784 35.048 48.9253C34.9464 50.0156 34.8826 51.106 34.8564 52.2022C34.8564 52.5471 34.8797 52.9622 35.1814 53.1317C35.2991 53.1861 35.4303 53.2032 35.5578 53.1808C35.6853 53.1584 35.803 53.0974 35.8953 53.006C36.0771 52.8181 36.2106 52.5883 36.2841 52.3366C36.5743 51.5415 36.6875 50.6938 37.0038 49.9133C37.204 49.4134 37.4797 48.9486 37.7031 48.4517C38.4579 46.6991 38.5099 44.7202 37.8482 42.9298L37.7728 43.0672Z" fill="url(#paint9_linear)"/>
<path d="M34.7318 54.0468C34.7043 54.3626 34.7688 54.6795 34.9175 54.9589C34.9926 55.0979 35.1074 55.211 35.2472 55.2835C35.3869 55.356 35.545 55.3844 35.701 55.3652C35.8621 55.3237 36.0041 55.2274 36.1029 55.0927C36.2018 54.9579 36.2515 54.793 36.2436 54.6256C36.2248 54.4918 36.2248 54.356 36.2436 54.2222C36.261 54.1521 36.2988 54.0878 36.3162 54.0176C36.3742 53.7808 36.2059 53.547 36.1769 53.3043C36.1479 53.0617 36.2291 52.86 36.1334 52.6671C36.013 52.5162 35.8435 52.4132 35.6549 52.3762C35.4664 52.3393 35.2709 52.3709 35.1032 52.4654C34.7782 52.7226 34.7434 53.6727 34.7318 54.0468Z" fill="#F3A984"/>
<path d="M34.4905 57.7272L34.3164 57.6745L35.0099 55.3038C35.0713 55.0493 35.1691 54.8051 35.3001 54.5789C35.4346 54.3659 35.6216 54.1917 35.8427 54.0732C35.8943 54.0445 35.9502 54.0248 36.0081 54.0147C36.1012 54.0058 36.1945 54.0296 36.2722 54.0819C36.5187 54.2626 36.6894 54.5295 36.751 54.8303C36.9632 55.5304 37.0526 56.2624 37.0151 56.9934H36.8323C36.8696 56.2842 36.7832 55.5738 36.5769 54.8946C36.5253 54.6399 36.3841 54.4126 36.1794 54.2544C36.1371 54.2218 36.0844 54.2062 36.0314 54.2105C35.9944 54.2163 35.959 54.2292 35.9269 54.2486C35.7343 54.3511 35.5714 54.5022 35.4539 54.687C35.3353 54.9011 35.2455 55.1301 35.1869 55.3681L34.4905 57.7272Z" fill="#4E95F3"/>
<path d="M37.4793 56.5316C37.6593 57.4729 37.8508 58.4112 38.0597 59.3466C38.2876 60.6374 38.6777 61.8938 39.2204 63.0854C39.2645 63.1495 39.2955 63.2218 39.3114 63.2981C39.3274 63.3744 39.328 63.4532 39.3133 63.5297C39.2616 63.6365 39.1771 63.7236 39.0724 63.7782C38.1032 64.4359 37.1137 65.1053 35.9878 65.4269C34.998 65.6633 33.9806 65.7616 32.9641 65.7192C32.9246 65.7239 32.8845 65.7178 32.8481 65.7017C32.7755 65.6578 32.7726 65.5584 32.7755 65.4736C32.8249 64.3219 32.4854 63.1877 32.4854 62.036C32.4854 60.8842 32.7755 59.7325 33.1034 58.6129C33.2427 58.1248 33.4836 58.0868 33.9508 57.9055L35.6425 57.2566C35.7702 57.1893 37.4909 56.5842 37.4793 56.5316Z" fill="#4E95F3"/>
<path d="M37.4793 56.5316C37.6593 57.4729 37.8508 58.4112 38.0597 59.3466C38.2876 60.6374 38.6777 61.8938 39.2204 63.0854C39.2645 63.1495 39.2955 63.2218 39.3114 63.2981C39.3274 63.3744 39.328 63.4532 39.3133 63.5297C39.2616 63.6365 39.1771 63.7236 39.0724 63.7782C38.1032 64.4359 37.1137 65.1053 35.9878 65.4269C34.998 65.6633 33.9806 65.7616 32.9641 65.7192C32.9246 65.7239 32.8845 65.7178 32.8481 65.7017C32.7755 65.6578 32.7726 65.5584 32.7755 65.4736C32.8249 64.3219 32.4854 63.1877 32.4854 62.036C32.4854 60.8842 32.7755 59.7325 33.1034 58.6129C33.2427 58.1248 33.4836 58.0868 33.9508 57.9055L35.6425 57.2566C35.7702 57.1893 37.4909 56.5842 37.4793 56.5316Z" fill="url(#paint10_linear)"/>
<path d="M38.4636 69.1744C38.4735 69.2783 38.5174 69.376 38.5884 69.4521C38.6911 69.5226 38.8171 69.5499 38.9395 69.5281C39.6504 69.4738 40.3334 69.2263 40.9156 68.8119C41.1391 68.6511 41.3683 68.3705 41.2348 68.1308C41.1871 68.0682 41.1272 68.016 41.0589 67.9773C40.9906 67.9386 40.9152 67.9142 40.8373 67.9057C40.5678 67.8453 40.2921 67.8168 40.0161 67.8209C39.946 67.8291 39.8751 67.819 39.81 67.7917C39.6882 67.7245 39.6708 67.5579 39.6708 67.4175C39.6708 66.0232 39.6969 64.6259 39.7839 63.2345C39.8174 62.9232 39.8115 62.6089 39.7665 62.299C39.7173 61.9854 39.5473 61.7039 39.2935 61.5156C38.9801 61.311 38.3069 61.3373 38.1183 61.729C38.0399 61.8956 38.1183 62.1266 38.1328 62.3137C38.1589 62.6352 38.1647 62.9597 38.1734 63.2812C38.1995 64.5411 38.1502 65.801 38.2141 67.058C38.2455 67.7687 38.3289 68.4761 38.4636 69.1744Z" fill="#F3A984"/>
<path d="M39.9058 67.9582C39.8896 67.9861 39.8792 68.0171 39.8752 68.0493C39.8712 68.0815 39.8737 68.1141 39.8826 68.1452C39.9132 68.3255 39.8825 68.5109 39.7955 68.6714C39.6185 68.9637 39.2355 69.0076 38.9076 68.99C38.7393 68.99 38.5391 68.9754 38.4433 69.1157C38.4002 69.1972 38.384 69.2904 38.3969 69.3818C38.3969 69.4987 38.4114 69.6156 38.4288 69.7325C38.431 69.7728 38.443 69.812 38.4636 69.8465C38.4926 69.8825 38.5323 69.9081 38.5768 69.9196C38.9013 69.9923 39.241 69.9457 39.5344 69.7881L41.1681 69.1274C41.7485 68.8965 41.9574 68.3674 41.3016 68.0342C41.0433 67.9085 40.0944 67.7068 39.9058 67.9582Z" fill="#4E95F3"/>
<path d="M39.9058 67.9582C39.8896 67.9861 39.8792 68.0171 39.8752 68.0493C39.8712 68.0815 39.8737 68.1141 39.8826 68.1452C39.9132 68.3255 39.8825 68.5109 39.7955 68.6714C39.6185 68.9637 39.2355 69.0076 38.9076 68.99C38.7393 68.99 38.5391 68.9754 38.4433 69.1157C38.4002 69.1972 38.384 69.2904 38.3969 69.3818C38.3969 69.4987 38.4114 69.6156 38.4288 69.7325C38.431 69.7728 38.443 69.812 38.4636 69.8465C38.4926 69.8825 38.5323 69.9081 38.5768 69.9196C38.9013 69.9923 39.241 69.9457 39.5344 69.7881L41.1681 69.1274C41.7485 68.8965 41.9574 68.3674 41.3016 68.0342C41.0433 67.9085 40.0944 67.7068 39.9058 67.9582Z" fill="url(#paint11_linear)"/>
<path d="M41.6433 70.3787C41.6511 70.4875 41.6951 70.5905 41.7681 70.671C41.871 70.7411 41.9972 70.7674 42.1192 70.7441C42.8334 70.6834 43.5176 70.4277 44.0982 70.0045C44.3217 69.8467 44.5509 69.566 44.4145 69.3263C44.3674 69.2635 44.3081 69.2109 44.2403 69.1718C44.1725 69.1326 44.0975 69.1076 44.0199 69.0983C43.7502 69.039 43.4746 69.0115 43.1987 69.0165C43.1284 69.0237 43.0575 69.0127 42.9927 68.9843C42.8708 68.92 42.8534 68.7505 42.8505 68.6102C42.8505 67.2168 42.8892 65.8234 42.9665 64.43C43.0005 64.1177 42.9936 63.8022 42.9462 63.4917C42.9229 63.3367 42.8693 63.188 42.7887 63.0541C42.708 62.9201 42.6018 62.8036 42.4761 62.7112C42.1627 62.5036 41.4895 62.5329 41.3009 62.9246C41.2226 63.0883 41.3009 63.3192 41.3154 63.5092C41.3386 63.8308 41.3473 64.1523 41.356 64.4738C41.3822 65.7337 41.3328 66.9936 41.3967 68.2535C41.425 68.9672 41.5074 69.6777 41.6433 70.3787Z" fill="#F3A984"/>
<path d="M43.1646 69.0924C43.1484 69.1204 43.138 69.1514 43.134 69.1835C43.13 69.2157 43.1325 69.2483 43.1414 69.2795C43.172 69.4597 43.1413 69.6451 43.0543 69.8056C42.8773 70.098 42.4943 70.1418 42.1664 70.1243C41.9981 70.1243 41.7979 70.1097 41.7021 70.25C41.659 70.3314 41.6428 70.4246 41.6557 70.516C41.6557 70.6329 41.6557 70.7498 41.6876 70.8668C41.6898 70.9071 41.7018 70.9462 41.7224 70.9808C41.7514 71.0167 41.7911 71.0423 41.8356 71.0539C42.1601 71.1265 42.4998 71.0799 42.7932 70.9223L44.4269 70.2821C45.0072 70.0512 45.2162 69.5221 44.5604 69.1888C44.3021 69.0573 43.3532 68.8556 43.1646 69.0924Z" fill="#4E95F3"/>
<path d="M43.1646 69.0924C43.1484 69.1204 43.138 69.1514 43.134 69.1835C43.13 69.2157 43.1325 69.2483 43.1414 69.2795C43.172 69.4597 43.1413 69.6451 43.0543 69.8056C42.8773 70.098 42.4943 70.1418 42.1664 70.1243C41.9981 70.1243 41.7979 70.1097 41.7021 70.25C41.659 70.3314 41.6428 70.4246 41.6557 70.516C41.6557 70.6329 41.6557 70.7498 41.6876 70.8668C41.6898 70.9071 41.7018 70.9462 41.7224 70.9808C41.7514 71.0167 41.7911 71.0423 41.8356 71.0539C42.1601 71.1265 42.4998 71.0799 42.7932 70.9223L44.4269 70.2821C45.0072 70.0512 45.2162 69.5221 44.5604 69.1888C44.3021 69.0573 43.3532 68.8556 43.1646 69.0924Z" fill="url(#paint12_linear)"/>
<path d="M37.686 53.392C37.4799 54.3336 37.3777 55.2953 37.3813 56.2596L37.2536 60.1738C37.2333 60.8344 37.2188 61.5243 37.509 62.1148C37.828 62.6847 38.3322 63.1265 38.9367 63.3659C40.2773 63.9681 41.8036 63.9184 43.2691 63.8599C43.5591 63.8747 43.8474 63.8079 44.1019 63.667C44.4414 63.4331 44.54 62.98 44.5662 62.5708C44.6416 61.2904 44.2383 60.0393 43.9858 58.7706C43.7708 57.693 43.6667 56.5958 43.6753 55.4967C43.7103 55.1945 43.6537 54.8888 43.5128 54.6197C43.3851 54.4599 43.2235 54.3311 43.0398 54.2426C42.1208 53.7239 41.1476 53.3092 40.138 53.0061C39.6073 52.812 39.0388 52.7459 38.4782 52.8132C38.1619 52.8863 37.7731 53.0646 37.686 53.392Z" fill="#606161"/>
<path d="M37.686 53.392C37.4799 54.3336 37.3777 55.2953 37.3813 56.2596L37.2536 60.1738C37.2333 60.8344 37.2188 61.5243 37.509 62.1148C37.828 62.6847 38.3322 63.1265 38.9367 63.3659C40.2773 63.9681 41.8036 63.9184 43.2691 63.8599C43.5591 63.8747 43.8474 63.8079 44.1019 63.667C44.4414 63.4331 44.54 62.98 44.5662 62.5708C44.6416 61.2904 44.2383 60.0393 43.9858 58.7706C43.7708 57.693 43.6667 56.5958 43.6753 55.4967C43.7103 55.1945 43.6537 54.8888 43.5128 54.6197C43.3851 54.4599 43.2235 54.3311 43.0398 54.2426C42.1208 53.7239 41.1476 53.3092 40.138 53.0061C39.6073 52.812 39.0388 52.7459 38.4782 52.8132C38.1619 52.8863 37.7731 53.0646 37.686 53.392Z" fill="url(#paint13_linear)"/>
<path d="M41.5425 43.4034C40.82 43.0205 40.0713 42.6288 39.2559 42.5791C38.4405 42.5294 37.538 42.9153 37.2508 43.687C37.1481 44.0166 37.1058 44.3623 37.126 44.7072L37.0883 51.4627C37.054 52.0168 37.1159 52.5727 37.2711 53.1055C37.5787 53.9824 38.3593 54.5905 39.1805 55.0056C40.2048 55.52 41.4032 55.7948 42.5059 55.485C42.8335 55.4122 43.13 55.2373 43.3532 54.9851C43.6434 54.6139 43.6434 54.1081 43.6434 53.6346L43.5941 46.6189C43.601 46.2912 43.5786 45.9634 43.5273 45.6397C43.3126 44.5435 42.4682 43.8858 41.5425 43.4034Z" fill="#4E95F3"/>
<path d="M41.5425 43.4034C40.82 43.0205 40.0713 42.6288 39.2559 42.5791C38.4405 42.5294 37.538 42.9153 37.2508 43.687C37.1481 44.0166 37.1058 44.3623 37.126 44.7072L37.0883 51.4627C37.054 52.0168 37.1159 52.5727 37.2711 53.1055C37.5787 53.9824 38.3593 54.5905 39.1805 55.0056C40.2048 55.52 41.4032 55.7948 42.5059 55.485C42.8335 55.4122 43.13 55.2373 43.3532 54.9851C43.6434 54.6139 43.6434 54.1081 43.6434 53.6346L43.5941 46.6189C43.601 46.2912 43.5786 45.9634 43.5273 45.6397C43.3126 44.5435 42.4682 43.8858 41.5425 43.4034Z" fill="url(#paint14_linear)"/>
<path d="M42.4705 41.2637C42.4583 41.4536 42.408 41.6391 42.3228 41.8089C42.2375 41.9787 42.1189 42.1294 41.9743 42.2518C41.8613 42.3313 41.7631 42.4303 41.6841 42.5441C41.5419 42.8013 41.6667 43.1287 41.6115 43.421C41.5966 43.5131 41.5461 43.5955 41.4711 43.6503C41.3961 43.705 41.3026 43.7277 41.2111 43.7133C41.0327 43.7035 40.8596 43.6489 40.7076 43.5544C40.5555 43.46 40.4294 43.3287 40.3406 43.1726C40.1642 42.8534 40.0592 42.4992 40.033 42.1348C39.9682 41.6103 39.9556 41.0805 39.9953 40.5534C40.0053 40.2272 40.0823 39.9067 40.2216 39.6121C40.3417 39.3812 40.5296 39.1933 40.7596 39.074C40.9897 38.9547 41.2508 38.9099 41.5071 38.9456C41.7125 38.9885 41.9006 39.0921 42.0473 39.243C42.1941 39.394 42.2929 39.5856 42.3312 39.7934C42.366 40.0009 42.3312 40.2172 42.3457 40.4248C42.4048 40.7015 42.4465 40.9817 42.4705 41.2637Z" fill="#F3A984"/>
<path d="M37.8106 42.8188C37.684 43.3792 37.6034 43.9492 37.5698 44.523C37.548 45.4503 37.7777 46.366 38.2343 47.1714C38.5042 47.645 38.9162 48.1098 39.4588 48.1565C39.7279 48.1573 39.9911 48.0778 40.2152 47.9279C40.4394 47.7781 40.6144 47.5647 40.7182 47.3147C40.9146 46.8084 40.9882 46.2622 40.933 45.7215C40.8772 45.1835 40.887 44.6406 40.962 44.105C41.0751 43.5584 41.3537 43.0644 41.5046 42.5265C41.6629 41.8082 41.704 41.0687 41.6265 40.337C41.6308 40.1679 41.5971 40 41.5278 39.8459C41.4357 39.698 41.3039 39.5794 41.1477 39.5039C40.7819 39.3044 40.374 39.1958 39.9581 39.1871C39.5422 39.1785 39.1303 39.2701 38.7566 39.4542C38.1472 39.7641 38.0834 40.1558 38.1559 40.7433C38.2343 41.3777 37.9383 42.164 37.8106 42.8188Z" fill="#606161"/>
<path d="M37.8106 42.8188C37.684 43.3792 37.6034 43.9492 37.5698 44.523C37.548 45.4503 37.7777 46.366 38.2343 47.1714C38.5042 47.645 38.9162 48.1098 39.4588 48.1565C39.7279 48.1573 39.9911 48.0778 40.2152 47.9279C40.4394 47.7781 40.6144 47.5647 40.7182 47.3147C40.9146 46.8084 40.9882 46.2622 40.933 45.7215C40.8772 45.1835 40.887 44.6406 40.962 44.105C41.0751 43.5584 41.3537 43.0644 41.5046 42.5265C41.6629 41.8082 41.704 41.0687 41.6265 40.337C41.6308 40.1679 41.5971 40 41.5278 39.8459C41.4357 39.698 41.3039 39.5794 41.1477 39.5039C40.7819 39.3044 40.374 39.1958 39.9581 39.1871C39.5422 39.1785 39.1303 39.2701 38.7566 39.4542C38.1472 39.7641 38.0834 40.1558 38.1559 40.7433C38.2343 41.3777 37.9383 42.164 37.8106 42.8188Z" fill="url(#paint15_linear)"/>
<path d="M40.5314 42.0614C42.733 41.2304 44.1312 39.5175 43.6543 38.2355C43.1775 36.9535 41.0062 36.5879 38.8047 37.4189C36.6031 38.2498 35.2049 39.9627 35.6817 41.2447C36.1586 42.5267 38.3298 42.8924 40.5314 42.0614Z" fill="#4E95F3"/>
<path d="M40.4972 42.0317C42.6988 41.2008 44.097 39.4879 43.6202 38.2059C43.1433 36.9239 40.9721 36.5582 38.7705 37.3892C36.5689 38.2202 35.1707 39.9331 35.6476 41.2151C36.1244 42.4971 38.2957 42.8627 40.4972 42.0317Z" fill="url(#paint16_linear)"/>
<path d="M45.3202 49.2499C45.729 51.241 45.9937 53.2594 46.1124 55.2892C46.1327 55.6253 46.1124 56.0287 45.8367 56.2129C45.7263 56.2728 45.6011 56.2995 45.476 56.2896C45.351 56.2798 45.2314 56.2339 45.1316 56.1574C44.9327 55.9988 44.7695 55.7995 44.6528 55.5727C43.5443 53.7428 42.8072 51.7112 42.1775 49.662C41.8557 48.7565 41.6775 47.8055 41.6494 46.8441C41.6639 46.1337 41.8409 45.2626 42.3226 44.7131C42.9378 44.0086 43.4108 44.6254 43.8229 45.2159C44.647 46.4114 45.0329 47.8555 45.3202 49.2499Z" fill="#4E95F3"/>
<path d="M45.3202 49.2499C45.729 51.241 45.9937 53.2594 46.1124 55.2892C46.1327 55.6253 46.1124 56.0287 45.8367 56.2129C45.7263 56.2728 45.6011 56.2995 45.476 56.2896C45.351 56.2798 45.2314 56.2339 45.1316 56.1574C44.9327 55.9988 44.7695 55.7995 44.6528 55.5727C43.5443 53.7428 42.8072 51.7112 42.1775 49.662C41.8557 48.7565 41.6775 47.8055 41.6494 46.8441C41.6639 46.1337 41.8409 45.2626 42.3226 44.7131C42.9378 44.0086 43.4108 44.6254 43.8229 45.2159C44.647 46.4114 45.0329 47.8555 45.3202 49.2499Z" fill="url(#paint17_linear)"/>
<path d="M39.7657 36.7181C39.4096 36.6232 39.0334 36.6386 38.6861 36.7621C38.3388 36.8857 38.0365 37.1118 37.8186 37.4108C37.3978 38.0364 37.4442 38.8724 37.6619 39.5974C37.6884 39.7107 37.7493 39.8128 37.836 39.8897C37.9239 39.9423 38.024 39.9705 38.1262 39.9716C38.7065 40.0329 39.3101 40.0856 39.8382 39.8459C40.3664 39.6062 41.2369 38.7526 41.234 38.1621C41.2166 37.5219 40.3083 36.8642 39.7657 36.7181Z" fill="#4E95F3"/>
<path d="M41.2232 38.171C41.2232 38.7557 40.3265 39.6326 39.8245 39.8577C39.2742 40.0483 38.684 40.0906 38.1124 39.9805C38.0108 39.9812 37.9107 39.955 37.8223 39.9045C37.7375 39.8201 37.6773 39.714 37.6482 39.5976C37.5913 39.399 37.5477 39.1969 37.5176 38.9925C37.5387 38.996 37.5603 38.996 37.5814 38.9925C38.1618 39.048 38.7682 39.1035 39.2964 38.8609C39.7781 38.6475 40.6283 37.8349 40.6834 37.2473C40.8318 37.3554 40.9564 37.4933 41.0493 37.6523C41.1422 37.8112 41.2014 37.9879 41.2232 38.171Z" fill="url(#paint18_linear)"/>
<path d="M40.6951 37.2648C40.64 37.8494 39.7898 38.665 39.3081 38.8784C38.78 39.121 38.1677 39.0654 37.5931 39.0099C37.572 39.0134 37.5504 39.0134 37.5293 39.0099C37.4312 38.4657 37.5344 37.9041 37.8195 37.4314C38.037 37.1324 38.3386 36.906 38.6851 36.7815C39.0317 36.657 39.4074 36.64 39.7637 36.7327C40.109 36.8395 40.4269 37.0211 40.6951 37.2648Z" fill="url(#paint19_linear)"/>
<path d="M44.3484 58.8643C44.2432 57.9878 44.3987 57.0996 44.7953 56.3123C44.853 56.1871 44.9338 56.0741 45.0332 55.9791C45.1715 55.8752 45.3395 55.819 45.512 55.819C45.6846 55.819 45.8525 55.8752 45.9908 55.9791C46.2486 56.1825 46.4322 56.4662 46.5131 56.7859C46.6529 57.2348 46.6838 57.711 46.6031 58.1744L46.4232 58.1422C46.4985 57.7081 46.4697 57.2621 46.339 56.8414C46.2705 56.5598 46.1113 56.309 45.8863 56.1282C45.7797 56.05 45.6512 56.0079 45.5193 56.0079C45.3874 56.0079 45.2588 56.05 45.1522 56.1282C45.0699 56.2126 45.004 56.3117 44.9578 56.4205C44.577 57.1741 44.4275 58.0248 44.5283 58.8643H44.3484Z" fill="#4E95F3"/>
<path d="M47.2903 57.6072L48.9327 65.7921C48.95 65.877 48.95 65.9645 48.9327 66.0493C48.8921 66.2189 48.7237 66.3183 48.57 66.3972C46.9029 67.1935 45.1852 67.8771 43.428 68.4434C43.3934 68.4564 43.3552 68.4564 43.3206 68.4434C43.2917 68.4232 43.2711 68.3931 43.2626 68.3587C43.1992 68.1325 43.1718 67.8977 43.1813 67.6629C43.1523 65.8739 43.0556 64.0889 42.8911 62.3077C42.8505 61.8575 42.8041 61.4102 42.7519 60.963C42.7141 60.6239 42.5226 60.051 42.6039 59.7265C42.7286 59.2295 44.1389 58.9343 44.5945 58.7472C44.8295 58.6537 47.2903 57.727 47.2903 57.6072Z" fill="#4E95F3"/>
<path d="M47.2903 57.6072L48.9327 65.7921C48.95 65.877 48.95 65.9645 48.9327 66.0493C48.8921 66.2189 48.7237 66.3183 48.57 66.3972C46.9029 67.1935 45.1852 67.8771 43.428 68.4434C43.3934 68.4564 43.3552 68.4564 43.3206 68.4434C43.2917 68.4232 43.2711 68.3931 43.2626 68.3587C43.1992 68.1325 43.1718 67.8977 43.1813 67.6629C43.1523 65.8739 43.0556 64.0889 42.8911 62.3077C42.8505 61.8575 42.8041 61.4102 42.7519 60.963C42.7141 60.6239 42.5226 60.051 42.6039 59.7265C42.7286 59.2295 44.1389 58.9343 44.5945 58.7472C44.8295 58.6537 47.2903 57.727 47.2903 57.6072Z" fill="url(#paint20_linear)"/>
<path d="M48.2854 57.2476L49.9278 65.4179C49.9465 65.5036 49.9465 65.5924 49.9278 65.6781C49.8872 65.8477 49.7189 65.947 49.5651 66.026C47.8981 66.8223 46.1803 67.5059 44.4231 68.0722C44.4061 68.0794 44.3878 68.083 44.3694 68.083C44.351 68.083 44.3327 68.0794 44.3157 68.0722C44.3008 68.0629 44.2879 68.0505 44.2779 68.0359C44.2679 68.0213 44.2611 68.0048 44.2577 67.9874C44.1943 67.7613 44.1669 67.5265 44.1764 67.2917C44.1474 65.5056 44.0488 63.7166 43.8863 61.9364C43.8456 61.4892 43.7992 61.039 43.747 60.5918C43.7093 60.2556 43.5177 59.6826 43.599 59.3582C43.7238 58.8612 45.134 58.5631 45.5896 58.376C45.8392 58.2912 48.3057 57.3529 48.2854 57.2476Z" fill="#4E95F3"/>
<path d="M45.5641 59.1712C45.0882 58.4301 44.8418 57.5632 44.8561 56.6807C44.8534 56.5422 44.876 56.4045 44.9228 56.2743C45.0012 56.117 45.1292 55.9903 45.2867 55.9141C45.4443 55.8379 45.6224 55.8166 45.7933 55.8534C46.1138 55.922 46.4026 56.0957 46.6145 56.3474C46.9344 56.6896 47.1691 57.1034 47.2994 57.5547L47.1253 57.6044C47.002 57.1814 46.7813 56.7938 46.4811 56.4731C46.2965 56.251 46.0447 56.0959 45.7643 56.0317C45.6346 56.0067 45.5004 56.0238 45.381 56.0806C45.2616 56.1373 45.1632 56.2307 45.0998 56.3474C45.0625 56.4554 45.0448 56.5693 45.0476 56.6836C45.0322 57.5301 45.2687 58.3619 45.7266 59.0718L45.5641 59.1712Z" fill="#4E95F3"/>
<path d="M48.5561 57.5428L50.1927 65.7132C50.2114 65.7989 50.2114 65.8876 50.1927 65.9733C50.155 66.1429 49.9838 66.2423 49.83 66.3212C48.163 67.1175 46.4452 67.8011 44.688 68.3674C44.6717 68.3752 44.6538 68.3793 44.6358 68.3793C44.6177 68.3793 44.5998 68.3752 44.5835 68.3674C44.5686 68.3581 44.5557 68.3457 44.5457 68.3311C44.5357 68.3165 44.5288 68.3 44.5255 68.2826C44.462 68.0565 44.4345 67.8217 44.4442 67.5869C44.4152 65.8009 44.3166 64.0119 44.1541 62.2316C44.1105 61.7844 44.0641 61.3342 44.0148 60.887C43.9742 60.5508 43.7855 59.9779 43.8668 59.6534C43.9916 59.1564 45.3989 58.8583 45.8574 58.6712C46.1128 58.5864 48.5793 57.6481 48.5561 57.5428Z" fill="url(#paint21_linear)"/>
<path d="M49.5687 57.1804L51.2082 65.3653C51.232 65.4489 51.237 65.5368 51.2227 65.6225C51.185 65.7921 51.0167 65.8915 50.86 65.9704C49.193 66.7667 47.4752 67.4503 45.718 68.0166C45.6844 68.0294 45.6472 68.0294 45.6136 68.0166C45.5847 67.9964 45.564 67.9663 45.5555 67.9318C45.4922 67.7057 45.4647 67.4709 45.4743 67.2361C45.4453 65.4471 45.3486 63.662 45.1841 61.8808C45.1435 61.4307 45.0942 60.9834 45.0448 60.5362C45.0071 60.1971 44.8156 59.6241 44.8968 59.2997C45.0216 58.8027 46.429 58.5075 46.8875 58.3204C47.1225 58.2269 49.589 57.2856 49.5687 57.1804Z" fill="#4E95F3"/>
<path d="M49.5687 57.1804L51.2082 65.3653C51.232 65.4489 51.237 65.5368 51.2227 65.6225C51.185 65.7921 51.0167 65.8915 50.86 65.9704C49.193 66.7667 47.4752 67.4503 45.718 68.0166C45.6844 68.0294 45.6472 68.0294 45.6136 68.0166C45.5847 67.9964 45.564 67.9663 45.5555 67.9318C45.4922 67.7057 45.4647 67.4709 45.4743 67.2361C45.4453 65.4471 45.3486 63.662 45.1841 61.8808C45.1435 61.4307 45.0942 60.9834 45.0448 60.5362C45.0071 60.1971 44.8156 59.6241 44.8968 59.2997C45.0216 58.8027 46.429 58.5075 46.8875 58.3204C47.1225 58.2269 49.589 57.2856 49.5687 57.1804Z" fill="url(#paint22_linear)"/>
<path d="M45.2043 55.1254C45.0179 55.1333 44.8393 55.2032 44.6965 55.3242C44.6549 55.3817 44.6252 55.447 44.6093 55.5163C44.5933 55.5856 44.5914 55.6575 44.6037 55.7276C44.6211 55.8679 44.6646 56.0023 44.6791 56.1427C44.7081 56.4174 44.6269 56.7273 44.7516 56.9611C44.8229 57.0738 44.9217 57.166 45.0386 57.229C45.1555 57.292 45.2865 57.3235 45.4191 57.3207C45.6389 57.3398 45.859 57.2859 46.0456 57.1671C46.2321 57.0483 46.3749 56.8713 46.4521 56.663C46.4835 56.524 46.4904 56.3805 46.4724 56.2391C46.4347 55.903 46.3099 55.2248 46.0691 54.9705C45.8282 54.7161 45.48 55.0669 45.2043 55.1254Z" fill="#F3A984"/>
<path d="M25.6205 38.2295V36.841C24.8816 36.8402 24.1578 36.6305 23.5312 36.2359L23.8592 35.3151C24.4458 35.6959 25.1287 35.8988 25.8266 35.8997C26.7958 35.8997 27.4516 35.3385 27.4516 34.5521C27.4516 33.7658 26.9176 33.3303 25.9078 32.9181C24.515 32.3656 23.656 31.7342 23.656 30.5386C23.656 29.3956 24.4598 28.5304 25.7163 28.3228V26.9343H26.5636V28.2673C27.1858 28.2732 27.7961 28.4393 28.3366 28.7496L27.9971 29.6646C27.4772 29.3522 26.8817 29.1903 26.2763 29.1969C25.2259 29.1969 24.8254 29.8283 24.8254 30.3661C24.8254 31.0823 25.3304 31.439 26.5201 31.9359C27.9246 32.5205 28.6355 33.2279 28.6355 34.4498C28.6355 35.5373 27.8839 36.5545 26.4766 36.7884V38.2178L25.6205 38.2295Z" fill="white"/>
<path d="M14.5004 49.9016V48.5131C13.7615 48.5123 13.0377 48.3026 12.4111 47.908L12.7593 46.9872C13.346 47.368 14.0289 47.5709 14.7268 47.5719C15.696 47.5719 16.3489 47.0106 16.3489 46.2243C16.3489 45.4379 15.8178 45.0024 14.808 44.5902C13.4152 44.0377 12.5562 43.4063 12.5562 42.2107C12.5562 41.0678 13.36 40.2025 14.6165 39.995V38.6064H15.4638V39.9394C16.086 39.9454 16.6963 40.1114 17.2368 40.4217L16.8973 41.3309C16.3774 41.0185 15.7819 40.8566 15.1765 40.8631C14.1261 40.8631 13.7256 41.4946 13.7256 42.0324C13.7256 42.7486 14.2306 43.1052 15.4203 43.6022C16.8248 44.1868 17.5357 44.8942 17.5357 46.1161C17.5357 47.2035 16.7841 48.2208 15.3768 48.4547V49.8841L14.5004 49.9016Z" fill="white"/>
<path d="M126.87 49.9016V48.5131C126.131 48.5123 125.407 48.3026 124.78 47.908L125.108 46.9872C125.695 47.3683 126.378 47.5712 127.076 47.5719C128.045 47.5719 128.698 47.0106 128.698 46.2243C128.698 45.4379 128.167 45.0024 127.157 44.5902C125.764 44.0377 124.905 43.4063 124.905 42.2107C124.905 41.0678 125.709 40.2025 126.965 39.995V38.6064H127.813V39.9394C128.435 39.9454 129.045 40.1114 129.586 40.4217L129.246 41.3309C128.726 41.0185 128.131 40.8566 127.525 40.8631C126.472 40.8631 126.074 41.4946 126.074 42.0324C126.074 42.7486 126.579 43.1052 127.769 43.6022C129.174 44.1868 129.885 44.8942 129.885 46.1161C129.885 47.2035 129.133 48.2208 127.726 48.4547V49.8841L126.87 49.9016Z" fill="white"/>
<path d="M111.78 30.974V29.5855C111.041 29.585 110.317 29.3753 109.69 28.9804L110.018 28.0596C110.604 28.4403 111.286 28.6432 111.983 28.6442C112.952 28.6442 113.608 28.0801 113.608 27.2967C113.608 26.5132 113.077 26.0748 112.064 25.6597C110.674 25.1101 109.812 24.4904 109.812 23.2831C109.812 22.1402 110.619 21.2749 111.875 21.0673V19.6788H112.72V21.0118C113.343 21.0183 113.954 21.1843 114.496 21.4941L114.153 22.4032C113.634 22.0904 113.038 21.9286 112.433 21.9355C111.382 21.9355 110.982 22.5669 110.982 23.1048C110.982 23.821 111.487 24.1776 112.673 24.6716C114.081 25.2563 114.789 25.9666 114.789 27.1885C114.789 28.2759 114.04 29.2932 112.633 29.5271V30.9565L111.78 30.974Z" fill="white"/>
</g>
<defs>
<linearGradient id="paint0_linear" x1="53.1345" y1="82.387" x2="109.029" y2="82.387" gradientUnits="userSpaceOnUse">
<stop stop-color="#010101" stop-opacity="0"/>
<stop offset="0.95" stop-color="#010101"/>
</linearGradient>
<linearGradient id="paint1_linear" x1="9952.71" y1="7822.44" x2="11634.2" y2="4819.89" gradientUnits="userSpaceOnUse">
<stop stop-color="#010101" stop-opacity="0"/>
<stop offset="0.95" stop-color="#010101"/>
</linearGradient>
<linearGradient id="paint2_linear" x1="25865.3" y1="14329.5" x2="20.7138" y2="48815" gradientUnits="userSpaceOnUse">
<stop stop-color="#010101" stop-opacity="0"/>
<stop offset="0.95" stop-color="#010101"/>
</linearGradient>
<linearGradient id="paint3_linear" x1="76.5518" y1="56.9701" x2="111.083" y2="-55.8964" gradientUnits="userSpaceOnUse">
<stop stop-color="white" stop-opacity="0"/>
<stop offset="0.66" stop-color="white"/>
</linearGradient>
<linearGradient id="paint4_linear" x1="16049.6" y1="5505.55" x2="16063" y2="10952.7" gradientUnits="userSpaceOnUse">
<stop stop-color="#010101" stop-opacity="0"/>
<stop offset="0.95" stop-color="#010101"/>
</linearGradient>
<linearGradient id="paint5_linear" x1="4836.36" y1="2254.34" x2="4163.33" y2="4899.21" gradientUnits="userSpaceOnUse">
<stop stop-color="#010101" stop-opacity="0"/>
<stop offset="0.95" stop-color="#010101"/>
</linearGradient>
<linearGradient id="paint6_linear" x1="567.787" y1="189.207" x2="573.913" y2="202.014" gradientUnits="userSpaceOnUse">
<stop stop-color="#010101" stop-opacity="0"/>
<stop offset="0.95" stop-color="#010101"/>
</linearGradient>
<linearGradient id="paint7_linear" x1="22004.2" y1="11314.3" x2="20795" y2="39331.4" gradientUnits="userSpaceOnUse">
<stop stop-color="#010101" stop-opacity="0"/>
<stop offset="0.95" stop-color="#010101"/>
</linearGradient>
<linearGradient id="paint8_linear" x1="829.44" y1="2110.65" x2="1053.51" y2="2256.13" gradientUnits="userSpaceOnUse">
<stop stop-color="#010101" stop-opacity="0"/>
<stop offset="0.95" stop-color="#010101"/>
</linearGradient>
<linearGradient id="paint9_linear" x1="541.272" y1="2164.1" x2="465.159" y2="2165.15" gradientUnits="userSpaceOnUse">
<stop stop-color="#010101" stop-opacity="0"/>
<stop offset="0.95" stop-color="#010101"/>
</linearGradient>
<linearGradient id="paint10_linear" x1="930.724" y1="2218.88" x2="1112.02" y2="2685.54" gradientUnits="userSpaceOnUse">
<stop stop-color="#010101" stop-opacity="0"/>
<stop offset="0.95" stop-color="#010101"/>
</linearGradient>
<linearGradient id="paint11_linear" x1="542.934" y1="642.394" x2="544.663" y2="664.626" gradientUnits="userSpaceOnUse">
<stop stop-color="#010101" stop-opacity="0"/>
<stop offset="0.95" stop-color="#010101"/>
</linearGradient>
<linearGradient id="paint12_linear" x1="584.739" y1="643.44" x2="585.689" y2="675.174" gradientUnits="userSpaceOnUse">
<stop stop-color="#010101" stop-opacity="0"/>
<stop offset="0.95" stop-color="#010101"/>
</linearGradient>
<linearGradient id="paint13_linear" x1="1088.4" y1="2741.47" x2="1273.59" y2="2741.47" gradientUnits="userSpaceOnUse">
<stop stop-color="#010101" stop-opacity="0"/>
<stop offset="0.95" stop-color="#010101"/>
</linearGradient>
<linearGradient id="paint14_linear" x1="1106.73" y1="2414.53" x2="490.988" y2="3438.16" gradientUnits="userSpaceOnUse">
<stop stop-color="#010101" stop-opacity="0"/>
<stop offset="0.95" stop-color="#010101"/>
</linearGradient>
<linearGradient id="paint15_linear" x1="628.81" y1="1853.72" x2="727.42" y2="1782.94" gradientUnits="userSpaceOnUse">
<stop stop-color="#010101" stop-opacity="0"/>
<stop offset="0.95" stop-color="#010101"/>
</linearGradient>
<linearGradient id="paint16_linear" x1="2264.31" y1="518.868" x2="2305.66" y2="396.769" gradientUnits="userSpaceOnUse">
<stop stop-color="white" stop-opacity="0"/>
<stop offset="0.66" stop-color="white"/>
</linearGradient>
<linearGradient id="paint17_linear" x1="821.088" y1="2567.65" x2="685.511" y2="2586.6" gradientUnits="userSpaceOnUse">
<stop stop-color="#010101" stop-opacity="0"/>
<stop offset="0.95" stop-color="#010101"/>
</linearGradient>
<linearGradient id="paint18_linear" x1="577.126" y1="538.294" x2="609.532" y2="507.494" gradientUnits="userSpaceOnUse">
<stop stop-color="white" stop-opacity="0"/>
<stop offset="0.66" stop-color="white"/>
</linearGradient>
<linearGradient id="paint19_linear" x1="515.804" y1="446.306" x2="536.376" y2="426.48" gradientUnits="userSpaceOnUse">
<stop stop-color="white" stop-opacity="0"/>
<stop offset="0.66" stop-color="white"/>
</linearGradient>
<linearGradient id="paint20_linear" x1="1211.49" y1="2798.71" x2="822.583" y2="2900.26" gradientUnits="userSpaceOnUse">
<stop stop-color="#010101" stop-opacity="0"/>
<stop offset="0.95" stop-color="#010101"/>
</linearGradient>
<linearGradient id="paint21_linear" x1="1240.49" y1="2793.84" x2="851.754" y2="2895.36" gradientUnits="userSpaceOnUse">
<stop stop-color="#010101" stop-opacity="0"/>
<stop offset="0.95" stop-color="#010101"/>
</linearGradient>
<linearGradient id="paint22_linear" x1="1078.63" y1="2610.94" x2="1588.83" y2="2999.58" gradientUnits="userSpaceOnUse">
<stop stop-color="#010101" stop-opacity="0"/>
<stop offset="0.95" stop-color="#010101"/>
</linearGradient>
<clipPath id="clip0">
<rect width="153" height="119" fill="white"/>
</clipPath>
</defs>
</svg>
