<svg width="95" height="79" viewBox="0 0 95 79" fill="none" xmlns="http://www.w3.org/2000/svg">
<g clip-path="url(#clip0)">
<path opacity="0.18" d="M44.237 0.0151465C42.5197 0.0427914 40.809 0.234686 39.1284 0.588195C32.8237 1.98696 27.6132 6.29003 22.8912 10.6817C18.9422 14.3544 15.0559 18.3267 13.0004 23.3096C11.0364 28.0893 10.911 33.502 8.6362 38.1568C7.19712 41.108 4.97974 43.5929 3.2168 46.367C0.242012 51.0556 -1.28325 57.2653 1.35723 62.1623C2.8616 64.9468 5.49687 66.929 8.1269 68.6951C14.8626 73.2169 22.2957 76.9965 30.3268 78.1764C33.393 78.627 36.501 78.6974 39.5986 78.8458C42.2704 78.9787 44.9736 79.1766 47.601 78.6791C54.1748 77.4341 59.1528 72.1307 65.246 69.3749C69.5789 67.4135 74.3871 66.7884 78.9891 65.611C83.591 64.4337 88.2974 62.5218 91.1912 58.7501C93.7742 55.3821 94.4977 51.1025 94.9469 46.9947C95.3804 43.0381 92.9515 39.3341 91.4654 35.6953C88.253 27.8315 84.8969 19.8739 79.0335 13.5547C73.0369 7.12796 65.175 2.73258 56.5489 0.98412C53.3229 0.371786 50.0489 0.0466476 46.7652 0.0125416C45.9242 -0.00308698 45.0806 -0.00829646 44.237 0.0151465Z" fill="#4E95F3"/>
<path d="M39.5655 33.1274C39.5449 32.995 39.4836 32.8722 39.3901 32.7761C39.2965 32.6799 39.1752 32.6152 39.0431 32.5909C38.9117 32.5687 38.777 32.5759 38.6488 32.612C38.5205 32.648 38.4019 32.712 38.3014 32.7992C38.173 32.9045 38.0816 33.0477 38.0402 33.2082C38.0118 33.3758 38.0217 33.5476 38.0689 33.7109C38.1133 33.9435 38.2019 34.1654 38.3301 34.3647C38.5913 34.7346 39.2076 34.8648 39.3957 34.3647C39.4174 34.2033 39.4235 34.0402 39.414 33.8776C39.4427 33.6223 39.5916 33.3905 39.5655 33.1274Z" fill="#FCA89E"/>
<path d="M30.6334 11.3828L37.787 47.9512C37.9526 48.7984 37.7742 49.6766 37.2908 50.3927C36.8074 51.1088 36.0586 51.6041 35.2092 51.7697L19.3375 54.8564C18.4887 55.0234 17.6081 54.8475 16.8892 54.3674C16.1703 53.8873 15.6719 53.1423 15.5035 52.2959L8.34989 15.7198C8.18417 14.8729 8.3623 13.995 8.84516 13.279C9.32802 12.563 10.0761 12.0674 10.9251 11.9012L26.7941 8.81192C27.2146 8.72844 27.6475 8.72838 28.068 8.81175C28.4885 8.89512 28.8884 9.06028 29.245 9.29781C29.6015 9.53533 29.9076 9.84056 30.1458 10.1961C30.384 10.5516 30.5497 10.9504 30.6334 11.3698V11.3828Z" fill="#4E95F3"/>
<path d="M26.5763 9.41589L11.3726 12.3743C9.6624 12.707 8.54649 14.3595 8.88017 16.0651L15.8501 51.6934C16.1837 53.399 17.8406 54.512 19.5508 54.1792L34.7545 51.2208C36.4647 50.888 37.5806 49.2356 37.247 47.5299L30.2771 11.9017C29.9434 10.196 28.2865 9.08311 26.5763 9.41589Z" fill="#473F47"/>
<path d="M29.7453 12.4091L36.4941 46.9093C36.6389 47.693 36.4659 48.502 36.0128 49.1585C35.5598 49.8149 34.8639 50.2651 34.0782 50.4101L19.8337 53.1815C19.3116 53.2859 18.7713 53.2517 18.2666 53.0826C17.7642 52.9205 17.3142 52.6277 16.963 52.2344C16.6118 51.8411 16.3721 51.3615 16.2686 50.8451L9.52246 16.3423C9.3784 15.5579 9.5525 14.7486 10.0065 14.0921C10.4605 13.4357 11.1572 12.9859 11.9436 12.8415L14.349 12.3674L14.4404 12.805C14.5007 13.0825 14.642 13.3359 14.8465 13.5334C15.051 13.7308 15.3096 13.8635 15.5896 13.9147C15.7767 13.9511 15.9692 13.9511 16.1563 13.9147L22.7693 12.6279C23.1462 12.554 23.4789 12.3354 23.6958 12.0192C23.9127 11.703 23.9964 11.3145 23.9289 10.9374L23.8427 10.5233L26.1933 10.07C26.9593 9.91885 27.7544 10.0651 28.4159 10.479C28.7582 10.6927 29.0528 10.9744 29.2815 11.3064C29.5102 11.6384 29.6681 12.0137 29.7453 12.4091Z" fill="white"/>
<path opacity="0.18" d="M23.0617 35.1539C25.7749 35.1539 27.9744 32.9603 27.9744 30.2544C27.9744 27.5484 25.7749 25.3548 23.0617 25.3548C20.3485 25.3548 18.149 27.5484 18.149 30.2544C18.149 32.9603 20.3485 35.1539 23.0617 35.1539Z" fill="#4E95F3"/>
<path d="M23.4745 33.8646L23.3048 32.9894C22.8358 33.0836 22.3496 33.0439 21.9023 32.8748L21.9911 32.2548C22.4067 32.4158 22.8596 32.4555 23.297 32.3695C23.9185 32.2496 24.2607 31.8094 24.1614 31.3275C24.0622 30.8457 23.6704 30.6243 22.9757 30.4914C22.0198 30.3221 21.393 30.033 21.2467 29.2828C21.1005 28.5326 21.5079 27.9179 22.2758 27.6262L22.106 26.7536L22.644 26.6494L22.8086 27.4881C23.2049 27.4135 23.6138 27.4404 23.9969 27.5663L23.9003 28.1888C23.5305 28.0591 23.1324 28.0321 22.7485 28.1107C22.0825 28.2409 21.9101 28.6941 21.9806 29.038C22.0694 29.4886 22.4377 29.6501 23.2499 29.8194C24.2189 30.0017 24.7569 30.3612 24.9136 31.1218C25.0468 31.8042 24.6995 32.5388 23.8376 32.8644L24.0126 33.7604L23.4745 33.8646Z" fill="#4E95F3"/>
<path d="M87.1099 15.7719L81.1708 53.4238C81.0326 54.2961 80.5528 55.0781 79.8368 55.5978C79.1208 56.1175 78.2272 56.3324 77.3524 56.1952L61.0132 53.6295C60.58 53.5625 60.1643 53.4111 59.7898 53.1838C59.4153 52.9566 59.0893 52.658 58.8306 52.305C58.5718 51.9521 58.3852 51.5519 58.2816 51.127C58.1779 50.7022 58.1592 50.2612 58.2265 49.8292L64.1682 12.1721C64.3051 11.2999 64.7837 10.5178 65.4988 9.99753C66.2139 9.47731 67.1069 9.26165 67.9814 9.39799L84.3205 11.9611C85.1943 12.0959 85.9788 12.5709 86.5018 13.282C87.0247 13.993 87.2434 14.8819 87.1099 15.7536V15.7719Z" fill="#4E95F3"/>
<path d="M64.5526 12.692L58.7666 49.3744C58.4896 51.1309 59.6927 52.7788 61.4539 53.0551L77.1069 55.5109C78.8681 55.7872 80.5204 54.5873 80.7975 52.8309L86.5835 16.1484C86.8606 14.3919 85.6574 12.744 83.8962 12.4677L68.2432 10.0119C66.482 9.7356 64.8297 10.9355 64.5526 12.692Z" fill="#473F47"/>
<path d="M85.8981 16.4465L80.2932 51.9599C80.1577 52.7638 79.7077 53.4811 79.0422 53.9544C78.3767 54.4276 77.5501 54.6181 76.7439 54.4839L62.0789 52.1813C61.5424 52.0989 61.0367 51.879 60.611 51.5431C60.1839 51.2124 59.8531 50.7739 59.6529 50.2729C59.4527 49.7719 59.3904 49.2266 59.4723 48.6935L65.0772 13.1801C65.2133 12.3757 65.6643 11.6581 66.3309 11.1853C66.9975 10.7124 67.8251 10.523 68.6317 10.6587L71.1155 11.0468L71.045 11.4922C71.0068 11.7804 71.0545 12.0734 71.1823 12.3347C71.31 12.596 71.5121 12.8139 71.7632 12.9613C71.932 13.0585 72.1169 13.1246 72.3091 13.1567L79.1232 14.2246C79.5116 14.2851 79.9083 14.1909 80.2278 13.9624C80.5473 13.7339 80.764 13.3893 80.8313 13.003L80.8966 12.581L83.302 12.9587C84.091 13.0804 84.8038 13.4977 85.2948 14.1257C85.5495 14.4506 85.7344 14.8243 85.8382 15.2236C85.942 15.6228 85.9624 16.0391 85.8981 16.4465Z" fill="white"/>
<path d="M55.1838 29.1161H53.8779C53.774 29.1161 53.6744 29.0749 53.6009 29.0016C53.5274 28.9284 53.4861 28.829 53.4861 28.7254C53.4861 28.6217 53.5274 28.5224 53.6009 28.4491C53.6744 28.3758 53.774 28.3347 53.8779 28.3347H55.1838C55.2877 28.3347 55.3873 28.3758 55.4608 28.4491C55.5343 28.5224 55.5756 28.6217 55.5756 28.7254C55.5756 28.829 55.5343 28.9284 55.4608 29.0016C55.3873 29.0749 55.2877 29.1161 55.1838 29.1161ZM52.572 29.1161H51.2662C51.1623 29.1161 51.0626 29.0749 50.9891 29.0016C50.9157 28.9284 50.8744 28.829 50.8744 28.7254C50.8744 28.6217 50.9157 28.5224 50.9891 28.4491C51.0626 28.3758 51.1623 28.3347 51.2662 28.3347H52.572C52.6759 28.3347 52.7756 28.3758 52.849 28.4491C52.9225 28.5224 52.9638 28.6217 52.9638 28.7254C52.9638 28.829 52.9225 28.9284 52.849 29.0016C52.7756 29.0749 52.6759 29.1161 52.572 29.1161ZM49.9603 29.1161H48.6544C48.5505 29.1161 48.4509 29.0749 48.3774 29.0016C48.3039 28.9284 48.2626 28.829 48.2626 28.7254C48.2626 28.6217 48.3039 28.5224 48.3774 28.4491C48.4509 28.3758 48.5505 28.3347 48.6544 28.3347H49.9603C50.0642 28.3347 50.1638 28.3758 50.2373 28.4491C50.3108 28.5224 50.352 28.6217 50.352 28.7254C50.352 28.829 50.3108 28.9284 50.2373 29.0016C50.1638 29.0749 50.0642 29.1161 49.9603 29.1161ZM47.3485 29.1161H46.0426C45.9387 29.1161 45.8391 29.0749 45.7656 29.0016C45.6922 28.9284 45.6509 28.829 45.6509 28.7254C45.6509 28.6217 45.6922 28.5224 45.7656 28.4491C45.8391 28.3758 45.9387 28.3347 46.0426 28.3347H47.3485C47.4524 28.3347 47.5521 28.3758 47.6255 28.4491C47.699 28.5224 47.7403 28.6217 47.7403 28.7254C47.7403 28.829 47.699 28.9284 47.6255 29.0016C47.5521 29.0749 47.4524 29.1161 47.3485 29.1161ZM44.7368 29.1161H43.4309C43.327 29.1161 43.2273 29.0749 43.1539 29.0016C43.0804 28.9284 43.0391 28.829 43.0391 28.7254C43.0391 28.6217 43.0804 28.5224 43.1539 28.4491C43.2273 28.3758 43.327 28.3347 43.4309 28.3347H44.7368C44.8407 28.3347 44.9403 28.3758 45.0138 28.4491C45.0873 28.5224 45.1285 28.6217 45.1285 28.7254C45.1285 28.829 45.0873 28.9284 45.0138 29.0016C44.9403 29.0749 44.8407 29.1161 44.7368 29.1161ZM42.125 29.1161H40.8191C40.7152 29.1161 40.6156 29.0749 40.5421 29.0016C40.4686 28.9284 40.4274 28.829 40.4274 28.7254C40.4274 28.6217 40.4686 28.5224 40.5421 28.4491C40.6156 28.3758 40.7152 28.3347 40.8191 28.3347H42.125C42.2289 28.3347 42.3286 28.3758 42.402 28.4491C42.4755 28.5224 42.5168 28.6217 42.5168 28.7254C42.5168 28.829 42.4755 28.9284 42.402 29.0016C42.3286 29.0749 42.2289 29.1161 42.125 29.1161Z" fill="#4E95F3"/>
<path d="M39.6752 30.6555C39.5788 30.6587 39.485 30.6241 39.414 30.5591L37.6484 29.0197C37.6098 28.9853 37.5783 28.9436 37.556 28.897C37.5336 28.8504 37.5206 28.7999 37.518 28.7483C37.5153 28.6967 37.5229 28.6451 37.5404 28.5964C37.5578 28.5478 37.5848 28.5031 37.6197 28.4649C37.6286 28.4547 37.6382 28.4451 37.6484 28.4363L39.414 26.8239C39.4922 26.768 39.5883 26.7428 39.6839 26.753C39.7796 26.7632 39.8681 26.8082 39.9327 26.8793C39.9972 26.9504 40.0333 27.0428 40.034 27.1387C40.0346 27.2347 39.9999 27.3275 39.9363 27.3996L38.4947 28.7176L39.9285 29.9705C40.0061 30.0379 40.054 30.1331 40.0618 30.2354C40.0697 30.3378 40.0368 30.4391 39.9703 30.5175C39.9343 30.5607 39.8892 30.5954 39.8381 30.6193C39.7871 30.6431 39.7315 30.6555 39.6752 30.6555Z" fill="#4E95F3"/>
<path d="M56.4217 30.6555C56.3658 30.656 56.3105 30.6443 56.2595 30.6214C56.2086 30.5985 56.1632 30.5648 56.1266 30.5227C56.0585 30.4444 56.0242 30.3425 56.031 30.2391C56.0379 30.1357 56.0853 30.0391 56.1631 29.9705L57.5996 28.7176L56.1579 27.3996C56.0944 27.3275 56.0596 27.2347 56.0603 27.1387C56.061 27.0428 56.097 26.9504 56.1616 26.8793C56.2261 26.8082 56.3147 26.7632 56.4103 26.753C56.506 26.7428 56.6021 26.768 56.6803 26.8239L58.4458 28.4363C58.4861 28.4735 58.5183 28.5186 58.5403 28.5688C58.5623 28.619 58.5737 28.6732 58.5738 28.728C58.5727 28.7831 58.5604 28.8374 58.5375 28.8876C58.5146 28.9378 58.4816 28.9827 58.4406 29.0197L56.675 30.5591C56.6048 30.6203 56.515 30.6545 56.4217 30.6555Z" fill="#4E95F3"/>
<path d="M54.382 56.9506C54.382 58.9886 53.5702 60.943 52.1253 62.3841C50.6804 63.8251 48.7207 64.6347 46.6773 64.6347C44.6339 64.6347 42.6742 63.8251 41.2293 62.3841C39.7844 60.943 38.9726 58.9886 38.9726 56.9506C38.9691 56.7542 38.9761 56.5577 38.9935 56.362C39.1488 54.3836 40.0657 52.542 41.5522 51.2229C43.0386 49.9038 44.9792 49.2096 46.9675 49.2857C48.9557 49.3618 50.8372 50.2023 52.2179 51.6312C53.5986 53.06 54.3713 54.9663 54.3741 56.9506H54.382Z" fill="#4E95F3"/>
<path opacity="0.14" d="M43.4439 60.4384C43.1827 61.5481 43.5013 62.7332 43.2715 63.8377C41.4929 62.9595 40.1211 61.4328 39.4401 59.5736C39.4039 59.1918 39.4135 58.8071 39.4688 58.4275C39.5524 58.0228 39.5524 57.6054 39.4688 57.2007C39.359 56.8958 39.1973 56.6121 38.9908 56.362C39.077 55.2392 39.4099 54.1491 39.966 53.169C40.5221 52.189 41.2877 51.3431 42.2085 50.6914C42.2189 50.743 42.2189 50.7961 42.2085 50.8477L41.8794 52.3089C41.9447 52.7406 41.9447 53.1796 41.8794 53.6113C41.8433 53.8264 41.7605 54.0311 41.6369 54.211C41.5133 54.391 41.3519 54.5419 41.1638 54.6532C41.0225 54.7131 40.8847 54.7809 40.7512 54.8564C40.6239 54.9606 40.5176 55.0879 40.4378 55.2315C40.2258 55.5286 40.0668 55.8599 39.9676 56.2109C39.9206 56.3868 39.9184 56.5717 39.9613 56.7486C40.0041 56.9256 40.0907 57.0891 40.2131 57.2241L42.36 56.8074C42.4678 56.7677 42.5839 56.7557 42.6975 56.7726C42.8112 56.7894 42.9188 56.8345 43.0103 56.9037C43.1958 57.1043 43.0809 57.4247 43.12 57.6982C43.1723 58.042 43.4805 58.2921 43.6241 58.6125C43.8879 59.1933 43.5849 59.8341 43.4439 60.4384Z" fill="#020202"/>
<path opacity="0.4" d="M40.5919 53.0018C40.6925 53.2146 40.8508 53.395 41.0489 53.5228C41.9502 54.1973 43.0384 54.5776 44.1647 54.6115C43.7947 54.6722 43.4496 54.8367 43.1697 55.0856C42.9085 55.3461 42.8536 55.867 43.154 56.0754C43.2601 56.1458 43.3805 56.192 43.5066 56.2109C44.0804 56.3221 44.6739 56.2743 45.2225 56.0728C45.5382 55.9118 45.8807 55.8094 46.2332 55.7707C46.5175 55.7937 46.7945 55.8724 47.0481 56.0025C47.4093 56.1903 47.8188 56.2656 48.2234 56.2187C48.6204 56.1379 48.9808 55.7576 48.8972 55.3643C48.8763 55.2706 48.8346 55.169 48.8816 55.0882C48.9188 55.0391 48.9697 55.002 49.0278 54.9814L52.6843 53.3665C52.9167 53.2623 53.1805 53.106 53.2066 52.8638C53.2327 52.6215 52.9768 52.4001 52.7391 52.2777C51.4829 51.6239 50.0177 51.5405 48.6021 51.4702L46.0896 51.3478C44.8722 51.2549 43.6491 51.2636 42.4331 51.3738C42.0126 51.4233 41.2683 51.4285 40.9471 51.7411C40.7945 51.9097 40.683 52.1113 40.6214 52.33C40.5598 52.5487 40.5497 52.7786 40.5919 53.0018Z" fill="#020202"/>
<path opacity="0.14" d="M54.3819 56.9506C54.383 58.112 54.1195 59.2585 53.6114 60.3036C53.1034 61.3486 52.3639 62.2649 51.4489 62.9833C51.3457 62.9142 51.257 62.8257 51.1877 62.7228C51.1298 62.6378 51.0893 62.5423 51.0685 62.4417C51.0477 62.3411 51.047 62.2374 51.0664 62.1365C51.0858 62.0356 51.1249 61.9395 51.1816 61.8538C51.2383 61.768 51.3113 61.6942 51.3966 61.6366C51.2661 61.7043 50.7568 61.5376 50.6131 61.5142L49.8296 61.3918C49.4483 61.3319 48.7849 61.3579 48.5629 60.975C48.5384 60.9218 48.5087 60.8712 48.4741 60.8239C48.427 60.7764 48.3711 60.7384 48.3095 60.7119C48.0719 60.5973 47.7872 60.4645 47.735 60.2066C47.6958 60.0164 47.7898 59.8003 47.6932 59.6335C47.6618 59.5788 47.6148 59.5398 47.5835 59.4877C47.5501 59.4095 47.5377 59.324 47.5473 59.2395C47.5569 59.1551 47.5883 59.0746 47.6383 59.0058C47.9726 58.4223 48.6647 58.141 49.3281 58.029C49.9915 57.917 50.681 57.9326 51.3261 57.7451C51.7225 57.5923 52.1292 57.4679 52.5432 57.3726C52.7757 57.3414 53.0656 57.3179 53.1491 57.1121C53.1988 56.9897 53.1491 56.8517 53.1988 56.7214C53.2196 56.6693 53.2536 56.6224 53.2745 56.5703C53.2876 56.5307 53.2926 56.4888 53.2895 56.4472C53.2863 56.4055 53.2749 56.3649 53.256 56.3277C53.2371 56.2904 53.211 56.2572 53.1792 56.2301C53.1474 56.2029 53.1106 56.1822 53.0708 56.1692L53.0133 56.1562C53.0682 56.0129 53.1126 55.828 52.9977 55.7264C52.9579 55.6965 52.9114 55.6768 52.8622 55.669C52.813 55.6613 52.7626 55.6658 52.7156 55.6821C52.454 55.7947 52.2143 55.9526 52.0078 56.1484C51.628 56.3944 51.1738 56.5002 50.724 56.4474C50.2742 56.3946 49.8571 56.1865 49.5449 55.8592C49.4397 55.7683 49.365 55.6474 49.3307 55.5128C49.3216 55.3984 49.348 55.284 49.4064 55.1852C49.4649 55.0864 49.5524 55.0079 49.6572 54.9606C49.867 54.8692 50.0943 54.8247 50.3232 54.8304C50.2379 54.2729 50.1508 53.7155 50.062 53.1581C48.7797 53.4993 48.2599 52.2829 48.0771 51.2722C47.8943 50.2616 48.6151 49.9021 49.5423 49.8344C50.9688 50.4036 52.192 51.3854 53.0545 52.6536C53.9169 53.9218 54.3792 55.4183 54.3819 56.9506Z" fill="#020202"/>
<path d="M44.3945 41.9342H49.3334C49.5025 41.9317 49.6704 41.9626 49.8275 42.0249C49.9847 42.0872 50.128 42.1798 50.2492 42.2973C50.3705 42.4149 50.4674 42.5551 50.5343 42.71C50.6012 42.8649 50.6369 43.0314 50.6392 43.2001V43.2365C50.6392 43.2365 49.699 47.0681 49.699 48.3549C49.699 49.0608 49.921 51.1654 49.921 51.1654H43.8121C43.8121 51.1654 44.0942 48.9644 44.089 48.2273C44.089 46.9718 43.0808 43.2339 43.0808 43.2339C43.0784 43.0651 43.1094 42.8974 43.172 42.7405C43.2347 42.5836 43.3278 42.4406 43.4459 42.3196C43.564 42.1986 43.705 42.1021 43.8606 42.0355C44.0162 41.9689 44.1834 41.9336 44.3527 41.9315L44.3945 41.9342Z" fill="#4E95F3"/>
<path d="M44.157 49.949C44.4026 49.949 44.6454 49.9073 44.8883 49.8865C45.2044 49.8578 45.5204 49.8631 45.839 49.8657L50.8849 49.9282C51.0743 49.9179 51.264 49.9436 51.4438 50.0037C51.533 50.0345 51.6121 50.0888 51.6728 50.1608C51.7335 50.2328 51.7735 50.3198 51.7886 50.4127C51.8121 50.6549 51.6084 50.8529 51.4151 51.0013C50.5246 51.6849 49.4801 52.1409 48.3724 52.3298C46.6696 52.6189 44.9223 52.2594 43.256 51.8088C42.9869 51.7541 42.7318 51.645 42.5064 51.4884C42.3055 51.2881 42.122 51.0711 41.958 50.8398C41.7985 50.6944 41.6621 50.5258 41.5531 50.3397C41.0961 49.264 43.7653 49.9516 44.157 49.949Z" fill="#473F47"/>
<path d="M47.6254 42.6531C47.607 42.7983 47.5327 42.9306 47.4181 43.0221C47.3035 43.1135 47.1577 43.1568 47.0116 43.1428C46.4057 43.1141 46.3639 42.6531 46.3639 42.6531V40.2541H47.6254V42.6531Z" fill="#FCA89E"/>
<path d="M46.3639 41.4392C46.3639 41.4392 47.1474 42.6687 47.6254 42.0774V41.1189L46.3639 41.4392Z" fill="url(#paint0_linear)"/>
<path d="M45.8311 40.8297C46.1471 41.8065 47.7194 41.8352 48.247 41.059C48.5265 40.5886 48.6152 40.0295 48.4951 39.4961C48.4114 38.9672 48.2495 38.4537 48.0145 37.9723C47.8526 37.6702 47.688 37.4019 47.3224 37.3576C46.9034 37.3267 46.4844 37.4171 46.1158 37.6181C45.7652 37.8063 45.489 38.1075 45.3322 38.4724C45.1825 38.8377 45.1631 39.2433 45.2774 39.6211C45.3409 39.8099 45.4204 39.9928 45.5151 40.1681C45.6371 40.3803 45.7428 40.6015 45.8311 40.8297Z" fill="#FCA89E"/>
<path d="M46.3038 54.3042C46.1294 54.4404 45.9346 54.5485 45.7266 54.6246C45.2852 54.8095 44.4207 55.1455 44.5383 55.5363C44.7159 56.0572 45.3218 56.0103 45.7423 55.8879C46.382 55.669 46.9911 55.3696 47.5549 54.9971L46.3038 54.3042Z" fill="#473F47"/>
<path d="M47.3747 52.9784C48.8764 51.8844 49.66 51.0769 51.3471 50.0532C51.7467 49.811 52.0236 49.738 52.7183 50.0115C53.3112 50.2434 53.2407 51.2592 52.9247 51.6838C51.9531 52.9549 48.2235 54.7105 47.4609 54.9762C47.1344 55.0908 45.9826 54.1245 46.4501 53.6608C46.7417 53.4118 47.0507 53.1838 47.3747 52.9784Z" fill="#473F47"/>
<path d="M46.68 55.0856C46.9104 55.3844 47.1732 55.657 47.4635 55.8983C47.9859 56.289 48.3228 56.4193 48.7354 56.2291C49.3361 55.9504 48.7851 55.3643 48.3202 54.8981C47.9655 54.5289 47.5684 54.2028 47.137 53.9265L46.68 55.0856Z" fill="#473F47"/>
<path d="M46.7582 53.6478L47.3981 54.1688C47.5306 54.2785 47.6436 54.4097 47.7324 54.5569C47.9413 54.945 47.21 55.7368 46.753 55.2706C46.2959 54.8043 45.865 54.3068 45.865 54.3068L46.7582 53.6478Z" fill="#FCA89E"/>
<path d="M44.8465 54.4813C43.1018 53.6061 42.031 53.2883 40.9106 51.7125C40.7722 51.5108 40.6754 51.2839 40.6256 51.0447C40.5758 50.8054 40.5741 50.5588 40.6206 50.3189C40.7565 49.9152 41.3467 49.6729 42.0441 49.8396C42.6291 49.9777 46.5493 53.0409 47.1605 53.6192C47.4217 53.8796 46.6225 55.1117 45.9617 54.8981C45.578 54.7934 45.2047 54.6539 44.8465 54.4813Z" fill="#473F47"/>
<path d="M48.4376 37.8707C48.3692 38.0324 48.2699 38.1793 48.1451 38.3031C47.8888 38.5502 47.5605 38.7098 47.2075 38.7589C46.6849 38.8028 46.1589 38.7853 45.6404 38.7068C45.6283 38.7899 45.5934 38.8679 45.5394 38.9323C45.4855 38.9967 45.4146 39.0449 45.3348 39.0715C45.4134 39.432 45.5181 39.7863 45.6483 40.1316C45.7736 40.4729 45.9564 40.7854 46.0949 41.1189C45.6665 40.8245 45.3401 40.3218 45.0293 39.9155C44.8622 39.7229 44.7288 39.5036 44.6349 39.2669C44.5873 39.1485 44.5689 39.0205 44.5811 38.8936C44.5934 38.7667 44.636 38.6446 44.7054 38.5375C44.7762 38.4657 44.8337 38.3819 44.8752 38.2901C44.8909 38.211 44.8909 38.1296 44.8752 38.0504C44.8698 37.8609 44.9069 37.6725 44.9837 37.4991C45.0605 37.3256 45.1751 37.1714 45.3192 37.0476C45.6098 36.8007 45.9527 36.6226 46.3221 36.5267C46.638 36.4173 46.9746 36.3808 47.3067 36.4199C47.5768 36.4876 47.8249 36.6233 48.0275 36.8139C48.23 37.0045 48.3802 37.2437 48.4637 37.5087C48.4905 37.6293 48.4814 37.7551 48.4376 37.8707Z" fill="#473F47"/>
<path d="M45.4916 40.1863C45.4359 40.1958 45.3827 40.2164 45.3351 40.2468C45.2875 40.2772 45.2466 40.3169 45.2148 40.3635C45.1971 40.3997 45.1869 40.4391 45.1847 40.4794C45.1824 40.5196 45.1882 40.5599 45.2017 40.5979C45.2298 40.6736 45.2704 40.744 45.3218 40.8063C45.3486 40.8434 45.3812 40.876 45.4185 40.9027C45.4829 40.939 45.5561 40.957 45.63 40.9548H45.7998C45.8293 40.9547 45.8582 40.9466 45.8834 40.9313C45.9098 40.9104 45.9298 40.8824 45.9408 40.8506C45.9799 40.7312 45.9799 40.6026 45.9408 40.4833C45.9149 40.3713 45.86 40.268 45.7815 40.1837C45.7084 40.116 45.5882 40.1603 45.4916 40.1863Z" fill="#FCA89E"/>
<path d="M52.9141 38.9517H51.8511C51.6723 38.9517 51.5273 39.0963 51.5273 39.2747V41.9159C51.5273 42.0943 51.6723 42.2389 51.8511 42.2389H52.9141C53.093 42.2389 53.238 42.0943 53.238 41.9159V39.2747C53.238 39.0963 53.093 38.9517 52.9141 38.9517Z" fill="#473F47"/>
<path d="M44.9353 42.1425L41.1039 38.4776L39.5185 34.3204L38.2414 34.5653L39.7536 39.4075L44.0369 45.2552L44.9353 42.1425Z" fill="#4E95F3"/>
<path opacity="0.18" d="M73.0482 35.5551C75.7614 35.5551 77.9609 33.3615 77.9609 30.6555C77.9609 27.9495 75.7614 25.7559 73.0482 25.7559C70.335 25.7559 68.1355 27.9495 68.1355 30.6555C68.1355 33.3615 70.335 35.5551 73.0482 35.5551Z" fill="#4E95F3"/>
<path d="M72.223 34.1954L72.3562 33.3124C71.8831 33.2439 71.4388 33.0445 71.0738 32.7367L71.3663 32.1819C71.7061 32.475 72.1231 32.6648 72.5677 32.7289C73.1919 32.8227 73.662 32.5231 73.7352 32.0256C73.8083 31.5281 73.5079 31.1999 72.8968 30.843C72.0532 30.3638 71.5596 29.8819 71.6745 29.1239C71.7894 28.3659 72.3744 27.9257 73.1998 27.9101L73.333 27.0297L73.8762 27.113L73.7482 27.957C74.1467 28.0192 74.523 28.1804 74.8425 28.4258L74.5422 28.9806C74.238 28.7352 73.8722 28.5775 73.4844 28.5248C72.8106 28.4232 72.4972 28.7853 72.4397 29.1395C72.3718 29.5928 72.6643 29.8689 73.3774 30.2934C74.2262 30.7883 74.6127 31.3067 74.503 32.0855C74.3986 32.7732 73.8266 33.3514 72.9046 33.3697L72.7688 34.2735L72.223 34.1954Z" fill="#4E95F3"/>
<path d="M33.1692 39.3231L17.421 42.4757L18.3231 46.9577L34.0713 43.8051L33.1692 39.3231Z" fill="#4E95F3"/>
<path d="M64.5695 38.4679L64.4322 39.4087L71.3691 40.4155L71.5064 39.4747L64.5695 38.4679Z" fill="#4E95F3"/>
<path d="M72.2888 39.5915L72.1515 40.5323L78.0106 41.3827L78.1479 40.4418L72.2888 39.5915Z" fill="#4E95F3"/>
<path d="M64.2877 40.4061L64.1504 41.3469L69.3944 42.108L69.5317 41.1672L64.2877 40.4061Z" fill="#4E95F3"/>
<path d="M70.1533 41.2577L70.016 42.1985L73.6834 42.7308L73.8207 41.79L70.1533 41.2577Z" fill="#4E95F3"/>
<path d="M74.8217 41.9367L74.6844 42.8775L77.7315 43.3198L77.8688 42.3789L74.8217 41.9367Z" fill="#4E95F3"/>
<path d="M64.0067 42.3504L63.8694 43.2913L71.256 44.3633L71.3933 43.4225L64.0067 42.3504Z" fill="#4E95F3"/>
<path d="M72.3974 43.2366L72.2639 44.178L77.6972 44.9444L77.8307 44.003L72.3974 43.2366Z" fill="#4E95F3"/>
<path d="M63.7222 44.2874L63.5849 45.2282L77.164 47.1991L77.3013 46.2582L63.7222 44.2874Z" fill="#4E95F3"/>
<path d="M52.7 40.4494C52.7216 40.3175 52.7833 40.1953 52.8767 40.0993C52.9701 40.0034 53.0907 39.9383 53.2224 39.9129C53.3534 39.8906 53.4877 39.8977 53.6155 39.9338C53.7434 39.9698 53.8616 40.0339 53.9615 40.1212C54.0889 40.2273 54.1802 40.3702 54.2227 40.5302C54.2515 40.6979 54.2408 40.87 54.1913 41.0329C54.1465 41.2653 54.0579 41.4872 53.9302 41.6867C53.669 42.0566 53.0526 42.1868 52.862 41.6867C52.8402 41.5253 52.8341 41.3622 52.8437 41.1996C52.8332 40.9443 52.6739 40.7125 52.7 40.4494Z" fill="#FCA89E"/>
<path d="M49.417 41.9498C49.4535 41.7336 49.6494 41.7857 50.0438 41.9889C51.0034 42.5184 51.8938 43.164 52.6947 43.9112C52.7495 43.0438 52.7652 42.1712 52.7417 41.3064C53.3398 41.2674 53.6846 41.4054 54.2487 41.6112C54.301 42.859 54.1806 44.108 53.8909 45.323C53.7812 45.745 53.6297 46.2268 53.2066 46.3649C52.6843 46.5394 52.2168 46.0836 51.7597 45.797C51.3444 45.5366 50.6654 45.5209 50.3337 45.1667C50.0725 44.9062 50.0438 44.3853 49.9471 44.0518C49.7852 43.4892 49.5684 42.9188 49.4535 42.3457C49.4206 42.2165 49.4082 42.0829 49.417 41.9498Z" fill="#4E95F3"/>
</g>
<defs>
<linearGradient id="paint0_linear" x1="47.2702" y1="39.4258" x2="46.5583" y2="45.4692" gradientUnits="userSpaceOnUse">
<stop offset="0.01"/>
<stop offset="0.08" stop-opacity="0.69"/>
<stop offset="0.21" stop-opacity="0.32"/>
<stop offset="1" stop-opacity="0"/>
</linearGradient>
<clipPath id="clip0">
<rect width="95" height="79" fill="white"/>
</clipPath>
</defs>
</svg>
