<svg width="102" height="77" viewBox="0 0 102 77" fill="none" xmlns="http://www.w3.org/2000/svg">
<g clip-path="url(#clip0)">
<path opacity="0.18" d="M0.0999245 60.1745C0.202589 61.009 0.383598 61.8324 0.640623 62.6339C2.03022 66.9878 5.52042 70.7688 9.60269 73.1162C14.3392 75.8421 18.3269 77.0011 22.4145 77.0011C24.4971 76.9812 26.5699 76.7173 28.5893 76.2151C28.8597 76.1538 29.13 76.0845 29.4004 76.0153C30.0816 75.8376 30.7773 75.6404 31.4874 75.4237L32.3499 75.1573L32.7878 75.0134C33.3745 74.8189 33.9693 74.6137 34.5802 74.3952L35.5048 74.0595C38.4949 72.959 41.3741 71.4242 44.3128 70.1693C47.0163 69.0128 49.7874 68.0936 52.7288 67.9763C60.139 67.6806 66.7437 72.5327 74.0539 73.777C82.8321 75.2692 92.1673 71.0459 97.285 63.8543C97.5391 63.499 97.7815 63.1366 98.0122 62.7671C98.0825 62.6579 98.1501 62.546 98.2177 62.4367C98.3988 62.141 98.5719 61.8452 98.7368 61.5441C98.8125 61.4082 98.8855 61.2777 98.9585 61.1311C99.0315 60.9846 99.1153 60.83 99.191 60.6781L99.2099 60.6408C99.2883 60.4889 99.3613 60.3371 99.4343 60.1825C100.111 58.747 100.653 57.2541 101.056 55.7221C102.535 50.0932 102.243 44.1544 100.218 38.693C100.038 38.2045 99.8407 37.7222 99.6262 37.2461C98.5827 34.8853 97.1579 32.6764 95.1925 30.9951C91.2238 27.5951 85.6789 26.7798 80.91 24.6002C78.6112 23.5225 76.4497 22.1809 74.4702 20.6034C67.5223 15.1757 62.0342 7.54711 54.2076 3.30249C50.8551 1.50917 47.1582 0.428971 43.3558 0.131682C36.9737 -0.387722 30.5859 1.06514 25.0802 4.28837C21.5143 6.37471 18.1728 8.81277 15.2827 15.3302C13.685 18.9327 12.2278 23.7795 10.9409 30.5182C10.7899 31.2984 10.5977 32.0704 10.3651 32.831C8.65377 38.4532 4.8851 43.7956 2.38978 49.3085C1.12184 52.1116 0.186436 54.96 0.0188195 57.9097C-0.0239203 58.6655 0.00322693 59.4236 0.0999245 60.1745Z" fill="#4E95F3"/>
<path d="M30.7333 62.4755C31.2875 62.5182 32.0093 62.7234 32.0175 63.2749C32.0256 63.8265 31.3659 64.0396 30.8414 64.1329L26.6321 64.8656C26.1414 64.9307 25.6604 65.0532 25.1993 65.2307C24.7667 65.4199 24.3882 65.6996 23.9665 65.9208C23.1161 66.3464 22.1811 66.582 21.2278 66.6109C20.3438 66.6562 19.4543 66.8188 18.5568 66.8614C16.5649 66.9144 14.5726 66.7724 12.6091 66.4377C12.0482 66.3931 11.5038 66.2286 11.014 65.9554C10.6147 65.7041 10.3209 65.3189 10.1868 64.871L12.3847 64.0583C12.8386 63.9303 13.2536 63.6942 13.5932 63.3708C13.7202 63.2296 13.8176 63.0617 13.9446 62.9205C14.4231 62.3876 15.2153 62.313 15.929 62.2677C18.3946 62.1105 20.7953 61.8787 23.2608 61.9746C25.7264 62.0705 28.238 62.273 30.7333 62.4755Z" fill="url(#paint0_linear)"/>
<path d="M32.8636 41.4603C31.9661 41.3164 31.0658 41.1725 30.1602 41.1086C26.1679 40.8444 22.2276 42.1188 19.1705 44.6631C19.0198 44.7621 18.9141 44.915 18.8758 45.0894C18.8542 45.3772 19.1786 45.5611 19.4516 45.665C23.9861 47.3986 28.7659 48.4287 33.6206 48.7185C33.9438 48.7139 34.2641 48.7794 34.5587 48.9104C35.6672 49.5126 34.9453 51.2392 35.4266 52.3956C35.8753 53.4614 37.2325 53.7865 38.3842 54.0609C42.9801 55.1667 47.0164 57.9086 51.5475 59.2648C55.8433 60.5544 60.4176 60.5518 64.8405 61.3245C66.6275 61.6362 68.4254 62.0786 70.234 61.932C73.2078 61.6922 75.8005 59.9149 78.1012 58.0418C78.2839 57.9215 78.4231 57.747 78.4986 57.5435C78.5878 57.1758 78.2634 56.8481 77.9579 56.6109C74.7137 54.0423 70.9288 52.2064 67.198 50.3892C65.5975 49.6112 63.9781 48.8251 62.2344 48.4388C60.542 48.0631 58.7739 48.0737 57.0977 47.6394C55.3675 47.1918 53.8022 46.2938 52.172 45.5717C46.1216 42.8992 39.3331 42.4942 32.8636 41.4603Z" fill="url(#paint1_linear)"/>
<path d="M24.3557 36.9599L37.4028 32.0678C38.0054 31.8357 38.554 31.4856 39.0154 31.0386C39.4768 30.5916 39.8415 30.057 40.0873 29.4672C40.3928 28.7584 40.874 28.1216 41.6094 28.1829C43.2126 28.3134 40.4712 22.0864 40.4712 22.0864L32.0904 24.7882L24.3557 36.9599Z" fill="#4E95F3"/>
<path d="M24.3557 36.9599L37.4028 32.0678C38.0054 31.8357 38.554 31.4856 39.0154 31.0386C39.4768 30.5916 39.8415 30.057 40.0873 29.4672C40.3928 28.7584 40.874 28.1216 41.6094 28.1829C43.2126 28.3134 40.4712 22.0864 40.4712 22.0864L32.0904 24.7882L24.3557 36.9599Z" fill="url(#paint2_linear)"/>
<path d="M42.4664 39.0409C42.5529 37.4875 43.4667 36.0939 43.7506 34.5645C44.2913 31.6628 42.4853 28.8091 40.3009 26.792C38.9843 25.5743 37.3568 24.4845 35.5509 24.5271C32.8041 24.5911 30.8522 27.1704 29.7357 29.6457C28.6191 32.1211 27.7594 34.9215 25.5318 36.5069C25.2024 36.7823 24.7875 36.9384 24.3557 36.9492C23.6826 36.9119 23.1986 36.3071 22.8823 35.7209C22.114 34.2776 21.8041 32.6398 21.9929 31.0206C22.2173 29.1554 23.0743 27.1304 22.1416 25.489C21.0061 23.5013 18.062 23.5386 15.883 24.3113L33.088 18.3267C33.088 18.3267 35.0102 17.8205 36.1348 19.3259C37.4028 21.0259 36.4052 23.1496 36.4052 23.1496L44.6644 19.9521C45.7544 19.5275 46.9256 19.3433 48.0956 19.4126C49.2656 19.4818 50.406 19.8027 51.4366 20.3528C52.4673 20.9029 53.3633 21.6687 54.0615 22.5966C54.7598 23.5244 55.2434 24.5918 55.4783 25.7235C55.4783 25.7955 55.5081 25.8674 55.5216 25.942L56.9328 33.2722V34.8709L42.4664 39.0409Z" fill="#4E95F3"/>
<path d="M42.4664 39.0409C42.5529 37.4875 43.4667 36.0939 43.7506 34.5645C44.2913 31.6628 42.4853 28.8091 40.3009 26.792C38.9843 25.5743 37.3568 24.4845 35.5509 24.5271C32.8041 24.5911 30.8522 27.1704 29.7357 29.6457C28.6191 32.1211 27.7594 34.9215 25.5318 36.5069C25.2024 36.7823 24.7875 36.9384 24.3557 36.9492C23.6826 36.9119 23.1986 36.3071 22.8823 35.7209C22.114 34.2776 21.8041 32.6398 21.9929 31.0206C22.2173 29.1554 23.0743 27.1304 22.1416 25.489C21.0061 23.5013 18.062 23.5386 15.883 24.3113L33.088 18.3267C33.088 18.3267 35.0102 17.8205 36.1348 19.3259C37.4028 21.0259 36.4052 23.1496 36.4052 23.1496L44.6644 19.9521C45.7544 19.5275 46.9256 19.3433 48.0956 19.4126C49.2656 19.4818 50.406 19.8027 51.4366 20.3528C52.4673 20.9029 53.3633 21.6687 54.0615 22.5966C54.7598 23.5244 55.2434 24.5918 55.4783 25.7235C55.4783 25.7955 55.5081 25.8674 55.5216 25.942L56.9328 33.2722V34.8709L42.4664 39.0409Z" fill="url(#paint3_linear)"/>
<path d="M39.8629 44.3274C39.6448 45.1074 39.5733 45.9201 39.6521 46.7255C39.844 48.0578 40.7118 49.1822 41.5715 50.224C42.4313 51.2659 43.3775 52.3557 44.6022 53.0111C45.4146 53.4324 46.3187 53.6525 47.2367 53.6525C48.1547 53.6525 49.0589 53.4324 49.8713 53.0111C50.2687 52.8006 50.6634 52.5342 51.1149 52.5262C51.49 52.5518 51.8526 52.67 52.1692 52.8699C57.2383 55.5345 71.1504 62.7048 72.3481 60.0269C73.2862 57.9326 71.9831 56.2379 71.2153 54.9643C71.0855 54.7484 70.945 54.5299 70.8017 54.3114C66.5707 47.9965 55.5162 40.7516 45.4862 37.2877C44.6752 37.0026 44.2318 36.6988 43.4559 37.0638C42.7476 37.3969 42.1393 38.3668 41.7527 39.0036C40.8443 40.4878 40.3847 42.2011 39.9738 43.8797C39.9251 44.021 39.9008 44.1755 39.8629 44.3274Z" fill="#4E95F3"/>
<path d="M39.8629 44.3274C39.6448 45.1074 39.5733 45.9201 39.6521 46.7255C39.844 48.0578 40.7118 49.1822 41.5715 50.224C42.4313 51.2659 43.3775 52.3557 44.6022 53.0111C45.4146 53.4324 46.3187 53.6525 47.2367 53.6525C48.1547 53.6525 49.0589 53.4324 49.8713 53.0111C50.2687 52.8006 50.6634 52.5342 51.1149 52.5262C51.49 52.5518 51.8526 52.67 52.1692 52.8699C57.2383 55.5345 71.1504 62.7048 72.3481 60.0269C73.2862 57.9326 71.9831 56.2379 71.2153 54.9643C71.0855 54.7484 70.945 54.5299 70.8017 54.3114C66.5707 47.9965 55.5162 40.7516 45.4862 37.2877C44.6752 37.0026 44.2318 36.6988 43.4559 37.0638C42.7476 37.3969 42.1393 38.3668 41.7527 39.0036C40.8443 40.4878 40.3847 42.2011 39.9738 43.8797C39.9251 44.021 39.9008 44.1755 39.8629 44.3274Z" fill="url(#paint4_linear)"/>
<path d="M44.0534 36.808C44.1805 36.8666 60.4987 44.3114 71.2127 54.9562L71.3614 54.8816L85.7521 47.5195C85.7521 47.5195 74.8002 37.2583 60.7421 30.8528C60.4234 30.7123 60.079 30.6372 59.73 30.6322C59.3809 30.6272 59.0344 30.6922 58.7117 30.8235L44.3319 36.6935L44.0534 36.808Z" fill="#4E95F3"/>
<path d="M72.2751 38.6706C74.2676 39.5685 79.9557 43.7865 83.7947 47.1598L71.602 53.3176C68.9985 50.653 63.0454 46.2778 60.2203 44.426C65.3569 42.6381 69.5527 40.621 72.2751 38.6706Z" fill="url(#paint5_linear)"/>
<path d="M72.8103 39.5711C73.5698 39.9614 74.2825 40.4342 74.9353 40.9807L72.6914 42.0705C72.0549 41.5136 71.3732 41.0092 70.653 40.5623L72.8103 39.5711Z" fill="white"/>
<path d="M70.0257 40.9034C70.7857 41.2928 71.4986 41.7657 72.1507 42.313L69.9068 43.4028C69.2703 42.8459 68.5886 42.3415 67.8683 41.8947L70.0257 40.9034Z" fill="white"/>
<path d="M67.2304 42.2357C67.9904 42.6251 68.7033 43.0979 69.3554 43.6453L67.1115 44.7351C66.4744 44.1782 65.7927 43.673 65.0731 43.2243L67.2304 42.2357Z" fill="white"/>
<path d="M64.4566 43.568C65.2161 43.9571 65.9289 44.429 66.5816 44.9748L64.3377 46.0673C63.7013 45.5096 63.0195 45.0043 62.2993 44.5565L64.4566 43.568Z" fill="white"/>
<path d="M75.3733 41.4896C76.132 41.8801 76.8446 42.3519 77.4982 42.8965L75.2516 43.989C74.6157 43.4307 73.9339 42.9253 73.2132 42.4782L75.3733 41.4896Z" fill="white"/>
<path d="M72.5887 42.8219C73.3474 43.2123 74.06 43.6842 74.7136 44.2288L72.467 45.3212C71.8311 44.7629 71.1493 44.2576 70.4286 43.8104L72.5887 42.8219Z" fill="white"/>
<path d="M69.8041 44.1541C70.5628 44.5446 71.2755 45.0164 71.9291 45.561L69.6825 46.6508C69.0459 46.0942 68.3641 45.5898 67.644 45.1427L69.8041 44.1541Z" fill="white"/>
<path d="M67.0195 45.4864C67.7782 45.8769 68.4909 46.3487 69.1445 46.8933L66.8979 47.9831C66.2612 47.4265 65.5795 46.9221 64.8594 46.475L67.0195 45.4864Z" fill="white"/>
<path d="M77.9335 43.4134C78.6936 43.8016 79.4065 44.2736 80.0585 44.8203L77.8146 45.9101C77.1779 45.3535 76.4962 44.8491 75.7761 44.402L77.9335 43.4134Z" fill="white"/>
<path d="M75.149 44.7457C75.909 45.1339 76.6219 45.6058 77.2739 46.1526L75.03 47.2424C74.3936 46.6855 73.7118 46.1811 72.9916 45.7342L75.149 44.7457Z" fill="white"/>
<path d="M72.3671 46.0753C73.1265 46.4656 73.8392 46.9384 74.492 47.4849L72.2481 48.5747C71.6116 48.0178 70.9299 47.5134 70.2097 47.0665L72.3671 46.0753Z" fill="white"/>
<path d="M69.5797 47.4076C70.3397 47.7969 71.0526 48.2698 71.7047 48.8171L69.4608 49.9069C68.8243 49.35 68.1426 48.8456 67.4224 48.3988L69.5797 47.4076Z" fill="white"/>
<path d="M80.4964 45.3319C81.2557 45.7225 81.9684 46.1952 82.6213 46.7414L80.3774 47.8312C79.7406 47.2737 79.0578 46.7693 78.3363 46.3231L80.4964 45.3319Z" fill="white"/>
<path d="M77.7119 46.6642C78.4706 47.0546 79.1832 47.5264 79.8368 48.071L77.5929 49.1635C76.9561 48.6051 76.2734 48.0998 75.5518 47.6527L77.7119 46.6642Z" fill="white"/>
<path d="M74.9273 47.9964C75.686 48.3869 76.3986 48.8587 77.0522 49.4033L74.8083 50.4958C74.171 49.9381 73.4883 49.4328 72.7672 48.985L74.9273 47.9964Z" fill="white"/>
<path d="M72.1426 49.3287C72.8984 49.7196 73.6083 50.1914 74.2594 50.7356L72.0155 51.828C71.3782 51.2703 70.6955 50.765 69.9744 50.3173L72.1426 49.3287Z" fill="white"/>
<path d="M47.6788 36.3976L48.2817 36.6641C51.8855 38.3241 56.0191 40.8714 59.1173 43.099L69.8583 38.0763L70.399 37.8258C67.39 35.4997 63.2212 33.2055 59.6986 31.6548L47.6788 36.3976Z" fill="url(#paint6_linear)"/>
<path d="M59.6957 31.6601L59.5632 32.2223L69.8581 38.0843L70.3988 37.8339C67.1546 35.1906 63.5455 33.3601 59.6957 31.6601Z" fill="url(#paint7_linear)"/>
<path d="M48.2816 36.6695C51.8854 38.3295 56.019 40.8768 59.1172 43.1043L69.8582 38.0817C66.614 35.9047 62.6128 33.536 59.5633 32.2197L48.2816 36.6695Z" fill="url(#paint8_linear)"/>
<path d="M71.5316 60.613L86.5279 53.8984C86.5279 53.8984 89.3233 51.5696 85.7547 47.5195L71.2153 54.9562C71.2153 54.9562 74.0432 59.001 71.5316 60.613Z" fill="#4E95F3"/>
<path d="M9.33512 53.1097L8.74036 43.3148C8.74407 43.0162 8.86294 42.7303 9.07284 42.515C9.28273 42.2997 9.5679 42.1713 9.87042 42.1557L28.4785 40.3252C28.623 40.3006 28.7709 40.3053 28.9135 40.3389C29.056 40.3724 29.1901 40.4342 29.3077 40.5204C29.4253 40.6067 29.5238 40.7155 29.5974 40.8404C29.671 40.9654 29.718 41.1037 29.7357 41.2471L30.3331 51.0446C30.3294 51.3429 30.2104 51.6286 30.0005 51.8434C29.7905 52.0583 29.5054 52.1862 29.2031 52.201L10.5922 54.0316C10.4478 54.0561 10.2999 54.0514 10.1573 54.0179C10.0148 53.9843 9.88066 53.9225 9.76309 53.8363C9.64552 53.7501 9.54696 53.6412 9.47339 53.5163C9.39982 53.3914 9.35278 53.253 9.33512 53.1097Z" fill="#4E95F3"/>
<path opacity="0.58" d="M29.7574 41.6042L30.3549 51.4017C30.3616 51.4708 30.3616 51.5404 30.3549 51.6095C30.2971 51.8655 30.1569 52.0962 29.9552 52.2672C29.7535 52.4381 29.501 52.5402 29.2356 52.5581L10.6194 54.3887C10.4756 54.414 10.328 54.4104 10.1857 54.378C10.0433 54.3457 9.90907 54.2852 9.79108 54.2003C9.67309 54.1154 9.57377 54.0078 9.49914 53.884C9.42451 53.7602 9.3761 53.6228 9.35683 53.48L9.08649 48.9929L8.76477 43.6852C8.76844 43.3871 8.88694 43.1015 9.09626 42.8863C9.30559 42.671 9.59009 42.5423 9.89213 42.5261L28.5003 40.6902C29.1599 40.6183 29.7222 41.0286 29.7574 41.6042Z" fill="url(#paint9_linear)"/>
<path d="M29.4383 42.1637C29.468 42.1211 29.5005 42.0758 29.5356 42.0331C29.5708 41.9905 29.6005 41.9559 29.6492 41.9612C29.6687 41.9653 29.6872 41.9735 29.7032 41.9852C29.7393 42.0192 29.767 42.0609 29.7844 42.1071C29.8017 42.1532 29.8081 42.2027 29.8033 42.2516C29.8033 42.3556 29.76 42.4541 29.7438 42.5581L29.9925 42.4701C30.0475 42.4448 30.1076 42.4321 30.1682 42.4328C30.2327 42.4425 30.2915 42.4747 30.3337 42.5237C30.3759 42.5727 30.3988 42.635 30.398 42.6993C30.3949 42.8277 30.3504 42.9518 30.271 43.0537C30.3184 43.1 30.3504 43.1596 30.3625 43.2244C30.3745 43.2892 30.3662 43.3561 30.3386 43.416C30.2847 43.5368 30.2055 43.6449 30.1061 43.7331C30.1317 43.755 30.1526 43.7817 30.1675 43.8117C30.1824 43.8417 30.191 43.8743 30.1927 43.9077C30.1945 43.941 30.1894 43.9744 30.1778 44.0057C30.1661 44.0371 30.1482 44.0658 30.125 44.0902C30.1095 44.1028 30.0967 44.1181 30.0871 44.1355C30.0871 44.1648 30.0871 44.1941 30.1034 44.2207C30.1196 44.2474 30.052 44.3406 29.9979 44.3806C29.914 44.4449 29.8233 44.5003 29.7276 44.5458C29.5298 44.6179 29.3188 44.6479 29.1085 44.6337H28.0433C27.9904 44.6426 27.9361 44.6385 27.8851 44.6217C27.8342 44.605 27.7883 44.5762 27.7513 44.5378C27.7233 44.4874 27.711 44.4299 27.7162 44.3726C27.7255 44.1923 27.7715 44.0156 27.8513 43.853C27.8963 43.686 27.9616 43.5249 28.046 43.3734C28.0917 43.3085 28.1473 43.251 28.2109 43.2029C28.2978 43.1671 28.3885 43.1412 28.4813 43.1256C28.7279 43.0354 28.939 42.8702 29.0841 42.654C29.222 42.5101 29.322 42.3316 29.4383 42.1637Z" fill="#FCBDBA"/>
<path opacity="0.58" d="M30.0682 47.1225L30.3385 51.6096C30.2808 51.8655 30.1406 52.0962 29.9389 52.2672C29.7371 52.4382 29.4847 52.5402 29.2193 52.5581L10.6192 54.3887C10.4754 54.4141 10.3279 54.4105 10.1855 54.3781C10.0432 54.3457 9.90895 54.2852 9.79096 54.2003C9.67296 54.1154 9.57365 54.0078 9.49902 53.884C9.42439 53.7602 9.37598 53.6228 9.35671 53.4801L9.08636 48.993C9.14409 48.737 9.28429 48.5063 9.48601 48.3353C9.68774 48.1644 9.94018 48.0623 10.2056 48.0444L28.8164 46.2138C28.9607 46.1897 29.1084 46.1947 29.2506 46.2284C29.3928 46.2622 29.5266 46.324 29.6438 46.4102C29.7611 46.4964 29.8594 46.6051 29.9328 46.7299C30.0062 46.8546 30.0532 46.9927 30.0709 47.1358L30.0682 47.1225Z" fill="url(#paint10_linear)"/>
<path opacity="0.58" d="M29.1112 44.6471C29.1112 44.6471 24.599 46.3497 22.7336 45.4464L21.9658 50.0934L17.1347 49.3473C17.1347 49.3473 16.3237 41.9985 15.883 41.5642L18.8055 41.2764L25.2181 43.4587L29.1112 44.6471Z" fill="url(#paint11_linear)"/>
<path d="M10.3815 48.135L10.2544 46.0194C10.2556 45.8542 10.3211 45.6958 10.4372 45.5769C10.5534 45.4579 10.7115 45.3874 10.8789 45.3799L13.8014 45.0921C13.8814 45.0785 13.9633 45.0811 14.0422 45.0998C14.1211 45.1185 14.1954 45.1528 14.2604 45.2007C14.3254 45.2485 14.3798 45.309 14.4204 45.3783C14.4609 45.4475 14.4867 45.5243 14.4962 45.6037L14.6259 47.7113C14.6234 47.8768 14.5573 48.0351 14.4408 48.1543C14.3244 48.2736 14.1664 48.3447 13.9987 48.3535L11.079 48.6386C10.9994 48.6522 10.9179 48.6499 10.8393 48.6317C10.7607 48.6136 10.6867 48.58 10.6216 48.533C10.5564 48.486 10.5016 48.4265 10.4604 48.3581C10.4191 48.2897 10.3923 48.2138 10.3815 48.135Z" fill="#FDB523"/>
<path d="M14.5664 46.9626L14.5853 47.3063L13.366 47.4262C13.3552 47.501 13.3275 47.5723 13.2849 47.635C13.2423 47.6978 13.186 47.7503 13.12 47.7886L13.0795 47.8099H13.0362C12.9362 47.8099 12.063 47.9299 11.8224 47.9272C11.7156 47.9127 11.6143 47.8715 11.5282 47.8077C11.4421 47.7438 11.374 47.6593 11.3303 47.5621L10.3598 47.6554L10.3381 47.3117L11.6007 47.1864L11.6547 47.309C11.7088 47.4449 11.8088 47.5755 11.8575 47.5755C12.0035 47.5755 12.5631 47.5168 12.9389 47.4689C12.9562 47.4443 12.9678 47.4163 12.9729 47.3869C12.978 47.3574 12.9766 47.3272 12.9686 47.2984L12.9389 47.1118L14.5664 46.9626Z" fill="#EFA92B"/>
<path d="M14.5258 46.3178L14.5042 45.9714L13.2876 46.0913C13.2675 46.021 13.2308 45.9563 13.1806 45.9026C13.1303 45.8489 13.0678 45.8076 12.9983 45.7822L12.9578 45.7689H12.9118C12.8118 45.7689 11.9277 45.8435 11.7006 45.8888C11.5959 45.9259 11.5019 45.9875 11.4266 46.0682C11.3512 46.149 11.2969 46.2465 11.2681 46.3524L10.3002 46.4483L10.3192 46.7921L11.5844 46.6695L11.6168 46.5389C11.641 46.4214 11.7003 46.3138 11.7872 46.2299C11.9277 46.1979 12.4901 46.1526 12.8685 46.1233C12.888 46.1454 12.9026 46.1713 12.9114 46.1993C12.9202 46.2272 12.9231 46.2567 12.9199 46.2858V46.4777L14.5258 46.3178Z" fill="#EFA92B"/>
<path d="M10.3274 47.0825L10.322 47.0079L14.5556 46.5922L14.561 46.6642L10.3274 47.0825Z" fill="#EFA92B"/>
<path d="M10.3949 48.2256L10.3922 48.1536L14.6259 47.7353L14.6313 47.8099L10.3949 48.2256Z" fill="#EFA92B"/>
<path d="M10.2571 45.9394L10.2516 45.8648L14.4853 45.4491L14.4907 45.5211L10.2571 45.9394Z" fill="#EFA92B"/>
<path opacity="0.32" d="M11.2924 50.9647L13.7742 50.7303C13.8492 50.7182 13.9258 50.7213 13.9995 50.7393C14.0733 50.7572 14.1425 50.7897 14.2032 50.8348C14.2638 50.8799 14.3145 50.9366 14.3523 51.0015C14.3901 51.0664 14.4142 51.1382 14.423 51.2125V51.3244C14.4198 51.479 14.3572 51.6266 14.2478 51.7374C14.1384 51.8482 13.9904 51.9139 13.8337 51.9213L11.3546 52.1558C11.2798 52.1678 11.2034 52.1648 11.1298 52.147C11.0563 52.1292 10.9871 52.097 10.9265 52.0522C10.8659 52.0074 10.8151 51.951 10.7772 51.8864C10.7393 51.8218 10.715 51.7503 10.7057 51.6762V51.5643C10.7083 51.4097 10.7703 51.2618 10.8791 51.1505C10.988 51.0392 11.1358 50.9728 11.2924 50.9647Z" fill="#4E95F3"/>
<path opacity="0.32" d="M15.9668 50.7089L18.454 50.4825C18.5292 50.47 18.6062 50.4729 18.6803 50.4909C18.7543 50.5089 18.8238 50.5415 18.8846 50.587C18.9454 50.6324 18.9961 50.6895 19.0336 50.755C19.0711 50.8204 19.0947 50.8927 19.1029 50.9674V51.0793C19.0996 51.2343 19.0366 51.3823 18.9266 51.4931C18.8166 51.604 18.668 51.6694 18.5108 51.6762L16.0236 51.9027C15.9484 51.9147 15.8716 51.9115 15.7977 51.8934C15.7238 51.8753 15.6544 51.8425 15.5938 51.7972C15.5331 51.7519 15.4824 51.6948 15.4447 51.6296C15.4071 51.5644 15.3833 51.4923 15.3748 51.4177V51.3058C15.3774 51.1506 15.4402 51.0023 15.5503 50.8913C15.6604 50.7803 15.8094 50.7151 15.9668 50.7089Z" fill="#4E95F3"/>
<path opacity="0.32" d="M20.6953 50.216L23.1771 49.9815C23.2519 49.9695 23.3283 49.9725 23.4019 49.9903C23.4754 50.0081 23.5446 50.0403 23.6052 50.0851C23.6658 50.1299 23.7166 50.1863 23.7545 50.2509C23.7924 50.3155 23.8167 50.387 23.8259 50.4611V50.5731C23.8234 50.7276 23.7614 50.8755 23.6525 50.9868C23.5436 51.0981 23.3959 51.1645 23.2393 51.1726L20.7575 51.4071C20.6825 51.4191 20.6059 51.416 20.5321 51.3981C20.4584 51.3801 20.3892 51.3476 20.3285 51.3025C20.2679 51.2575 20.2172 51.2008 20.1794 51.1358C20.1416 51.0709 20.1175 50.9991 20.1086 50.9248V50.8129C20.1112 50.6585 20.1733 50.511 20.2822 50.4001C20.3912 50.2893 20.5389 50.2234 20.6953 50.216Z" fill="#4E95F3"/>
<path opacity="0.32" d="M25.3966 49.843L27.8784 49.6085C27.9532 49.5961 28.0298 49.5988 28.1035 49.6164C28.1772 49.6341 28.2465 49.6663 28.3072 49.7111C28.3679 49.756 28.4187 49.8125 28.4565 49.8774C28.4943 49.9422 28.5184 50.0139 28.5272 50.0881V50.2C28.5246 50.3548 28.4622 50.5027 28.3527 50.6137C28.2431 50.7246 28.0948 50.7901 27.9379 50.7969L25.4588 51.034C25.3838 51.0461 25.3072 51.043 25.2334 51.025C25.1597 51.0071 25.0905 50.9746 25.0298 50.9295C24.9692 50.8844 24.9184 50.8277 24.8807 50.7628C24.8429 50.6979 24.8188 50.6261 24.8099 50.5518V50.4398C24.8125 50.2855 24.8746 50.1379 24.9835 50.0271C25.0925 49.9162 25.2402 49.8504 25.3966 49.843Z" fill="#4E95F3"/>
<path d="M21.5955 48.6519C21.5955 48.6519 25.0208 53.7811 25.7264 55.4278C26.432 57.0745 26.87 62.0892 26.87 62.0892L25.2911 62.2384C25.2911 62.2384 24.8018 57.1891 24.0502 56.403C23.2987 55.617 19.1407 51.6149 19.1407 51.6149L21.5955 48.6519Z" fill="#473F47"/>
<path d="M21.8875 49.1608C21.8875 49.1608 20.1194 56.2006 19.2056 57.7647C18.2919 59.3287 15.7911 62.1718 15.7911 62.1718L14.4394 61.4604C14.4394 61.4604 17.9026 56.9813 17.7106 55.665C17.5187 54.3487 17.0266 49.3394 17.0266 49.3394C17.0266 49.3394 19.4706 48.0471 21.8875 49.1608Z" fill="#473F47"/>
<path d="M17.9701 39.2221C17.9701 39.2221 16.4264 39.9228 16.6183 41.6042C16.8103 43.2855 17.7376 47.0691 17.3402 48.1909C16.9427 49.3127 17.1293 49.3473 17.1293 49.3473C17.1293 49.3473 20.5789 50.6423 22.0172 49.1715C22.0172 49.1715 21.2873 41.6042 21.0034 40.6449C20.91 40.3478 20.7551 40.0729 20.5485 39.8378C20.3419 39.6026 20.0881 39.4121 19.8031 39.2784C19.5181 39.1447 19.208 39.0707 18.8926 39.061C18.5771 39.0513 18.263 39.1061 17.9701 39.2221Z" fill="white"/>
<path d="M18.2972 39.1555L15.7019 39.9815C15.2728 40.0838 14.8794 40.2973 14.5623 40.6C14.2452 40.9026 14.0161 41.2834 13.8987 41.7028L13.8824 41.7614L16.786 41.495L18.2972 39.1555Z" fill="white"/>
<path d="M20.9196 36.1605C20.998 36.2405 21.1008 36.3231 21.1008 36.427C21.0877 36.511 21.0523 36.5901 20.998 36.6561C20.7547 37.0665 20.9764 37.6473 20.6817 38.023C20.574 38.1543 20.426 38.2478 20.26 38.2895C20.0929 38.3129 19.931 38.3643 19.7815 38.4414C19.6699 38.5499 19.6058 38.6972 19.603 38.8517C19.5868 39.0382 19.6193 39.2247 19.603 39.4113C19.6074 39.4738 19.5953 39.5363 19.5678 39.5928C19.5403 39.6494 19.4984 39.6979 19.4462 39.7337C19.394 39.7553 19.3379 39.7661 19.2813 39.7656C18.9541 39.7795 18.6265 39.7544 18.3054 39.691C18.2596 39.6842 18.216 39.6669 18.1783 39.6404C18.139 39.5985 18.1143 39.5453 18.108 39.4885C17.9701 38.873 17.8377 38.2548 17.689 37.6393C17.6062 37.4174 17.5049 37.2026 17.3862 36.9972C17.2744 36.6883 17.2365 36.3583 17.2753 36.0326C17.3103 35.7884 17.3949 35.5537 17.524 35.3425C17.6279 35.1422 17.7801 34.9701 17.9674 34.8416C18.1059 34.7611 18.2552 34.7001 18.4108 34.6604C18.9515 34.4978 19.7869 34.2793 20.2519 34.7323C20.6412 35.1134 20.5168 35.7688 20.9196 36.1605Z" fill="#FCBDBA"/>
<path d="M18.6839 37.594C18.6482 37.5433 18.5971 37.505 18.5379 37.4848C18.4973 37.4715 18.4514 37.4661 18.4108 37.4528C18.3256 37.4181 18.2503 37.3632 18.1918 37.2929C18.1513 37.2529 18.1159 37.2082 18.0864 37.1597C18.051 37.0857 18.0354 37.004 18.0411 36.9224C18.0468 36.8408 18.0735 36.762 18.1188 36.6934C18.1652 36.6031 18.2402 36.5302 18.3324 36.4856C18.3791 36.4647 18.4306 36.4566 18.4815 36.4623C18.5324 36.4679 18.5809 36.487 18.6217 36.5176C18.6866 36.5709 18.7163 36.6535 18.7866 36.6988C18.8225 36.6584 18.8489 36.6107 18.8639 36.5591C18.8789 36.5075 18.882 36.4533 18.8731 36.4003C18.8731 36.2937 18.8217 36.1925 18.8028 36.0886C18.7741 35.9843 18.7695 35.8751 18.7893 35.7688C18.8136 35.6969 18.8974 35.6622 18.9677 35.6329C19.1362 35.5735 19.31 35.5298 19.4868 35.5024C19.9871 35.36 20.4374 35.0832 20.7872 34.703C20.8805 34.6255 20.9428 34.5179 20.9629 34.3992C20.9575 34.3311 20.9358 34.2652 20.8996 34.2068C20.8634 34.1485 20.8138 34.0994 20.7547 34.0635C20.5773 33.9529 20.3795 33.8779 20.1726 33.8427C19.9657 33.8075 19.7538 33.8128 19.549 33.8583C19.1413 33.9512 18.7388 34.065 18.3432 34.1994C17.9593 34.306 17.5646 34.3699 17.1861 34.4898C17.1057 34.5135 17.0292 34.5485 16.959 34.5938C16.8695 34.6641 16.7997 34.7558 16.7563 34.8602C16.6875 34.9954 16.6517 35.1446 16.6517 35.2959C16.6517 35.4471 16.6875 35.5963 16.7563 35.7315C16.7843 35.7709 16.8045 35.8153 16.8157 35.8621C16.8188 35.9099 16.8123 35.9579 16.7968 36.0033C16.7022 36.4083 16.9131 36.8187 17.1131 37.1864L17.6538 38.1509C17.7074 38.2673 17.7858 38.3709 17.8836 38.4547C17.9489 38.4934 18.0223 38.5168 18.0982 38.5233C18.1741 38.5298 18.2505 38.5191 18.3216 38.492C18.4378 38.452 18.6271 38.3561 18.6109 38.2255C18.6121 38.1872 18.6286 38.1508 18.6568 38.1243C18.7369 38.0257 18.7764 37.9012 18.7677 37.7752C18.7583 37.708 18.7292 37.6451 18.6839 37.594Z" fill="#473F47"/>
<path d="M13.3283 62.2731C13.2971 62.2938 13.2715 62.3218 13.2538 62.3545C13.2361 62.3873 13.2269 62.4238 13.2269 62.4609C13.2269 62.498 13.2361 62.5346 13.2538 62.5673C13.2715 62.6001 13.2971 62.628 13.3283 62.6488C13.9777 63.3406 14.7572 63.9016 15.6236 64.3008C15.8642 64.41 16.1913 64.49 16.3535 64.2848C16.5157 64.0796 16.3535 63.7679 16.2075 63.5334C16.0185 63.2212 15.9012 62.8719 15.8642 62.5102C15.8628 62.3849 15.8371 62.261 15.7885 62.1452C15.6209 61.8361 14.7855 61.5163 14.4367 61.519C13.9879 61.5217 13.6122 61.964 13.3283 62.2731Z" fill="#4E95F3"/>
<path d="M24.8748 63.3868C24.8661 63.4249 24.8652 63.4644 24.8721 63.5028C24.8791 63.5412 24.8938 63.5779 24.9153 63.6107C24.9639 63.6569 25.0266 63.6859 25.0937 63.6933C26.0292 63.8885 26.9941 63.903 27.9351 63.7359C28.2055 63.6906 28.511 63.568 28.5245 63.3069C28.538 63.0458 28.2136 62.8912 27.9622 62.774C27.6265 62.6213 27.3279 62.3996 27.0862 62.1239C27.0152 62.018 26.9233 61.9274 26.8159 61.8574C26.4969 61.7029 25.6263 61.9134 25.3452 62.1239C24.9694 62.393 24.9207 62.9685 24.8748 63.3868Z" fill="#4E95F3"/>
<path d="M20.6384 39.9495L23.0256 41.8653C23.7745 42.4649 24.8153 43.1043 25.7805 43.1043L28.3299 43.139L28.146 44.7644C28.146 44.7644 24.8072 45.4491 23.6123 44.7644L20.0977 42.7873C20.0977 42.7873 18.8839 40.2693 20.6384 39.9495Z" fill="white"/>
<path d="M49.8902 30.4371C49.8277 30.4376 49.767 30.4167 49.7183 30.3781C49.6697 30.3394 49.6361 30.2853 49.6234 30.225C49.6106 30.1647 49.6195 30.1019 49.6484 30.0473C49.6773 29.9927 49.7246 29.9496 49.7821 29.9255L54.2969 28.0337C54.3623 28.0093 54.4347 28.0108 54.4989 28.0378C54.5632 28.0649 54.6143 28.1154 54.6416 28.1788C54.6689 28.2423 54.6702 28.3136 54.6452 28.378C54.6203 28.4423 54.571 28.4946 54.5078 28.524L49.9957 30.4158C49.9621 30.4292 49.9264 30.4364 49.8902 30.4371Z" fill="#4E95F3"/>
<path d="M46.3351 31.9266C46.2726 31.9271 46.2119 31.9062 46.1632 31.8675C46.1146 31.8289 46.081 31.7748 46.0682 31.7145C46.0555 31.6541 46.0643 31.5913 46.0933 31.5367C46.1222 31.4821 46.1695 31.4391 46.227 31.415L48.1762 30.597C48.2422 30.5694 48.3165 30.5689 48.3829 30.5953C48.4493 30.6218 48.5023 30.6732 48.5303 30.7382C48.5583 30.8032 48.5588 30.8765 48.532 30.9419C48.5051 31.0074 48.453 31.0596 48.3871 31.0872L46.4406 31.8972C46.4076 31.9134 46.3718 31.9234 46.3351 31.9266Z" fill="#4E95F3"/>
<path d="M50.3904 27.6846C50.3281 27.6844 50.2678 27.6631 50.2196 27.6243C50.1714 27.5854 50.1384 27.5313 50.126 27.4711C50.1136 27.411 50.1226 27.3485 50.1516 27.2942C50.1805 27.2398 50.2277 27.197 50.2849 27.173L53.3534 25.886C53.4194 25.8581 53.4939 25.8571 53.5605 25.8834C53.6272 25.9096 53.6806 25.9609 53.7089 26.0259C53.7372 26.0909 53.7382 26.1643 53.7116 26.23C53.6849 26.2958 53.6329 26.3484 53.567 26.3763L50.4958 27.6632C50.4623 27.6767 50.4266 27.6839 50.3904 27.6846Z" fill="#4E95F3"/>
<path d="M45.3917 29.7789C45.3294 29.7788 45.2691 29.7575 45.2209 29.7186C45.1727 29.6798 45.1396 29.6257 45.1272 29.5655C45.1148 29.5054 45.1239 29.4429 45.1529 29.3885C45.1818 29.3342 45.2289 29.2914 45.2862 29.2674L48.3898 27.9671C48.4552 27.9426 48.5276 27.9441 48.5919 27.9712C48.6561 27.9983 48.7073 28.0488 48.7345 28.1122C48.7618 28.1756 48.7631 28.247 48.7382 28.3114C48.7132 28.3757 48.6639 28.428 48.6007 28.4573L45.4971 29.7656C45.4634 29.7776 45.4274 29.7821 45.3917 29.7789Z" fill="#4E95F3"/>
<path d="M51.1662 24.8176C51.1039 24.8174 51.0436 24.7961 50.9954 24.7573C50.9473 24.7184 50.9142 24.6643 50.9018 24.6041C50.8894 24.544 50.8984 24.4815 50.9274 24.4272C50.9564 24.3728 51.0035 24.33 51.0608 24.306L52.4125 23.7384C52.4779 23.714 52.5503 23.7155 52.6145 23.7426C52.6788 23.7696 52.7299 23.8202 52.7572 23.8836C52.7845 23.947 52.7858 24.0184 52.7608 24.0827C52.7359 24.1471 52.6866 24.1994 52.6234 24.2287L51.2716 24.7962C51.2381 24.8097 51.2024 24.8169 51.1662 24.8176Z" fill="#4E95F3"/>
<path d="M47.7653 26.2458C47.703 26.2457 47.6427 26.2244 47.5945 26.1855C47.5464 26.1466 47.5133 26.0925 47.5009 26.0324C47.4885 25.9722 47.4975 25.9097 47.5265 25.8554C47.5555 25.8011 47.6026 25.7583 47.6599 25.7342L50.1498 24.6924C50.2151 24.668 50.2875 24.6694 50.3518 24.6965C50.4161 24.7236 50.4672 24.7741 50.4945 24.8375C50.5218 24.901 50.5231 24.9723 50.4981 25.0367C50.4732 25.101 50.4239 25.1533 50.3607 25.1826L47.8708 26.2245C47.8376 26.2392 47.8016 26.2465 47.7653 26.2458Z" fill="#4E95F3"/>
<path d="M44.4508 27.634C44.398 27.6342 44.3464 27.6191 44.3022 27.5907C44.258 27.5623 44.2232 27.5218 44.2021 27.4741C44.1878 27.4419 44.18 27.4073 44.1794 27.3722C44.1787 27.337 44.1851 27.3021 44.1981 27.2694C44.2112 27.2367 44.2307 27.2069 44.2555 27.1817C44.2803 27.1564 44.3099 27.1363 44.3427 27.1224L46.4081 26.2591C46.4735 26.2347 46.5459 26.2362 46.6102 26.2632C46.6744 26.2903 46.7256 26.3408 46.7528 26.4043C46.7801 26.4677 46.7814 26.539 46.7565 26.6034C46.7315 26.6677 46.6823 26.72 46.619 26.7494L44.5562 27.6127C44.5231 27.6274 44.4871 27.6346 44.4508 27.634Z" fill="#4E95F3"/>
<path d="M48.6114 23.4133C48.5492 23.4132 48.4889 23.3919 48.4407 23.353C48.3925 23.3142 48.3594 23.2601 48.347 23.1999C48.3346 23.1398 48.3437 23.0773 48.3726 23.0229C48.4016 22.9686 48.4487 22.9258 48.506 22.9017L51.0608 21.8359C51.1262 21.8115 51.1986 21.813 51.2628 21.8401C51.3271 21.8671 51.3782 21.9177 51.4055 21.9811C51.4328 22.0445 51.4341 22.1159 51.4091 22.1802C51.3842 22.2446 51.3349 22.2969 51.2717 22.3262L48.7169 23.392C48.6838 23.4067 48.6478 23.414 48.6114 23.4133Z" fill="#4E95F3"/>
<path d="M43.099 25.7235C43.0462 25.7237 42.9946 25.7087 42.9504 25.6803C42.9062 25.6519 42.8714 25.6113 42.8503 25.5637C42.836 25.5315 42.8282 25.4968 42.8276 25.4617C42.8269 25.4266 42.8333 25.3917 42.8463 25.359C42.8594 25.3263 42.8789 25.2965 42.9037 25.2712C42.9285 25.246 42.9581 25.2259 42.9909 25.2119L47.0272 23.5226C47.0925 23.4982 47.1649 23.4997 47.2292 23.5268C47.2935 23.5538 47.3446 23.6044 47.3719 23.6678C47.3992 23.7312 47.4005 23.8026 47.3755 23.8669C47.3506 23.9313 47.3013 23.9836 47.238 24.0129L43.2044 25.7022C43.1713 25.7169 43.1353 25.7242 43.099 25.7235Z" fill="#4E95F3"/>
<path d="M44.6373 22.6407C44.5845 22.6408 44.5328 22.6258 44.4887 22.5974C44.4445 22.569 44.4097 22.5284 44.3886 22.4808C44.3743 22.4484 44.3667 22.4136 44.3662 22.3784C44.3657 22.3431 44.3724 22.3081 44.3857 22.2754C44.399 22.2427 44.4188 22.2129 44.4439 22.1878C44.469 22.1627 44.4989 22.1427 44.5318 22.1291L48.506 20.4664C48.5389 20.4511 48.5746 20.4426 48.611 20.4412C48.6473 20.4399 48.6836 20.4458 48.7176 20.4586C48.7516 20.4714 48.7826 20.4908 48.8088 20.5157C48.8349 20.5406 48.8558 20.5705 48.87 20.6035C48.8842 20.6365 48.8915 20.672 48.8914 20.7079C48.8913 20.7437 48.8839 20.7792 48.8697 20.8122C48.8554 20.8452 48.8345 20.875 48.8082 20.8998C48.7819 20.9246 48.7509 20.944 48.7168 20.9567L44.7454 22.6193C44.7114 22.6343 44.6745 22.6416 44.6373 22.6407Z" fill="#4E95F3"/>
<path d="M40.5442 24.3593C40.4817 24.3598 40.421 24.3389 40.3723 24.3002C40.3237 24.2616 40.2901 24.2075 40.2773 24.1472C40.2646 24.0869 40.2735 24.0241 40.3024 23.9695C40.3313 23.9148 40.3786 23.8718 40.4361 23.8477L42.8314 22.8431C42.8973 22.8152 42.9719 22.8143 43.0385 22.8405C43.1052 22.8668 43.1586 22.918 43.1869 22.983C43.2152 23.048 43.2162 23.1215 43.1896 23.1872C43.1629 23.2529 43.1109 23.3055 43.045 23.3334L40.6497 24.338C40.6161 24.3514 40.5804 24.3586 40.5442 24.3593Z" fill="#4E95F3"/>
</g>
<defs>
<linearGradient id="paint0_linear" x1="25.7727" y1="82.3278" x2="14.709" y2="37.7294" gradientUnits="userSpaceOnUse">
<stop offset="0.01"/>
<stop offset="0.13" stop-opacity="0.69"/>
<stop offset="0.25" stop-opacity="0.32"/>
<stop offset="1" stop-opacity="0"/>
</linearGradient>
<linearGradient id="paint1_linear" x1="13994.6" y1="1417.5" x2="13433.5" y2="8545.91" gradientUnits="userSpaceOnUse">
<stop offset="0.01"/>
<stop offset="0.13" stop-opacity="0.69"/>
<stop offset="0.25" stop-opacity="0.32"/>
<stop offset="1" stop-opacity="0"/>
</linearGradient>
<linearGradient id="paint2_linear" x1="23.4311" y1="18.0869" x2="68.7247" y2="77.3913" gradientUnits="userSpaceOnUse">
<stop stop-color="white" stop-opacity="0"/>
<stop offset="0.54" stop-color="white"/>
</linearGradient>
<linearGradient id="paint3_linear" x1="7290.32" y1="4394.56" x2="6774.88" y2="621.092" gradientUnits="userSpaceOnUse">
<stop stop-color="white" stop-opacity="0"/>
<stop offset="0.54" stop-color="white"/>
</linearGradient>
<linearGradient id="paint4_linear" x1="14228.9" y1="2627.79" x2="12213" y2="11495.1" gradientUnits="userSpaceOnUse">
<stop offset="0.01"/>
<stop offset="0.13" stop-opacity="0.69"/>
<stop offset="0.25" stop-opacity="0.32"/>
<stop offset="1" stop-opacity="0"/>
</linearGradient>
<linearGradient id="paint5_linear" x1="9921.51" y1="2303.39" x2="11873.6" y2="6104.5" gradientUnits="userSpaceOnUse">
<stop offset="0.01"/>
<stop offset="0.13" stop-opacity="0.69"/>
<stop offset="0.25" stop-opacity="0.32"/>
<stop offset="1" stop-opacity="0"/>
</linearGradient>
<linearGradient id="paint6_linear" x1="8528.48" y1="1407.36" x2="9145.58" y2="3104.37" gradientUnits="userSpaceOnUse">
<stop offset="0.01"/>
<stop offset="0.13" stop-opacity="0.69"/>
<stop offset="0.25" stop-opacity="0.32"/>
<stop offset="1" stop-opacity="0"/>
</linearGradient>
<linearGradient id="paint7_linear" x1="4800.36" y1="867.323" x2="4598.35" y2="1517.11" gradientUnits="userSpaceOnUse">
<stop offset="0.01"/>
<stop offset="0.13" stop-opacity="0.69"/>
<stop offset="0.25" stop-opacity="0.32"/>
<stop offset="1" stop-opacity="0"/>
</linearGradient>
<linearGradient id="paint8_linear" x1="7883.51" y1="1405.21" x2="10098.4" y2="5473.48" gradientUnits="userSpaceOnUse">
<stop offset="0.01"/>
<stop offset="0.13" stop-opacity="0.69"/>
<stop offset="0.25" stop-opacity="0.32"/>
<stop offset="1" stop-opacity="0"/>
</linearGradient>
<linearGradient id="paint9_linear" x1="24.7476" y1="60.8156" x2="22.0104" y2="33.1429" gradientUnits="userSpaceOnUse">
<stop offset="0.01"/>
<stop offset="0.13" stop-opacity="0.69"/>
<stop offset="1" stop-opacity="0"/>
</linearGradient>
<linearGradient id="paint10_linear" x1="67699.5" y1="7260.98" x2="68971.1" y2="8287.78" gradientUnits="userSpaceOnUse">
<stop offset="0.01"/>
<stop offset="0.13" stop-opacity="0.69"/>
<stop offset="1" stop-opacity="0"/>
</linearGradient>
<linearGradient id="paint11_linear" x1="1457.36" y1="2476.62" x2="1405.95" y2="1195.58" gradientUnits="userSpaceOnUse">
<stop offset="0.01"/>
<stop offset="0.13" stop-opacity="0.69"/>
<stop offset="1" stop-opacity="0"/>
</linearGradient>
<clipPath id="clip0">
<rect width="102" height="77" fill="white"/>
</clipPath>
</defs>
</svg>
