<svg width="20" height="18" viewBox="0 0 20 18" fill="none" xmlns="http://www.w3.org/2000/svg">
<path d="M19.7096 3.31863C19.6173 3.2255 19.5074 3.15165 19.3864 3.10138C19.2653 3.0511 19.1354 3.0254 19.0043 3.02577H18.3002V1.36625C18.2999 1.10227 18.1949 0.849175 18.0082 0.662508C17.8215 0.475841 17.5685 0.370841 17.3045 0.370544H2.97569C2.19857 0.370555 1.45328 0.679271 0.903769 1.22878C0.354259 1.77829 0.0455432 2.52358 0.0455322 3.30071V14.6993C0.0455432 15.4764 0.354259 16.2217 0.903769 16.7712C1.45328 17.3208 2.19857 17.6295 2.97569 17.6295H18.9651C19.2285 17.629 19.481 17.5243 19.6675 17.3384C19.854 17.1525 19.9595 16.9003 19.9608 16.637L20 4.02488C20.0008 3.89379 19.9756 3.76384 19.9257 3.64259C19.8759 3.52135 19.8024 3.41123 19.7096 3.31863ZM18.6343 16.3019H2.97569C2.55067 16.3019 2.14306 16.133 1.84252 15.8325C1.54198 15.532 1.37314 15.1243 1.37314 14.6993V3.30071C1.37314 2.87568 1.54198 2.46807 1.84252 2.16753C2.14306 1.86699 2.55067 1.69815 2.97569 1.69815H16.9726V3.02577H3.03266V4.35338H18.6714L18.6343 16.3019Z" fill="black"/>
</svg>
